<?xml version="1.0" encoding="UTF-8"?>
<svg id="Layer_1" data-name="Layer 1" xmlns="http://www.w3.org/2000/svg" xmlns:xlink="http://www.w3.org/1999/xlink" viewBox="0 0 595.28 211.92">
  <defs>
    <style>
      .cls-1 {
        fill: url(#linear-gradient-12);
      }

      .cls-1, .cls-2, .cls-3, .cls-4, .cls-5, .cls-6, .cls-7, .cls-8, .cls-9, .cls-10, .cls-11, .cls-12, .cls-13, .cls-14, .cls-15, .cls-16, .cls-17, .cls-18, .cls-19, .cls-20, .cls-21, .cls-22, .cls-23 {
        stroke-width: 0px;
      }

      .cls-2 {
        fill: url(#linear-gradient);
      }

      .cls-3 {
        fill: url(#linear-gradient-6);
      }

      .cls-4 {
        fill: url(#linear-gradient-18);
      }

      .cls-4, .cls-8, .cls-11, .cls-14, .cls-18, .cls-20, .cls-23 {
        fill-rule: evenodd;
      }

      .cls-5 {
        fill: url(#linear-gradient-15);
      }

      .cls-6 {
        fill: url(#linear-gradient-11);
      }

      .cls-7 {
        fill: url(#linear-gradient-5);
      }

      .cls-24 {
        filter: url(#drop-shadow-3);
      }

      .cls-8 {
        fill: url(#linear-gradient-23);
      }

      .cls-9 {
        fill: url(#linear-gradient-13);
      }

      .cls-10 {
        fill: url(#linear-gradient-16);
      }

      .cls-11 {
        fill: url(#linear-gradient-17);
      }

      .cls-12 {
        fill: url(#linear-gradient-14);
      }

      .cls-13 {
        fill: url(#linear-gradient-2);
      }

      .cls-14 {
        fill: url(#linear-gradient-20);
      }

      .cls-15 {
        fill: url(#linear-gradient-7);
      }

      .cls-25 {
        filter: url(#drop-shadow-2);
      }

      .cls-16 {
        fill: url(#linear-gradient-3);
      }

      .cls-17 {
        fill: url(#linear-gradient-9);
      }

      .cls-18 {
        fill: url(#linear-gradient-19);
      }

      .cls-19 {
        fill: url(#linear-gradient-8);
      }

      .cls-20 {
        fill: url(#linear-gradient-22);
      }

      .cls-21 {
        fill: url(#linear-gradient-10);
      }

      .cls-22 {
        fill: url(#linear-gradient-4);
      }

      .cls-23 {
        fill: url(#linear-gradient-21);
      }
    </style>
    <filter id="drop-shadow-2" filterUnits="userSpaceOnUse">
      <feOffset dx="4.81" dy="4.81"/>
      <feGaussianBlur result="blur" stdDeviation="7.69"/>
      <feFlood flood-color="#010101" flood-opacity=".75"/>
      <feComposite in2="blur" operator="in"/>
      <feComposite in="SourceGraphic"/>
    </filter>
    <linearGradient id="linear-gradient" x1="501.14" y1="124.1" x2="501.75" y2="49.4" gradientUnits="userSpaceOnUse">
      <stop offset="0" stop-color="#a28263"/>
      <stop offset="1" stop-color="#e9c886"/>
    </linearGradient>
    <linearGradient id="linear-gradient-2" x1="417.26" y1="123.42" x2="417.86" y2="48.72" xlink:href="#linear-gradient"/>
    <linearGradient id="linear-gradient-3" x1="51.1" y1="120.44" x2="51.7" y2="45.74" xlink:href="#linear-gradient"/>
    <linearGradient id="linear-gradient-4" x1="36.45" y1="120.32" x2="37.06" y2="45.62" xlink:href="#linear-gradient"/>
    <linearGradient id="linear-gradient-5" x1="123.99" y1="121.03" x2="124.6" y2="46.33" xlink:href="#linear-gradient"/>
    <linearGradient id="linear-gradient-6" x1="532.22" y1="124.35" x2="532.83" y2="49.65" xlink:href="#linear-gradient"/>
    <linearGradient id="linear-gradient-7" x1="562.03" y1="124.59" x2="562.64" y2="49.89" xlink:href="#linear-gradient"/>
    <linearGradient id="linear-gradient-8" x1="378.48" y1="123.1" x2="379.09" y2="48.4" xlink:href="#linear-gradient"/>
    <linearGradient id="linear-gradient-9" x1="342.06" y1="122.8" x2="342.67" y2="48.1" xlink:href="#linear-gradient"/>
    <linearGradient id="linear-gradient-10" x1="317.28" y1="122.6" x2="317.89" y2="47.9" xlink:href="#linear-gradient"/>
    <linearGradient id="linear-gradient-11" x1="294.07" y1="122.41" x2="294.68" y2="47.71" xlink:href="#linear-gradient"/>
    <linearGradient id="linear-gradient-12" x1="452.67" y1="123.7" x2="453.28" y2="49" xlink:href="#linear-gradient"/>
    <linearGradient id="linear-gradient-13" x1="263" y1="122.16" x2="263.6" y2="47.46" xlink:href="#linear-gradient"/>
    <linearGradient id="linear-gradient-14" x1="82.1" y1="120.69" x2="82.71" y2="45.99" xlink:href="#linear-gradient"/>
    <linearGradient id="linear-gradient-15" x1="163" y1="121.35" x2="163.61" y2="46.65" xlink:href="#linear-gradient"/>
    <linearGradient id="linear-gradient-16" x1="224.65" y1="121.85" x2="225.25" y2="47.15" xlink:href="#linear-gradient"/>
    <filter id="drop-shadow-3" filterUnits="userSpaceOnUse">
      <feOffset dx="10.3" dy="10.3"/>
      <feGaussianBlur result="blur-2" stdDeviation="10.3"/>
      <feFlood flood-color="#010101" flood-opacity=".75"/>
      <feComposite in2="blur-2" operator="in"/>
      <feComposite in="SourceGraphic"/>
    </filter>
    <linearGradient id="linear-gradient-17" x1="482.12" y1="201.46" x2="481.21" y2="38.4" xlink:href="#linear-gradient"/>
    <linearGradient id="linear-gradient-18" x1="499.1" y1="201.37" x2="498.19" y2="38.3" xlink:href="#linear-gradient"/>
    <linearGradient id="linear-gradient-19" x1="439.4" y1="201.7" x2="438.49" y2="38.64" xlink:href="#linear-gradient"/>
    <linearGradient id="linear-gradient-20" x1="113.7" y1="203.52" x2="112.79" y2="40.46" xlink:href="#linear-gradient"/>
    <linearGradient id="linear-gradient-21" x1="96.91" y1="203.61" x2="96" y2="40.55" xlink:href="#linear-gradient"/>
    <linearGradient id="linear-gradient-22" x1="156.64" y1="203.28" x2="155.72" y2="40.22" xlink:href="#linear-gradient"/>
    <linearGradient id="linear-gradient-23" x1="298.6" y1="202.49" x2="297.69" y2="39.42" xlink:href="#linear-gradient"/>
  </defs>
  <g class="cls-25">
    <g>
      <path class="cls-2" d="m512.53,73.59c-1.31-1.22-4.14-3.22-8.65-6.09-3.86-2.49-6.41-4.42-7.58-5.76-.61-.7-.91-1.54-.91-2.56,0-1.33.43-2.61,1.32-3.91.84-1.22,1.75-1.95,2.7-2.15.9-.2,1.81-.3,2.71-.3,2.12,0,3.63.47,4.52,1.4,1.14,1.17,1.72,3.13,1.72,5.82,0,.81.57,1.47,1.35,1.58.78.11,1.49-.38,1.7-1.15.62-2.28.94-4.81.94-7.52,0-.77-.03-1.49-.09-2.15-.05-.6-.42-1.1-.96-1.33-.54-.22-1.15-.12-1.6.27-.31.27-.53.3-.68.3-.04,0-.3-.01-1.03-.25-.66-.22-1.16-.36-1.54-.44l-.1-.02c-1.66-.24-3.25-.36-4.73-.36-4.42,0-7.73,1.07-9.86,3.18-1.06,1.08-1.76,1.86-2.17,2.41-1.17,1.68-1.76,3.49-1.76,5.38,0,1.54.41,3.12,1.23,4.72.91,1.74,2.69,3.53,5.44,5.5,1.48,1.06,3.86,2.54,7.05,4.39,3.33,1.95,4.31,2.68,4.6,2.94,1.7,1.74,2.57,3.28,2.57,4.59,0,.41-.04.86-.12,1.29-.43,2.13-1.43,3.76-3.04,4.98-1.54,1.11-3.24,1.65-5.2,1.65s-3.68-.58-5.14-1.78c-2.03-1.7-3.43-3.84-4.15-6.36-.14-.51-.26-1.04-.34-1.56-.12-.74-.71-1.29-1.45-1.33-.74-.05-1.39.44-1.58,1.17-.34,1.3-.5,2.74-.48,4.26,0,1.06.16,2.46.5,4.28.21,1.14.35,2.21.41,3.19.04.64.46,1.19,1.06,1.39.59.2,1.23.02,1.65-.45.28-.33.52-.37.71-.37.12,0,.25,0,.38.03,3.27.99,6.29,1.49,8.97,1.49,4.85,0,8.73-1.49,11.53-4.44l.03-.03c.65-.74,1.29-1.78,1.95-3.19.89-1.9,1.34-3.79,1.34-5.61,0-2.81-1.08-5.21-3.21-7.12Z"/>
      <path class="cls-13" d="m434.43,73.13c-.88.11-1.87.24-2.99.37-.76.02-1.79-.05-3.06-.23h-.04c-.78-.11-1.51.34-1.77,1.11-.27.79.03,1.62.74,2.03.69.4,1.09.82,1.09,1.14v9.06c0,.56-.55,1.09-1.65,1.58-1.93.9-4.08,1.36-6.39,1.36-2.95,0-5.68-.7-8.1-2.09-2.6-1.47-4.32-3.39-5.27-5.84-.77-2-1.16-4.01-1.16-5.96,0-3.77.89-7.05,3.26-9.8,1.65-1.91,2.77-2.62,3.22-2.93,1.66-1.17,3.97-1.69,6.77-1.69,1.48,0,3.15.15,4.94.46,2.33.42,4.28,1.77,5.96,4.14.45.63,1.23.87,1.94.59.71-.28,1.14-1.02,1.03-1.79-.13-1.02-.2-2.06-.2-3.11,0-.61.03-1.21.08-1.77.06-.62-.22-1.22-.72-1.57-.49-.34-1.1-.38-1.63-.12-.48.24-1.09.36-1.82.36-.56,0-1.76-.12-4.3-.67-2.23-.49-3.99-.72-5.39-.72-4.9,0-9.44,1.55-13.51,4.61-4.28,3.25-6.46,7.74-6.46,13.36,0,2.92.68,5.77,2.04,8.49,2.12,4.13,5.31,7.1,9.49,8.82,2.67,1.12,5.56,1.68,8.58,1.68,1.71,0,4.16-.42,7.51-1.28,3.11-.8,5.33-1.21,6.6-1.21.13,0,.26,0,.38.01.63.04,1.2-.28,1.51-.82.33-.56.31-1.24-.03-1.79-.16-.26-.19-.39-.19-.39v-11.53c0-.11.15-.39.69-.79.63-.46.87-1.29.58-2.02-.28-.72-.98-1.14-1.73-1.04Z"/>
      <path class="cls-16" d="m50.8,92.28s-.1,0-.15,0h1.35c-.41-.01-.81-.02-1.2,0Z"/>
      <path class="cls-22" d="m56.92,90.26l-.12-.42-.37-.23c-.27-.17-.53-.35-.8-.55-.95-.71-1.6-1.46-1.96-2.25-3.32-7.35-5.9-13.21-7.66-17.41-2.76-6.92-4.97-12.52-6.58-16.64-.44-1.14-1.5-1.89-2.68-1.89h-.01c-1.18,0-2.24.73-2.69,1.87-2.61,6.56-4.78,11.93-6.43,15.94-3.75,8.74-6.49,15.11-8.17,18.94-.18.42-.67,1.12-1.94,2.01l-.18.12c-.12.07-.24.14-.37.22l-.38.22-.04.11-.16.11.09.09-.03.11c-.05.17-.08.34-.09.5,0,.44.14.86.42,1.18h9.68c.18-.27.28-.59.29-.92,0-.19-.02-.39-.09-.58l-.13-.39-.35-.22c-.19-.12-.36-.24-.53-.36-1.17-.85-1.23-1.33-1.23-1.41,0-.02,0-.06.02-.12l4.38-10.54c2.63-.08,4.77-.12,6.38-.12,1.7,0,3.93.04,6.64.12l3.57,10.19s.02.09.02.15c0,.47-.51,1.04-1.43,1.62-.19.12-.41.24-.66.37l-.47.24-.12.51c-.03.12-.04.24-.05.36,0,.41.12.8.36,1.11h7.56c.05,0,.11,0,.15,0,.38-.01.79,0,1.2,0h4.4c.39-.38.61-.91.61-1.45,0-.19-.03-.38-.09-.58Zm-22.09-16.76c-1.71-.06-3.11-.12-4.19-.19l4.94-12.1c1.89,4.66,3.45,8.69,4.67,12.04-2.2.17-4.02.25-5.41.25Z"/>
      <path class="cls-7" d="m140.76,90.34l-.54-.31c-.29-.16-.52-.31-.72-.44-.83-.58-1.4-1.21-1.7-1.91-2.68-5.85-4.74-10.53-6.12-13.89-2.1-5.26-3.79-9.56-5.04-12.79-.42-1.09-1.42-1.8-2.54-1.8-1.12,0-2.14.69-2.57,1.77-2.01,5.02-3.7,9.14-5,12.24-2.97,7.01-5.14,12.1-6.46,15.11-.19.42-.63.88-1.27,1.35-.12.09-.24.17-.38.26l-.05.04s-.08.05-.11.08l-.43.29-.1.43c-.03.14-.05.28-.05.42,0,.41.14.8.39,1.11h7.93c.17-.28.27-.59.27-.93,0-.09,0-.18-.02-.27l-.08-.51-.43-.28c-.24-.16-.43-.29-.58-.41-.45-.36-.64-.65-.67-.81l3.45-8.3c2.02-.09,3.66-.14,4.89-.14,1.32,0,3.06.05,5.18.14l2.79,8.09h0c-.06.25-.35.56-.8.88-.19.13-.42.27-.68.41l-.55.26-.05.62v.18c-.01.39.12.76.34,1.06h11.24c.32-.32.51-.76.51-1.24l-.04-.72Zm-18.26-13.43c-1.18-.04-2.18-.07-2.99-.11l3.61-8.85c1.37,3.37,2.52,6.32,3.42,8.81-1.63.1-2.98.15-4.04.15Z"/>
      <path class="cls-3" d="m545.57,66.63c-.86-5.7-5.43-8.59-13.6-8.59-1.83,0-3.8.16-5.84.48-1.3.18-2.88.22-4.7.09-.72-.04-1.36.38-1.61,1.06-.26.7-.03,1.47.57,1.92,1.23.9,1.39,1.46,1.39,1.65.15,4.8.23,8.6.23,11.29,0,3.6-.11,8.47-.33,14.49,0,.15-.01.55-.77,1-.2.12-.44.23-.71.34l-.64.26-.08.68c0,.06-.01.12-.01.18,0,.29.07.56.2.81h10.9c.19-.29.31-.63.31-.98l-.03-.84-.71-.27c-.14-.05-.27-.1-.37-.15-.14-.07-.27-.13-.39-.2-.6-.33-.95-.68-.96-.96-.25-6.06-.36-10.89-.33-14.37,0-2.8.12-6.77.36-11.83.11-.07.33-.2.76-.35.75-.26,1.65-.4,2.66-.4,1.9,0,3.49.45,4.72,1.36,1.51,1.07,2.23,2.66,2.2,4.83-.03,2.41-.67,4.06-1.98,5.08-1.05.87-2.73,1.45-5.01,1.74-.84.11-1.44.81-1.42,1.68.02.86.64,1.54,1.48,1.61.39.03.81.05,1.24.05,1.76,0,3.75-.31,5.93-.91,1.83-.5,3.42-1.66,4.72-3.45,1.29-1.78,1.94-3.76,1.94-5.89,0-.48-.04-.96-.13-1.43Z"/>
      <path class="cls-15" d="m578.89,90.82h0s-.08-.56-.08-.56l-.48-.28c-.26-.15-.48-.29-.66-.42-.81-.57-1.37-1.2-1.67-1.89-2.68-5.85-4.74-10.53-6.12-13.89-2.09-5.25-3.79-9.54-5.04-12.78-.42-1.09-1.42-1.8-2.55-1.8h-.02c-1.12,0-2.13.7-2.56,1.78-2.02,5.03-3.7,9.14-4.99,12.23-2.97,7.02-5.15,12.11-6.46,15.11-.2.44-.67.93-1.36,1.41-.1.07-.19.13-.29.2l-.05.04c-.07.05-.14.09-.21.14l-.55.36-.07.51c-.01.08-.02.17-.02.25,0,.39.13.75.36,1.06h8.16c.17-.27.27-.59.27-.92,0-.09,0-.18-.02-.26l-.08-.52-.44-.28c-.24-.15-.43-.29-.58-.41-.55-.44-.66-.72-.68-.82l3.45-8.3c2.02-.09,3.66-.14,4.89-.14,1.32,0,3.06.05,5.18.14l2.79,8.09h0c-.06.25-.33.55-.77.86-.18.12-.38.25-.61.38l-.48.26-.1.54c-.02.11-.03.21-.03.32,0,.39.13.76.36,1.06h11.04c.32-.32.51-.77.51-1.23,0-.08,0-.16-.02-.24Zm-18.19-13.91c-1.18-.04-2.18-.07-2.99-.11l3.61-8.85c1.37,3.37,2.52,6.32,3.42,8.81-1.63.1-2.98.15-4.04.15Z"/>
      <path class="cls-19" d="m395.23,90.69l-.11-.48-.42-.25c-.22-.13-.43-.26-.6-.38-.81-.57-1.37-1.2-1.67-1.89-2.68-5.84-4.74-10.52-6.12-13.89-2.09-5.25-3.79-9.55-5.04-12.79-.42-1.09-1.42-1.79-2.54-1.8h-.02c-1.12,0-2.12.69-2.55,1.77-2.01,5.01-3.69,9.14-5,12.25-2.97,7.02-5.15,12.11-6.46,15.11-.2.43-.66.92-1.31,1.38l-1.02.68-.1.43c-.03.14-.05.28-.05.41,0,.39.13.75.36,1.06h7.87c.17-.28.28-.59.28-.93,0-.22-.04-.44-.12-.64l-.13-.33-.29-.2c-.15-.1-.29-.21-.42-.31-.44-.36-.62-.64-.65-.79l3.45-8.3c2.02-.09,3.66-.14,4.89-.14,1.32,0,3.06.05,5.19.14l2.79,8.09h0c-.06.27-.39.61-.9.94-.16.11-.34.21-.53.32l-.38.2-.15.4c-.07.2-.11.4-.11.61,0,.33.1.65.27.93h11.17c.31-.32.49-.75.49-1.21,0-.13-.01-.26-.05-.39Zm-18.11-13.78c-1.18-.04-2.18-.07-2.99-.11l3.61-8.85c1.37,3.37,2.52,6.32,3.42,8.81-1.63.1-2.98.15-4.04.15Z"/>
      <path class="cls-17" d="m355.66,57.97h0c-.72.16-1.36.24-1.92.26-4.02.12-7.81.17-11.26.17-3.87,0-7.88-.06-11.91-.17-.41-.07-.79-.13-1.12-.2-.72-.14-1.45.06-2,.57-.56.52-.85,1.29-.77,2.07.09.8.14,1.75.15,2.82v.15c0,.16,0,.31,0,.48v.32l.17.27c.41.67,1.23.99,1.99.71l.44-.16.2-.43c.1-.21.2-.4.31-.58.65-1.07,1.42-1.58,2.48-1.6,2.46-.14,4.78-.17,6.93-.1.14,5.24.2,9.27.2,11.98,0,3.4-.08,8.2-.23,14.27,0,.31-.1.73-.85,1.2-.07.04-.14.09-.22.13l-.08.05c-.1.07-.24.14-.41.21l-.64.29-.03.65v.12c0,.29.07.57.2.83h9.54c.22-.3.34-.66.34-1.03,0-.12-.01-.24-.04-.35l-.1-.49-.42-.26c-.17-.1-.31-.21-.41-.31-.32-.31-.47-.69-.49-1.19-.18-5.7-.28-10.44-.28-14.07.03-2.96.11-7.02.25-12.08,1.65-.03,3.76.04,6.31.21h.08c1.25,0,2.22.57,3.03,1.79.01.02.02.03.03.05.04.07.08.14.12.21l.15.26.18.14c.3.23.65.35,1.01.35.63,0,1.2-.36,1.5-.93l.12-.24v-.27c0-.18,0-.36,0-.54.02-1.07.08-2.05.18-2.9.09-.8-.2-1.59-.78-2.12-.56-.51-1.29-.71-2.01-.55Z"/>
      <path class="cls-21" d="m322.14,58.1l-4.27.26c-.86.05-1.86.04-2.97-.05h-.17c-.23-.03-.46-.05-.7-.07l-.63-.07-.39.5c-.23.31-.36.69-.36,1.07,0,.06,0,.13.01.17l.06.61.53.29c.24.13.45.26.63.39.33.25.53.49.53.66.12,5.02.2,8.99.23,11.8,0,3.63-.08,8.73-.23,15.19,0,.27-.08.63-.66,1.06-.13.09-.24.17-.36.23l-.05.03c-.05.03-.11.06-.19.11l-.47.26-.1.53c-.02.11-.03.22-.03.33,0,.32.1.63.26.9h8.72c.25-.31.4-.7.4-1.11,0-.15-.02-.29-.06-.44l-.1-.4-.34-.24c-.13-.09-.24-.19-.32-.28-.28-.3-.41-.66-.42-1.14-.15-6.26-.23-11.26-.23-14.84.09-5.46.17-9.42.23-11.75,0-.17.25-.5.9-.9.12-.07.25-.15.39-.22.09-.05.19-.1.29-.14l.54-.25.1-.59c.02-.1.03-.2.03-.3,0-.42-.15-.83-.43-1.15l-.37-.42Z"/>
      <path class="cls-6" d="m308.64,90.18l-.17-.37-.37-.17c-.15-.07-.32-.16-.51-.27-.4-.23-.87-.53-1.4-.91-2.57-2.73-5.4-7.08-8.41-12.94.87-.38,1.76-.97,2.65-1.75,2.03-1.71,3.06-3.83,3.06-6.28,0-.78-.11-1.57-.32-2.33-1.24-4.79-4.62-7.33-9.78-7.33-.33,0-.69,0-1.09.03-.16,0-.4.02-.66.08-.3.01-1,.06-2.97.25h-.04c-1.56.21-2.87.3-3.9.27-.65,0-1.47-.05-2.44-.14-.23-.02-.47-.05-.72-.07l-.46-.05-.36.29c-.42.33-.66.83-.66,1.37,0,.05,0,.1,0,.15l.04.51.43.31c.11.08.22.16.36.27.09.07.18.14.26.21.61.51.83.9.83,1.08v.05c.09,2.33.2,6.13.33,11.59.03,3.49-.08,8.38-.33,14.55,0,.31-.09.79-.74,1.32-.14.12-.29.22-.44.32l-.36.22-.13.41c-.05.17-.08.35-.08.52,0,.33.1.65.27.92h9.04c.25-.31.4-.69.4-1.1,0-.22-.04-.44-.12-.64l-.12-.32-.28-.2c-.1-.07-.2-.16-.3-.25-.39-.38-.58-.82-.58-1.39l-.08-12.17h1.95s1.15.05,3.48,4.53c1.25,2.44,3.08,5.53,5.42,9.17.65,1.05,1.45,1.84,2.42,2.37.98.54,2.12.81,3.41.81.89,0,1.71-.19,2.44-.56.14-.07.28-.16.42-.25.09-.06.18-.12.28-.19l.24-.18.12-.27c.1-.23.15-.47.15-.71,0-.26-.06-.52-.17-.76Zm-16.68-17.89c-.23.03-1.01.06-3.58.01-.07-1.97-.05-4.86.05-8.62,0-.6.25-.99.82-1.3.6-.3,1.26-.41,2.06-.33,1.1.09,2.16.42,3.17.98,1.68.93,2.53,2.26,2.6,4.07.1,1.89-.33,4.49-5.12,5.19Z"/>
      <path class="cls-1" d="m464.39,83.54c-.37,0-.7.12-.98.32-.11.19-.23.38-.37.59h0c-.09.14-.19.27-.29.41,0,.01-.02.03-.03.04-1.4,1.84-3.17,2.97-5.42,3.46-2.07.42-3.97.63-5.64.63-1.37,0-1.77-.18-1.85-.22-.89-.46-1.41-.96-1.44-1.37-.21-2.55-.29-6.08-.22-10.51,1.46-.12,3.36-.09,5.67.06h.05s.05,0,.05,0c.58,0,1.07.13,1.5.42.28.19.54.45.77.78h0c.15.2.28.42.4.66l.05.1c.24.1.49.15.77.15.74,0,1.38-.4,1.73-.99l-.08-.98s0,0,0,0l-.05-.55h-.02c0-.07-.01-.13-.02-.19-.03-.24-.05-.46-.07-.67-.03-.42-.04-.81-.01-1.13.08-.33.17-.73.26-1.2.05-.24.1-.48.15-.75h0s.09-.49.09-.49c0-.02,0-.05.01-.08l.19-1.03c-.32-.69-1.02-1.16-1.82-1.16-.18,0-.34.03-.51.07l-.18.31c-.17.28-.33.54-.5.78h0s-.05.07-.05.07c-.26.37-.52.67-.77.92-.46.45-.89.69-1.27.7h-.1c-1.79.23-3.47.35-5,.35-.47,0-.9-.01-1.29-.04-.11-3.87-.01-6.8.28-8.75.16-1.2.37-1.56.43-1.64.17-.16.7-.5,2.18-.64,3.82-.27,6.9.03,9.16.9.18.07.34.15.5.23.6.3,1.05.69,1.36,1.18h0c.08.14.16.28.22.43l.15.37c.18.05.38.08.58.08.9,0,1.67-.52,2.06-1.26l-.06-.74-.04-.53h-.02c-.05-.44-.12-.9-.2-1.37-.15-.83-.35-1.72-.61-2.67l-.25-.89-.92.06c-6.78.48-11.97.72-15.42.72-.92,0-1.66-.03-2.2-.09h-.06c-.47-.03-1.02-.07-1.63-.1-.26-.01-.53-.03-.82-.04h0s-.55-.03-.55-.03c-.02,0-.03,0-.05,0l-1.05-.05c-.58.38-.97,1.04-.97,1.79,0,.3.06.58.17.84l.48.25c.08.05.15.1.22.15h0c.3.22.64.51.83.85.09.16.15.32.15.49.06,2.18.12,5.8.19,10.76.03,3.57-.03,8.57-.19,14.86,0,.3-.07.72-.49,1.2-.13.15-.29.3-.49.46-.15.12-.33.23-.52.35l-.26.15c-.13.26-.22.54-.22.85,0,.44.16.84.41,1.15.23.28.53.49.88.6l1.13-.04h0s.12,0,.12,0l2.2-.09c1.37-.1,3.65-.2,6.76-.3l10.55.3.54.03.36-.4s.05-.06.08-.09c1.2-1.36,2.08-3.35,2.68-6.05,0-.04.02-.08.03-.12h.01s.09-.48.09-.48c0,0,0,0,0-.01l.15-.77c-.17-.76-.84-1.33-1.65-1.33Z"/>
      <path class="cls-9" d="m274.7,83.55c-.37,0-.7.12-.98.32-.11.19-.23.38-.37.59h0c-.09.14-.19.27-.29.41,0,.01-.02.03-.03.04-1.4,1.84-3.17,2.97-5.42,3.46-2.07.42-3.97.63-5.64.63-1.37,0-1.77-.18-1.85-.22-.89-.46-1.41-.96-1.44-1.37-.21-2.55-.29-6.08-.22-10.51,1.46-.12,3.36-.09,5.67.06h.05s.05,0,.05,0c.58,0,1.07.13,1.5.42.28.19.54.45.77.78h0c.15.2.28.42.4.66l.05.1c.24.1.49.15.77.15.74,0,1.38-.4,1.73-.99l-.08-.98s0,0,0,0l-.05-.55h-.02c0-.07-.01-.13-.02-.19-.03-.24-.05-.46-.07-.67-.03-.42-.04-.81-.01-1.13.08-.33.17-.73.26-1.2.05-.24.1-.48.15-.75h0s.09-.49.09-.49c0-.02,0-.05.01-.08l.19-1.03c-.32-.69-1.02-1.16-1.82-1.16-.18,0-.34.03-.51.07l-.18.31c-.17.28-.33.54-.5.78h0s-.05.07-.05.07c-.26.37-.52.67-.77.92-.46.45-.89.69-1.27.7h-.1c-1.79.23-3.47.35-5,.35-.47,0-.9-.01-1.29-.04-.11-3.87-.01-6.8.28-8.75.16-1.2.37-1.56.43-1.64.17-.16.7-.5,2.18-.64,3.82-.27,6.9.03,9.16.9.18.07.34.15.5.23.6.3,1.05.69,1.36,1.18h0c.08.14.16.28.22.43l.15.37c.19.05.38.08.58.08.9,0,1.67-.52,2.06-1.26l-.06-.74-.04-.53h-.02c-.05-.44-.12-.9-.2-1.37-.15-.83-.35-1.72-.61-2.67l-.25-.89-.92.06c-6.78.48-11.97.72-15.42.72-.92,0-1.66-.03-2.2-.09h-.06c-.47-.03-1.02-.07-1.63-.1-.26-.01-.53-.03-.82-.04h0s-.55-.03-.55-.03c-.02,0-.03,0-.05,0l-1.05-.05c-.58.38-.97,1.04-.97,1.79,0,.3.06.58.17.84l.48.25c.08.05.15.1.22.15h0c.3.22.64.51.83.85.09.16.15.32.15.49.06,2.18.12,5.8.19,10.76.03,3.57-.03,8.57-.19,14.86,0,.3-.07.72-.49,1.2-.13.15-.29.3-.49.46-.15.12-.33.23-.52.35l-.26.15c-.13.26-.22.54-.22.85,0,.43.15.83.4,1.14.23.28.53.5.89.61l1.13-.04h0s.12,0,.12,0l2.2-.09c1.37-.1,3.65-.2,6.76-.3l10.55.3.54.03.36-.4s.06-.07.08-.1c1.19-1.36,2.07-3.35,2.67-6.04,0-.04.02-.08.03-.12h.01s.09-.48.09-.48c0,0,0,0,0-.01l.15-.77c-.17-.76-.84-1.33-1.65-1.33Z"/>
      <path class="cls-12" d="m103.59,89.96l-.53-.22c-.16-.07-.32-.14-.46-.21-1.15-.59-1.2-1.18-1.22-1.37v-.04c-.36-2.83-.86-7.52-1.49-13.94-.22-2.83-.45-6.8-.7-11.82-.02-.2.28-.73,1.5-1.45.59-.35.86-1.05.67-1.72-.06-.22-.17-.41-.3-.57h-8.82l-.09.23c-1.11,2.74-3,7.23-5.62,13.33-1.08,2.39-2.59,5.57-4.51,9.48-1.05-2.17-2.46-5.12-4.25-8.93-1.48-3.3-3.45-7.97-5.85-13.88l-.09-.23h-9.14c-.13.15-.23.33-.28.53-.19.66.08,1.37.67,1.72,1.71,1.01,1.76,1.62,1.76,1.73v.03s0,.04,0,.04c.03,4.38-.2,8.5-.69,12.28-.39,3.22-.9,7.7-1.54,13.34-.06.62-.33,1.13-.82,1.58-.07.06-.13.12-.21.18-.1.07-.2.15-.3.22l-.44.29-.06.53c-.04.33.01.66.15.96.04.09.1.17.15.25h7.85c.23-.3.36-.68.36-1.07,0-.13-.02-.26-.05-.4l-.11-.47-.41-.25c-.19-.12-.37-.24-.53-.37-.88-.69-.96-1.25-.94-1.62.08-2.61.26-6.98.53-12.94.16-2.14.44-4.92.82-8.3,1.12,2.29,2.53,5.21,4.2,8.74,1.68,3.68,3.82,8.8,6.38,15.22l.31.79.21.18c.3.26.69.4,1.08.4.46,0,.9-.19,1.22-.53l.14-.15.24-.57c1.6-3.82,4.11-9.61,7.44-17.19.78-1.67,1.79-3.79,3.02-6.32.23,1.99.5,4.45.83,7.41.29,3.19.56,7.67.81,13.3.02.44-.07,1.02-1.01,1.6-.2.12-.42.24-.67.34l-.58.25-.1.62c-.02.09-.02.19-.02.29,0,.38.13.75.36,1.06h11c.05-.05.1-.1.14-.16.37-.51.43-1.19.17-1.77l-.18-.4Z"/>
      <path class="cls-5" d="m181.93,58.62h-8.93l-.03.08c-.09.22-.14.45-.14.69,0,.18.03.36.09.54l.15.48.46.21c.25.11.45.21.62.31l.04.02c.48.27,1.3.79,1.32,1.33v.06c.39,4.2.58,8.94.58,14.09,0,1.94-.03,3.88-.09,5.81-2.73-2.57-6.57-6.25-11.47-10.97-2.97-2.98-7.07-7.24-12.2-12.65h-7.31c-.1.13-.18.29-.23.45-.2.65.03,1.33.59,1.7.17.11.33.23.46.34.9.78,1.35,1.68,1.38,2.76.15,5.38.2,9.67.14,12.75-.03,2.9-.16,6.95-.37,12.02-.02.32-.45.76-1.16,1.19-.19.11-.4.23-.62.33l-.44.22-.14.47c-.05.17-.08.35-.08.52,0,.33.09.65.26.93h9.13c.17-.27.26-.59.26-.93,0-.19-.03-.37-.09-.56l-.15-.44-.41-.21c-.12-.06-.23-.12-.34-.19l-.04-.02s-.09-.05-.14-.08l-.09-.05c-.82-.49-1.24-.98-1.24-1.46v-.09c-.34-4.26-.51-8.76-.51-13.38,0-2.64.06-5.15.18-7.49,2.27,2.15,5.42,5.16,9.42,8.98,3.91,3.83,9.19,9.18,15.72,15.92.18.18.35.36.53.55l.78.79.38.06c.07,0,.14.02.21.02.45,0,.88-.18,1.2-.51l.34-.35-.02-.55-.03-.81c-.25-8.19-.31-14.74-.16-19.47.06-2.23.19-5.4.4-9.42.03-.59.5-1.16,1.41-1.68.61-.35.89-1.07.69-1.75-.06-.21-.17-.39-.3-.54Z"/>
      <path class="cls-10" d="m246.37,90l-.51-.21c-.25-.1-.44-.19-.62-.28-.03-.02-.06-.03-.08-.04-1.1-.54-1.74-1.13-1.75-1.62-.22-7.73-.33-13.88-.33-18.26.03-3.62.14-8.67.32-14.98.03-.55.72-1.18,1.95-1.76.65-.31.99-1.04.81-1.74-.07-.26-.2-.49-.37-.67h-12.27c-.21.29-.32.64-.32,1.01,0,.07,0,.13.01.2l.07.65.59.27c.29.13.54.26.76.38.86.49,1.36.98,1.36,1.37l.04,13.15c-4.86.11-8.77.17-11.64.17-2.33,0-5.76-.06-10.19-.17l.09-12.71c.03-.08.3-.66,2.22-1.71.22-.12.45-.24.69-.36l.44-.22.14-.48c.05-.17.07-.33.07-.49,0-.35-.11-.7-.3-.99l-.04-.06h-13.71l-.04.06c-.17.28-.26.6-.26.92,0,.19.03.39.1.58l.16.46.44.2c.23.11.45.22.67.34.1.05.19.1.3.16,1.43.8,1.6,1.24,1.6,1.24h0s0,.05,0,.05c.12,2.96.25,7.89.37,14.65.03,4.41-.09,10.59-.37,18.35v.04c0,.27-.2,1.02-2.04,2.16-.21.13-.43.26-.66.38l-.44.24-.12.49c-.13.55,0,1.12.34,1.53h12.66l.05-.05.08-.05.11-.12c.41-.43.56-1.05.41-1.64l-.13-.52-.49-.23c-.17-.08-.32-.16-.48-.24-.03-.01-.05-.03-.08-.04l-.1-.06c-1.02-.59-1.58-1.19-1.6-1.66l-.09-15.49c4.08-.1,7.36-.15,9.78-.15,3.28,0,7.34.05,12.05.15l-.13,15.91c0,.33-.49.92-1.85,1.57-.24.12-.5.23-.78.34l-.56.23-.13.59c-.03.12-.04.25-.04.37,0,.4.13.78.37,1.09h13.15l.07-.08c.3-.32.46-.75.46-1.19,0-.17-.02-.33-.07-.5l-.15-.53Z"/>
    </g>
  </g>
  <g class="cls-24">
    <g>
      <g>
        <path class="cls-11" d="m457.44,157.25c1.55,1.59,3.41,3.05,5.42,4,1.74.82,3.67,1.34,5.58,1.56,5.15.6,10.08-.77,14.17-3.93,3.63-2.8,6.42-6.45,10.47-8.71,2.64-1.47,5.67-2.19,8.7-1.99,1.01.07,2.06.21,3.05.44.32.07.63.16.94.26.16.05.51.34.49.16-.06-.54-2.9-2.49-3.5-2.82-3.73-2.12-8.81-3.52-13.06-2.4-1.83.48-3.35,1.22-4.78,2.47-.57.49-1.07,1.44-1.68,1.82-.2.13-.11-.47-.2-.69-.16-.42-.46-.74-.85-.98-1.07-.64-2.37-.42-3.31.31-2.15,1.65-2.9,5.17-4.45,7.37-3.78,5.34-10.82,7.27-16.35,3.19"/>
        <path class="cls-4" d="m475.01,149.25c3.66-9.14,10.1-15.25,19.42-13.15,4.12.92,10.29,5.49,14.74,4.51,2.22-.49,2.19-2.97,1.14-4.59-.26-.41-1.34-1.68-1.34-1.68,0,0,2.5.24,3.15.25,5.41.11,10.01-6.68,10.31-10.37.31-3.86-1.39-5.39-1.39-5.39,0,0,.5,1.77-.77,4.44-1.34,2.81-3.79,4.11-6.88,4.71-4.11.79-8.59-.79-12.62-1.43-9.39-1.51-19.03,2.07-23.2,10.39-1.95,3.89-2.15,9.71-2.55,12.31h0Z"/>
        <path class="cls-18" d="m397.75,139.52c6.7-.23,9.61-.69,20.77-.03,6.41.38,15.71.68,21.76,3,8.07,3.09,14.4,14.71,23.31,13.26,4.64-.75,9.42-4.68,9.76-10.68.19-3.3.08-7.42,1.3-10.56,2.32-5.98,5.64-5.74,5.64-5.74,0,0-4.62-1.27-7.76-.54-8.83,2.03-7.85,7.99-7.85,7.99,0,0-1.31-2-3.91-2.42-3.89-.64-7.42,1.03-7.89,5.13-.37,3.21,2.05,8.15,6.02,6.82,1.76-.59,2.35-2.07,2.29-3.27-.12-2.7-2.25-3.41-2.25-3.41,0,0,2.27-.28,4.38,1.61,2.28,2.03,1.96,6.87-1.18,8.41-2.91,1.43-5.86.24-8.28-1.66-4.23-3.33-6.83-5.98-12.15-7.61-12.98-3.96-33.53-2.04-43.97-.3h0Z"/>
      </g>
      <g>
        <path class="cls-14" d="m137.84,157.25c-1.55,1.59-3.41,3.05-5.42,4-1.74.82-3.67,1.34-5.58,1.56-5.15.6-10.08-.77-14.17-3.93-3.63-2.8-6.42-6.45-10.47-8.71-2.64-1.47-5.67-2.19-8.7-1.99-1.01.07-2.06.21-3.05.44-.32.07-.63.16-.94.26-.16.05-.51.34-.49.16.06-.54,2.9-2.49,3.5-2.82,3.73-2.12,8.81-3.52,13.06-2.4,1.83.48,3.35,1.22,4.78,2.47.57.49,1.07,1.44,1.68,1.82.2.13.11-.47.2-.69.16-.42.46-.74.85-.98,1.07-.64,2.37-.42,3.31.31,2.15,1.65,2.9,5.17,4.45,7.37,3.78,5.34,10.82,7.27,16.35,3.19"/>
        <path class="cls-23" d="m120.26,149.25c-3.66-9.14-10.1-15.25-19.42-13.15-4.12.92-10.29,5.49-14.74,4.51-2.22-.49-2.19-2.97-1.14-4.59.26-.41,1.34-1.68,1.34-1.68,0,0-2.5.24-3.15.25-5.41.11-10.01-6.68-10.31-10.37-.31-3.86,1.39-5.39,1.39-5.39,0,0-.5,1.77.77,4.44,1.34,2.81,3.79,4.11,6.88,4.71,4.11.79,8.59-.79,12.62-1.43,9.39-1.51,19.03,2.07,23.2,10.39,1.95,3.89,2.15,9.71,2.55,12.31h0Z"/>
        <path class="cls-20" d="m197.52,139.52c-6.7-.23-9.61-.69-20.77-.03-6.41.38-15.71.68-21.76,3-8.07,3.09-14.4,14.71-23.31,13.26-4.64-.75-9.42-4.68-9.76-10.68-.19-3.3-.08-7.42-1.3-10.56-2.32-5.98-5.64-5.74-5.64-5.74,0,0,4.62-1.27,7.76-.54,8.83,2.03,7.85,7.99,7.85,7.99,0,0,1.31-2,3.91-2.42,3.89-.64,7.42,1.03,7.89,5.13.37,3.21-2.05,8.15-6.02,6.82-1.76-.59-2.35-2.07-2.29-3.27.12-2.7,2.25-3.41,2.25-3.41,0,0-2.27-.28-4.38,1.61-2.28,2.03-1.96,6.87,1.18,8.41,2.91,1.43,5.86.24,8.28-1.66,4.23-3.33,6.83-5.98,12.15-7.61,12.98-3.96,33.53-2.04,43.97-.3h0Z"/>
      </g>
      <polygon class="cls-8" points="430.51 140.36 165.98 140.36 165.98 137.63 430.51 137.63 430.51 140.36 430.51 140.36"/>
    </g>
  </g>
</svg>