<?xml version="1.0" encoding="UTF-8"?>
<svg id="Layer_1" data-name="Layer 1" xmlns="http://www.w3.org/2000/svg" viewBox="0 0 595.28 595.28">
  <defs>
    <style>
      .cls-1 {
        fill: #fff;
      }

      .cls-1, .cls-2 {
        stroke-width: 0px;
      }

      .cls-2 {
        fill: #231f20;
      }
    </style>
  </defs>
  <circle class="cls-2" cx="297.64" cy="297.64" r="234.06"/>
  <g>
    <g>
      <path class="cls-1" d="m232.64,241.38c-2.38,9.64-7.42,17.44-15.12,23.41-7.62,5.92-16.41,8.89-26.38,8.89-11.99,0-22.2-4.12-30.61-12.35-8.45-8.27-12.68-18.4-12.68-30.39s4.19-22.05,12.57-30.29c8.34-8.13,18.51-12.19,30.5-12.19,15.6,0,27.65,6.43,36.14,19.29,2.96,4.44,4.82,8.92,5.58,13.44h-22c-3.65-9.54-10.26-14.3-19.83-14.3-6.46,0-11.79,2.4-15.98,7.21-4.01,4.62-6.01,10.2-6.01,16.74s2,12.26,6.01,16.96c4.23,4.98,9.59,7.48,16.09,7.48,8.96,0,15.53-4.62,19.72-13.87h22Z"/>
      <path class="cls-1" d="m282.94,272.1l-4.01-11.87h-28.5l-4.33,11.87h-22.54l32.94-82.14h16.52l32.67,82.14h-22.76Zm-17.99-56.56h-.33l-8.45,28.06h17.23l-8.45-28.06Z"/>
      <path class="cls-1" d="m357.49,267.5c-5.06,4.12-11.85,6.18-20.37,6.18s-15.71-2.17-21.02-6.5c-5.74-4.62-8.61-11.16-8.61-19.61v-2.66h20.86c0,3.03.67,5.58,2,7.64,1.52,2.38,3.7,3.58,6.56,3.58,5.31,0,7.97-2.62,7.97-7.86,0-2.38-.92-4.32-2.76-5.8-.72-.58-1.66-1.16-2.82-1.73l-1.57-.76-8.94-3.85c-2.96-1.23-5.51-2.47-7.64-3.74-2.53-1.48-4.66-3.09-6.39-4.82-4.01-4.08-6.01-9.06-6.01-14.95,0-7.26,3.03-13.2,9.1-17.83,5.56-4.23,12.1-6.34,19.61-6.34,4.23,0,8.27.76,12.14,2.28,4.19,1.66,7.55,4.01,10.08,7.04,3.4,4.19,5.2,9.59,5.42,16.2h-20.75c-.8-5.35-3.3-8.02-7.53-8.02-4.8,0-7.21,2.15-7.21,6.45,0,1.52.25,2.67.76,3.47.83,1.41,3.34,3.14,7.53,5.2l8.67,3.9c3.03,1.37,5.56,2.69,7.58,3.96,2.46,1.52,4.48,3.12,6.07,4.82,3.69,3.9,5.53,8.81,5.53,14.74,0,8.24-2.75,14.57-8.24,19.02Z"/>
      <path class="cls-1" d="m424.67,272.1l-4.01-11.87h-28.5l-4.33,11.87h-22.54l32.94-82.14h16.52l32.67,82.14h-22.76Zm-17.99-56.56h-.33l-8.45,28.06h17.23l-8.45-28.06Z"/>
    </g>
    <g>
      <path class="cls-1" d="m243.46,400.65c-5.06,4.12-11.85,6.18-20.37,6.18s-15.71-2.17-21.02-6.5c-5.74-4.62-8.61-11.16-8.61-19.61v-2.66h20.86c0,3.03.67,5.58,2,7.64,1.52,2.38,3.7,3.58,6.56,3.58,5.31,0,7.97-2.62,7.97-7.86,0-2.38-.92-4.32-2.76-5.8-.72-.58-1.66-1.16-2.82-1.73l-1.57-.76-8.94-3.85c-2.96-1.23-5.51-2.47-7.64-3.74-2.53-1.48-4.66-3.09-6.39-4.82-4.01-4.08-6.01-9.06-6.01-14.95,0-7.26,3.03-13.2,9.1-17.83,5.56-4.23,12.1-6.34,19.61-6.34,4.23,0,8.27.76,12.14,2.28,4.19,1.66,7.55,4.01,10.08,7.04,3.4,4.19,5.2,9.59,5.42,16.2h-20.75c-.8-5.35-3.3-8.02-7.53-8.02-4.8,0-7.21,2.15-7.21,6.45,0,1.52.25,2.67.76,3.47.83,1.41,3.34,3.14,7.53,5.2l8.67,3.9c3.03,1.37,5.56,2.69,7.58,3.96,2.46,1.52,4.48,3.12,6.07,4.82,3.69,3.9,5.53,8.81,5.53,14.74,0,8.24-2.75,14.57-8.24,19.02Z"/>
      <path class="cls-1" d="m321.32,362.56c-1.59,4.12-3.76,7.41-6.5,9.86-3.29,2.85-7.02,4.81-11.21,5.85-3.22.83-7.46,1.25-12.73,1.25h-9.1v25.74h-20.1v-82.14h26.87c2.6,0,4.79.05,6.55.16,2.46.14,4.7.4,6.72.76,4.98.87,8.99,2.56,12.03,5.09,6.43,5.45,9.64,12.7,9.64,21.72,0,4.01-.72,7.91-2.17,11.7Zm-22.27-19.4c-2.1-1.08-5.27-1.62-9.54-1.62h-7.75v19.56h8.51c4.05,0,7.1-.61,9.16-1.84,2.64-1.55,3.96-4.23,3.96-8.02s-1.44-6.56-4.33-8.07Z"/>
      <path class="cls-1" d="m379.07,405.25l-4.01-11.87h-28.5l-4.33,11.87h-22.54l32.94-82.14h16.52l32.67,82.14h-22.76Zm-17.99-56.56h-.33l-8.45,28.06h17.23l-8.45-28.06Z"/>
    </g>
  </g>
</svg>