<?xml version="1.0" encoding="UTF-8"?>
<svg id="Layer_1" data-name="Layer 1" xmlns="http://www.w3.org/2000/svg" viewBox="0 0 841.89 595.28">
  <defs>
    <style>
      .cls-1 {
        fill: #424c3c;
      }

      .cls-1, .cls-2, .cls-3 {
        stroke-width: 0px;
      }

      .cls-2 {
        fill: #d4bf29;
      }

      .cls-4 {
        fill: none;
        stroke: #fff;
        stroke-miterlimit: 10;
        stroke-width: 8.01px;
      }

      .cls-3 {
        fill: #fff;
      }
    </style>
  </defs>
  <rect class="cls-1" x="70.18" y="54.25" width="701.53" height="486.77"/>
  <g>
    <g>
      <g>
        <path class="cls-3" d="m235.38,344.19h21.95v81.02h-21.95v-81.02Z"/>
        <path class="cls-3" d="m323.84,405.85v19.36h-51.27v-81.02h50.32v19.29h-28.75v11.93h25.83v18.31h-25.83v12.13h29.7Z"/>
        <path class="cls-3" d="m406.42,344.19v81.02h-17.92l-31.24-43.97v43.97h-21v-81.02h18.96l30.2,42.51v-42.51h21Z"/>
        <path class="cls-3" d="m495.73,382.43c7.41,3.62,12.06,10.87,12.06,19.71,0,13.13-11,23.07-25.51,23.07h-36.25v-81.02h35.52c13.95,0,24.12,8.77,24.12,20.74,0,7.24-3.94,13.75-9.94,17.5h0Zm-9.37,17.05c0-4.3-3.07-7.33-7.76-7.33h-11.77v14.73h11.77c4.69,0,7.76-3.03,7.76-7.4Zm-1.25-30.86c0-4.2-2.79-7.05-7.33-7.05h-10.95v14.11h10.95c4.53,0,7.33-2.85,7.33-7.05h0Z"/>
        <path class="cls-3" d="m519.17,344.19h21.95v81.02h-21.95v-81.02Z"/>
        <path class="cls-3" d="m607.63,405.85v19.36h-51.27v-81.02h50.32v19.29h-28.75v11.93h25.83v18.31h-25.83v12.13h29.7Z"/>
        <path class="cls-3" d="m690.21,344.19v81.02h-17.92l-31.24-43.97v43.97h-21v-81.02h18.96l30.2,42.51v-42.51h21Z"/>
        <path class="cls-3" d="m183.51,344.18h-31.83v81.02h31.83c23.75,0,40.6-16.93,40.6-40.58s-16.79-40.45-40.6-40.45Zm-1.02,60.58h-9.05v-9.14h10.87v-21.86h-10.87v-9.14h9.05c11.65,0,19.41,7.98,19.41,20s-7.76,20.14-19.41,20.14Z"/>
        <path class="cls-3" d="m307.1,318.34l15.78,18.01h-17.77l-7.47-7.97-7.3,7.97h-17.77l16.08-18.01h18.45Z"/>
        <path class="cls-3" d="m590.88,318.34l15.78,18.01h-17.77l-7.47-7.97-7.3,7.97h-17.77l16.08-18.01h18.45Z"/>
        <rect class="cls-3" x="287.23" y="433.05" width="21.95" height="22.07"/>
      </g>
      <path class="cls-2" d="m368.56,270.21c1.53-4.84,3.03-9.69,4.59-14.51,4.76-14.66,9.51-29.32,14.39-43.94.7-2.1.21-3.08-1.49-4.31-15.91-11.47-31.74-23.04-47.6-34.58-.62-.45-1.21-.93-1.72-2.12,1.08,0,2.17,0,3.25,0,19.11,0,38.21-.04,57.32.07,2.55.01,3.74-.64,4.55-3.21,5.67-17.97,11.53-35.88,17.34-53.81.45-1.39.94-2.77,1.71-5.03.67,1.78,1.09,2.78,1.43,3.81,5.96,18.4,11.95,36.79,17.81,55.22.72,2.25,1.71,3.04,4.12,3.02,18.81-.13,37.62-.1,56.43-.12,1.42,0,2.85,0,4.27,0,.07.24.13.48.2.72-2.31,1.73-4.6,3.5-6.93,5.2-14.11,10.27-28.21,20.56-42.38,30.76-1.69,1.22-2.13,2.22-1.44,4.32,6.13,18.55,12.11,37.14,18.12,55.73.32,1,.58,2.02,1.08,3.78-5.6-4.06-10.59-7.66-15.55-11.27-11.73-8.54-23.5-17.04-35.15-25.69-1.82-1.35-2.87-.72-4.3.33-15.68,11.46-31.38,22.87-47.08,34.3-.78.57-1.6,1.1-2.39,1.65-.19-.1-.38-.2-.56-.3Z"/>
    </g>
    <g>
      <line class="cls-4" x1="536.05" y1="477.09" x2="691.16" y2="477.09"/>
      <g>
        <g>
          <path class="cls-3" d="m344.68,486.22c-.25,0-.59-.01-.96-.05-3.19-.19-4.3-1.03-5.33-2.72-1.15-1.85-2.08-3.97-3.06-5.93-.49-.99-.9-1.2-2.04-1.2l-.74-.02v5.16c0,2.84.31,3.05,2.57,3.35v1.16h-8.63v-1.16c2.31-.29,2.56-.51,2.56-3.35v-13.38c0-2.79-.3-3.07-2.56-3.32v-1.16h8.19c2.46,0,3.94.33,5.12,1.26,1.19.92,1.99,2.45,1.99,4.57,0,3.03-1.7,4.73-3.73,5.7.47,1.05,1.67,3.31,2.55,4.88,1.05,1.87,1.67,2.78,2.27,3.57.72.93,1.17,1.24,1.96,1.54l-.18,1.1Zm-11.12-11.24c1.36,0,2.33-.25,3.02-.93,1.04-.98,1.47-2.31,1.47-4.1,0-3.66-1.9-4.98-3.77-4.98-.82,0-1.24.14-1.43.34-.23.22-.3.61-.3,1.37v8.3h1.01Z"/>
          <path class="cls-3" d="m361.76,480.27c-.16.92-.97,4.73-1.25,5.72h-14.97v-1.14c2.71-.28,2.89-.51,2.89-3.37v-13.31c0-2.98-.34-3.17-2.42-3.39v-1.16h9.39c2.98,0,4.06-.04,4.45-.07.03.7.17,3.44.28,5.47l-1.06.17c-.27-1.17-.7-2.34-1.14-3-.51-.85-1-1.07-2.59-1.07h-2.23c-1.05,0-1.15.08-1.15,1.19v7.34h3.03c1.85,0,2.09-.52,2.5-2.93h1.07v7.48h-1.07c-.44-2.52-.68-2.91-2.53-2.91h-3v6.25c0,2.39.27,2.93,1.97,2.97h2.32c1.7,0,2.1-.27,2.74-1.18.68-.9,1.28-2.23,1.73-3.35l1.02.3Z"/>
          <path class="cls-3" d="m374.64,469.13c-.56-2.23-1.39-4.65-4.12-4.65-1.92,0-2.92,1.6-2.92,3.49,0,2.06,1.16,3.22,3.71,4.73,3.29,1.93,5.13,3.65,5.13,7.01,0,3.91-2.82,6.8-6.89,6.8-1.85,0-3.48-.59-4.8-1.09-.2-.85-.65-4-.85-5.7l1.07-.3c.59,2.22,2.12,5.71,5.07,5.71,1.91,0,3.08-1.45,3.08-3.67s-1.11-3.36-3.63-4.95c-3.08-1.94-4.99-3.64-4.99-7.09s2.34-6.29,6.58-6.29c1.9,0,3.47.51,4.11.63.12,1.26.29,2.91.53,5.1l-1.05.28Z"/>
          <path class="cls-3" d="m394.76,469.37c-.3-1.42-.85-2.66-1.16-3.2-.51-.79-.77-1.06-2.47-1.06h-2.26v16.39c0,2.82.28,3.09,2.96,3.32v1.16h-9.37v-1.16c2.59-.23,2.85-.48,2.85-3.32v-16.39h-2.11c-1.64,0-2.11.27-2.65,1.17-.39.67-.74,1.76-1.13,3.1h-1.04c.2-2.37.39-4.88.46-6.62h.81c.44.8.79.84,1.65.84h11.76c.81,0,1.16-.18,1.64-.84h.8c.02,1.51.14,4.34.28,6.5l-1.04.1Z"/>
          <path class="cls-3" d="m406.09,485.99v-1.16c1.88-.3,1.96-.66,1.55-2.09-.33-1.14-.84-2.75-1.34-4.41h-5.97c-.38,1.24-.8,2.56-1.14,3.75-.63,2.19-.02,2.47,2.34,2.75v1.16h-7.12v-1.16c1.86-.28,2.33-.56,3.34-3.53l6.13-17.9,1.25-.27c1.88,5.95,3.89,12.22,5.79,18.04,1.04,3.13,1.3,3.39,3.28,3.66v1.16h-8.11Zm-2.72-17.12c-.89,2.65-1.78,5.25-2.56,7.83h4.98l-2.42-7.83Z"/>
          <path class="cls-3" d="m434.18,464.77c-1.88.18-2.44.8-2.54,2.16-.07.95-.13,2.22-.13,4.89v4.23c0,3.15-.39,6.04-2.08,8.12-1.37,1.67-3.43,2.32-5.51,2.32-1.86,0-3.77-.46-5.13-1.72-1.73-1.54-2.57-3.74-2.57-7.65v-8.74c0-3.15-.26-3.37-2.54-3.62v-1.16h8.64v1.16c-2.26.22-2.52.47-2.52,3.62v8.97c0,4.27,1.77,6.89,5.06,6.89,3.75,0,5.21-3.03,5.21-8.39v-4.03c0-2.65-.09-3.92-.15-4.91-.11-1.57-.88-2-2.99-2.14v-1.16h7.23v1.16Z"/>
          <path class="cls-3" d="m453.87,486.22c-.25,0-.59-.01-.96-.05-3.19-.19-4.3-1.03-5.33-2.72-1.15-1.85-2.08-3.97-3.06-5.93-.49-.99-.9-1.2-2.04-1.2l-.74-.02v5.16c0,2.84.31,3.05,2.57,3.35v1.16h-8.63v-1.16c2.31-.29,2.56-.51,2.56-3.35v-13.38c0-2.79-.3-3.07-2.56-3.32v-1.16h8.19c2.46,0,3.94.33,5.12,1.26,1.19.92,1.99,2.45,1.99,4.57,0,3.03-1.7,4.73-3.73,5.7.47,1.05,1.67,3.31,2.55,4.88,1.05,1.87,1.67,2.78,2.27,3.57.72.93,1.17,1.24,1.96,1.54l-.18,1.1Zm-11.12-11.24c1.36,0,2.33-.25,3.02-.93,1.04-.98,1.47-2.31,1.47-4.1,0-3.66-1.9-4.98-3.77-4.98-.82,0-1.24.14-1.43.34-.23.22-.3.61-.3,1.37v8.3h1.01Z"/>
          <path class="cls-3" d="m466.24,485.99v-1.16c1.88-.3,1.96-.66,1.55-2.09-.33-1.14-.84-2.75-1.34-4.41h-5.97c-.38,1.24-.8,2.56-1.14,3.75-.63,2.19-.02,2.47,2.34,2.75v1.16h-7.12v-1.16c1.86-.28,2.33-.56,3.34-3.53l6.13-17.9,1.25-.27c1.88,5.95,3.89,12.22,5.79,18.04,1.04,3.13,1.3,3.39,3.28,3.66v1.16h-8.11Zm-2.72-17.12c-.89,2.65-1.78,5.25-2.56,7.83h4.98l-2.42-7.83Z"/>
          <path class="cls-3" d="m495.97,464.77c-1.83.26-2.41.68-2.5,2.24-.07,1.26-.15,2.53-.15,5.59v13.74h-1.47l-12.42-17.5v8.07c0,3.03.07,4.45.15,5.45.1,1.6.76,2.29,2.92,2.46v1.16h-7.27v-1.16c1.73-.17,2.46-.69,2.62-2.33.11-1.19.17-2.54.17-5.58v-8.38c0-1.08-.06-1.76-.61-2.61-.54-.86-1.22-1-2.53-1.15v-1.16h5.29l11.68,15.98v-6.98c0-3.07-.04-4.32-.13-5.52-.09-1.5-.63-2.14-3.05-2.32v-1.16h7.29v1.16Z"/>
          <path class="cls-3" d="m514.36,469.37c-.3-1.42-.85-2.66-1.16-3.2-.51-.79-.77-1.06-2.47-1.06h-2.26v16.39c0,2.82.28,3.09,2.96,3.32v1.16h-9.37v-1.16c2.59-.23,2.85-.48,2.85-3.32v-16.39h-2.11c-1.64,0-2.11.27-2.65,1.17-.39.67-.74,1.76-1.13,3.1h-1.04c.2-2.37.39-4.88.46-6.62h.81c.44.8.79.84,1.65.84h11.76c.81,0,1.16-.18,1.64-.84h.8c.02,1.51.14,4.34.28,6.5l-1.04.1Z"/>
        </g>
        <line class="cls-4" x1="150.73" y1="477.09" x2="305.84" y2="477.09"/>
      </g>
    </g>
  </g>
</svg>