<?xml version="1.0" encoding="UTF-8"?>
<svg id="Layer_1" data-name="Layer 1" xmlns="http://www.w3.org/2000/svg" viewBox="0 0 223.81 25.69">
  <defs>
    <style>
      .cls-1 {
        fill: #a27d53;
      }

      .cls-1, .cls-2 {
        stroke-width: 0px;
      }

      .cls-2 {
        fill: #00109f;
      }
    </style>
  </defs>
  <g>
    <path class="cls-1" d="m143.75,25.69c-1.77,0-3.29-.48-4.5-1.42-.42-.34-.62-.71-.62-1.13,0-.69.43-1.11,1.14-1.11.23,0,.5.09.82.27.57.36,1.06.62,1.44.76.53.2,1.12.3,1.74.3,2.44,0,2.44-1.02,2.44-1.4,0-.42-.19-.73-.61-.98-.22-.14-.54-.28-.93-.42-.3-.11-.77-.26-1.39-.44-1.65-.49-2.78-1.02-3.47-1.63-.69-.61-1.04-1.42-1.04-2.39,0-1.19.5-2.12,1.47-2.76.88-.59,2.07-.88,3.55-.88.96,0,1.92.18,2.86.54.42.16.78.34,1.05.54.44.31.66.66.66,1.05,0,.74-.43,1.18-1.14,1.18-.2,0-.39-.05-.55-.14-.45-.26-.91-.46-1.34-.6-.5-.15-1.02-.23-1.53-.23-2.5,0-2.5.95-2.5,1.27,0,.36.16.63.52.86.23.15.8.42,2.15.85.8.25,1.46.48,1.95.68.61.26,1.11.53,1.49.8.88.66,1.33,1.54,1.33,2.63s-.45,2.04-1.32,2.73c-.89.71-2.13,1.07-3.67,1.07Z"/>
    <path class="cls-1" d="m151.77,25.47c-.8,0-1.28-.47-1.28-1.26v-10.27c0-.79.48-1.26,1.28-1.26h6.65c.77,0,1.23.45,1.23,1.19s-.46,1.19-1.23,1.19h-5.39v2.67h2.87c.75,0,1.19.45,1.19,1.19s-.45,1.19-1.19,1.19h-2.87v2.96h5.66c.77,0,1.23.45,1.23,1.19s-.46,1.19-1.23,1.19h-6.92Z"/>
    <path class="cls-1" d="m171.36,25.61c-.53,0-.93-.26-1.14-.74l-1.09-2.39h-5.14l-1.1,2.39c-.21.47-.61.74-1.14.74-.76,0-1.21-.45-1.21-1.21,0-.16.04-.32.12-.52l4.76-10.61c.2-.47.61-.74,1.14-.74s.94.27,1.15.75l4.75,10.59c.08.2.12.37.12.53,0,.76-.45,1.21-1.21,1.21Zm-3.22-5.47l-1.59-3.68-1.58,3.68h3.17Z"/>
    <path class="cls-1" d="m175.42,25.61c-.79,0-1.26-.47-1.26-1.26v-10.41c0-.79.47-1.26,1.26-1.26h6.72c.76,0,1.21.45,1.21,1.21s-.45,1.21-1.21,1.21h-5.44v2.6h2.88c.77,0,1.22.46,1.22,1.22s-.46,1.21-1.22,1.21h-2.88v4.22c0,.79-.48,1.26-1.27,1.26Z"/>
    <path class="cls-1" d="m190.34,25.69c-1.89,0-3.48-.66-4.71-1.96-1.18-1.26-1.78-2.82-1.78-4.65s.6-3.4,1.78-4.65c1.23-1.3,2.81-1.96,4.71-1.96s3.48.66,4.71,1.96c1.18,1.26,1.78,2.82,1.78,4.65s-.6,3.4-1.78,4.65c-1.23,1.3-2.81,1.96-4.71,1.96Zm0-10.86c-1.23,0-2.19.41-2.92,1.26-.69.8-1.03,1.77-1.03,2.98s.34,2.18,1.03,2.98c.74.85,1.69,1.26,2.92,1.26s2.19-.41,2.92-1.26c.7-.8,1.04-1.77,1.04-2.98s-.34-2.18-1.04-2.98c-.74-.85-1.69-1.26-2.92-1.26Z"/>
    <path class="cls-1" d="m204.49,25.69c-1.89,0-3.48-.66-4.71-1.96-1.18-1.26-1.78-2.82-1.78-4.65s.6-3.4,1.78-4.65c1.23-1.3,2.81-1.96,4.71-1.96s3.48.66,4.71,1.96c1.18,1.26,1.78,2.82,1.78,4.65s-.6,3.4-1.78,4.65c-1.23,1.3-2.81,1.96-4.71,1.96Zm0-10.86c-1.23,0-2.19.41-2.92,1.26-.69.8-1.03,1.77-1.03,2.98s.34,2.18,1.03,2.98c.74.85,1.69,1.26,2.92,1.26s2.19-.41,2.92-1.26c.7-.8,1.04-1.77,1.04-2.98s-.34-2.18-1.04-2.98c-.74-.85-1.69-1.26-2.92-1.26Z"/>
    <path class="cls-1" d="m214.06,25.47c-.8,0-1.28-.48-1.28-1.28v-10.23c0-.8.48-1.28,1.28-1.28h3.33c1.93,0,3.5.61,4.68,1.83,1.15,1.18,1.73,2.72,1.73,4.57s-.58,3.39-1.73,4.57c-1.18,1.21-2.76,1.83-4.68,1.83h-3.33Zm3.28-2.39c1.25,0,2.2-.36,2.91-1.11.7-.73,1.03-1.68,1.03-2.9s-.34-2.16-1.03-2.9c-.71-.75-1.66-1.11-2.91-1.11h-2.02v8.02h2.02Z"/>
  </g>
  <g>
    <path class="cls-2" d="m4.51,25.38c-1.13,0-1.77-.65-1.77-1.77v-5.78h-1.14c-1,0-1.6-.59-1.6-1.57s.6-1.6,1.6-1.6h1.14v-5.75c0-1.13.65-1.77,1.77-1.77h4.79c2.76,0,5.01.88,6.69,2.6,1.63,1.68,2.46,3.88,2.46,6.52s-.83,4.84-2.45,6.52c-1.68,1.73-3.94,2.61-6.69,2.61h-4.79Zm4.71-3.3c1.81,0,3.2-.53,4.22-1.62,1.01-1.07,1.5-2.44,1.5-4.21s-.49-3.14-1.5-4.21c-1.03-1.09-2.41-1.62-4.22-1.62h-2.97v4.23h2.51c1,0,1.6.6,1.6,1.6s-.6,1.57-1.6,1.57h-2.51v4.25h2.97Z"/>
    <path class="cls-2" d="m29.39,25.69c-2.7,0-4.96-.94-6.71-2.8-1.68-1.79-2.54-4.02-2.54-6.64s.85-4.85,2.54-6.64c1.75-1.86,4.01-2.8,6.71-2.8s4.96.94,6.71,2.8c1.68,1.79,2.54,4.02,2.54,6.64s-.85,4.85-2.54,6.64c-1.75,1.86-4.01,2.8-6.71,2.8Zm0-15.59c-1.79,0-3.18.6-4.25,1.83-.99,1.14-1.49,2.6-1.49,4.32s.5,3.18,1.49,4.32c1.07,1.23,2.46,1.83,4.25,1.83s3.18-.6,4.25-1.83c1-1.14,1.5-2.6,1.5-4.32s-.51-3.18-1.5-4.32c-1.07-1.23-2.46-1.83-4.25-1.83Zm2.39-3.4c-.34,0-.64-.11-.9-.32,0,0,0,0-.01-.01l-1.47-1.34-1.46,1.34s-.02.02-.03.02c-.26.21-.56.31-.89.31-.86,0-1.37-.49-1.37-1.31,0-.38.16-.73.45-1.01,0,0,2.33-2.13,2.33-2.13.29-.26.61-.4.96-.4s.67.13.96.4l2.33,2.12s.01.01.02.02c.28.28.43.63.43,1.01,0,.82-.51,1.31-1.36,1.31Z"/>
    <path class="cls-2" d="m55.06,25.58c-.53,0-.99-.21-1.32-.62,0,0-9-11.47-9-11.47v10.41c0,1.06-.62,1.67-1.7,1.67s-1.67-.61-1.67-1.67v-15.28c0-1.08.63-1.7,1.72-1.7.55,0,1.01.24,1.34.7l8.95,11.39v-10.39c0-1.08.62-1.7,1.71-1.7s1.67.62,1.67,1.7v15.28c0,1.06-.62,1.67-1.71,1.67Z"/>
    <path class="cls-2" d="m68.63,25.69c-2.72,0-4.99-.91-6.72-2.71-1.7-1.77-2.56-4.03-2.56-6.73s.88-5.01,2.62-6.77c1.73-1.77,3.95-2.67,6.6-2.67,1.23,0,2.37.18,3.39.55,1.11.4,2.06,1.01,2.82,1.81.36.35.54.75.54,1.18,0,1.05-.6,1.65-1.65,1.65-.38,0-.76-.13-1.13-.4,0,0,0,0-.01,0-1.27-.96-2.61-1.45-3.96-1.45-1.7,0-3.05.58-4.13,1.76-1.05,1.16-1.56,2.58-1.56,4.34s.49,3.28,1.47,4.43c1.05,1.24,2.45,1.84,4.27,1.84s3.22-.43,4.27-1.28v-2.43h-3.59c-1.06,0-1.66-.6-1.66-1.65s.61-1.62,1.66-1.62h5.29c1.12,0,1.76.65,1.76,1.77v4.29c0,.5-.15.89-.43,1.18-1.75,1.93-4.21,2.91-7.3,2.91Z"/>
    <path class="cls-2" d="m100.53,25.58c-1.11,0-1.75-.65-1.75-1.77v-6.1h-8.26v6.1c0,1.13-.63,1.77-1.74,1.77s-1.77-.65-1.77-1.77v-15.1c0-1.13.64-1.77,1.75-1.77s1.76.65,1.76,1.77v5.64h8.26v-5.64c0-1.13.64-1.77,1.75-1.77s1.75.65,1.75,1.77v15.1c0,1.13-.64,1.77-1.75,1.77Z"/>
    <path class="cls-2" d="m120.19,25.58c-.73,0-1.29-.36-1.58-1.03l-1.59-3.47h-7.47l-1.59,3.48c-.29.65-.85,1.02-1.58,1.02-1.06,0-1.67-.61-1.67-1.67,0-.21.05-.45.17-.71,0,0,6.83-15.23,6.83-15.23.28-.66.84-1.03,1.58-1.03s1.3.36,1.58,1.03c0,0,6.83,15.23,6.83,15.23.11.27.17.5.17.71,0,1.06-.61,1.67-1.67,1.67Zm-4.53-7.72l-2.38-5.52-2.38,5.52h4.76Zm-2.21-11.32c-1.26,0-1.35-.87-1.35-1.13v-.38c0-.39.12-.79.36-1.2,0,0,.01-.02.02-.03.05-.07.13-.18.43-.49.02-.02.04-.04.35-.32.29-.25.4-.41.44-.49-.02,0-.05,0-.08,0-.01,0-.03,0-.04,0-.27.01-.49.07-.65.17-.1.07-.23.13-.38.19-.14.06-.33.08-.63.08-.02,0-.04,0-.05,0-.7-.08-1.1-.58-1.03-1.33.01-.33.2-.63.57-.9.67-.47,1.45-.7,2.32-.7.8,0,1.44.19,1.91.56.6.48.91,1.06.91,1.72,0,.7-.4,1.41-1.17,2.1-.34.29-.47.45-.52.53,0,.02,0,.05,0,.1v.39c0,.27-.1,1.13-1.38,1.13Z"/>
    <path class="cls-2" d="m126.18,25.58c-1.13,0-1.77-.65-1.77-1.77v-15.1c0-1.13.65-1.77,1.77-1.77s1.74.65,1.74,1.77v15.1c0,1.13-.63,1.77-1.74,1.77Z"/>
  </g>
</svg>