<?xml version="1.0" encoding="UTF-8"?>
<svg id="Layer_1" data-name="Layer 1" xmlns="http://www.w3.org/2000/svg" xmlns:xlink="http://www.w3.org/1999/xlink" viewBox="0 0 1000 1000">
  <defs>
    <style>
      .cls-1 {
        fill: #e8f0f3;
      }

      .cls-1, .cls-2, .cls-3, .cls-4, .cls-5, .cls-6, .cls-7, .cls-8, .cls-9, .cls-10, .cls-11, .cls-12, .cls-13, .cls-14, .cls-15, .cls-16, .cls-17, .cls-18, .cls-19, .cls-20, .cls-21, .cls-22, .cls-23, .cls-24, .cls-25, .cls-26, .cls-27, .cls-28, .cls-29, .cls-30, .cls-31, .cls-32, .cls-33, .cls-34, .cls-35, .cls-36, .cls-37, .cls-38, .cls-39, .cls-40, .cls-41, .cls-42, .cls-43, .cls-44, .cls-45, .cls-46, .cls-47, .cls-48, .cls-49, .cls-50, .cls-51, .cls-52, .cls-53, .cls-54, .cls-55, .cls-56, .cls-57, .cls-58, .cls-59, .cls-60, .cls-61, .cls-62, .cls-63, .cls-64, .cls-65, .cls-66, .cls-67 {
        stroke-width: 0px;
      }

      .cls-2 {
        fill: #eff3f6;
      }

      .cls-3 {
        fill: #ede7db;
      }

      .cls-4 {
        fill: url(#linear-gradient);
      }

      .cls-5 {
        fill: #f4f8f8;
      }

      .cls-6 {
        fill: #11163f;
      }

      .cls-7 {
        fill: #e2ebef;
      }

      .cls-8 {
        fill: #182750;
      }

      .cls-9 {
        fill: #1c3462;
      }

      .cls-10 {
        fill: #f1f5f6;
      }

      .cls-11 {
        fill: #16284f;
      }

      .cls-12 {
        fill: #10153f;
      }

      .cls-13 {
        fill: #2b507e;
      }

      .cls-14 {
        fill: #131641;
      }

      .cls-15 {
        fill: #fcfdfd;
      }

      .cls-16 {
        fill: #f5f8fa;
      }

      .cls-17 {
        fill: #eef3f6;
      }

      .cls-18 {
        fill: #151947;
      }

      .cls-19 {
        fill: #f7fafc;
      }

      .cls-20 {
        fill: #d2dfe6;
      }

      .cls-21 {
        fill: #131a44;
      }

      .cls-22 {
        fill: #15244b;
      }

      .cls-23 {
        fill: #111a42;
      }

      .cls-24 {
        fill: #96b9cb;
      }

      .cls-25 {
        fill: #122146;
      }

      .cls-26 {
        fill: #14254b;
      }

      .cls-27 {
        fill: #f0f5f6;
      }

      .cls-28 {
        fill: #b7d1dd;
      }

      .cls-29 {
        fill: #e3edf0;
      }

      .cls-30 {
        fill: #19204f;
      }

      .cls-31 {
        fill: #f2f6f8;
      }

      .cls-68 {
        fill: #00aeef;
        font-family: Montserrat-Thin, Montserrat;
        font-size: 71.57px;
        font-variation-settings: 'wght' 100;
        font-weight: 200;
      }

      .cls-32 {
        fill: #fff;
      }

      .cls-33 {
        fill: #121842;
      }

      .cls-34 {
        fill: #121d44;
      }

      .cls-35 {
        fill: #b7cedb;
      }

      .cls-36 {
        fill: #f6fafb;
      }

      .cls-37 {
        fill: #101941;
      }

      .cls-38 {
        fill: #eff4f5;
      }

      .cls-39 {
        fill: #131e46;
      }

      .cls-40 {
        fill: #131b46;
      }

      .cls-41 {
        fill: #f7f9fb;
      }

      .cls-42 {
        fill: #f7941d;
      }

      .cls-43 {
        fill: #f5f8f8;
      }

      .cls-44 {
        fill: #111640;
      }

      .cls-45 {
        fill: #152249;
      }

      .cls-46 {
        fill: #f3f7fa;
      }

      .cls-47 {
        fill: #f5f9fa;
      }

      .cls-48 {
        fill: #141e47;
      }

      .cls-49 {
        fill: #527698;
      }

      .cls-50 {
        fill: #142249;
      }

      .cls-51 {
        fill: #1f3466;
      }

      .cls-52 {
        fill: #dae4ea;
      }

      .cls-53 {
        fill: #f0f4f6;
      }

      .cls-54 {
        fill: #131f47;
      }

      .cls-55 {
        fill: #141844;
      }

      .cls-56 {
        fill: #f3f7f8;
      }

      .cls-69 {
        letter-spacing: 0em;
      }

      .cls-57 {
        fill: #131842;
      }

      .cls-58 {
        fill: #9abccc;
      }

      .cls-59 {
        fill: #dae6ed;
      }

      .cls-60 {
        fill: #131f46;
      }

      .cls-61 {
        fill: #16224b;
      }

      .cls-62 {
        fill: #f9fcfd;
      }

      .cls-63 {
        fill: #5785a5;
      }

      .cls-64 {
        fill: #121640;
      }

      .cls-65 {
        fill: #eef5f6;
      }

      .cls-66 {
        fill: #17214b;
      }

      .cls-67 {
        fill: #15234a;
      }
    </style>
    <linearGradient id="linear-gradient" x1="506.81" y1="261.89" x2="506.81" y2="737.23" gradientUnits="userSpaceOnUse">
      <stop offset="0" stop-color="#66c9ee"/>
      <stop offset=".33" stop-color="#63c6ec"/>
      <stop offset=".52" stop-color="#5cbee7"/>
      <stop offset=".68" stop-color="#4fafdf"/>
      <stop offset=".82" stop-color="#3e9bd3"/>
      <stop offset=".95" stop-color="#2781c3"/>
      <stop offset="1" stop-color="#1c75bc"/>
    </linearGradient>
  </defs>
  <g>
    <path class="cls-42" d="m260.1,435.77c6.21-4.6,6.5-12.5.34-18.63-8-7.95-17.94-10.17-28.57-7.61-24.63,5.95-40.5,22.33-50.91,44.58-9.12,19.5-10.3,40.26-7.72,61.16,6.37,51.68,33.37,91.92,71.01,126.14,39.09,35.54,85.61,57.34,135.17,73.61,29.47,9.68,59.72,15.33,90.59,18.09,21.4,1.91,42.75,2.56,64.22,1.35,33.64-1.89,66.28-8.65,98.4-18.56,43.8-13.52,84.1-33.68,120.48-61.69,35.63-27.44,64.11-60.25,78.93-103.49,10.71-31.23,13.2-62.77,1.81-94.33-7.81-21.63-22.03-37.44-44.67-44.34-10.46-3.19-20.85-3.09-30.31,3.1-8.94,5.85-9.44,16.56-1.46,23.54.97,2.11,1.95,4.23,3.29,7.14-7.76-1.48-12.4-5.7-14.76-12.09-2.82-7.63-.46-14.62,4.91-20.23,8.59-8.97,19.61-11.77,31.59-10.14,34.17,4.64,52.1,27.09,61.12,57.96,10.71,36.63,5.39,72.19-10.14,106.43-22.73,50.11-60.61,85.85-107.21,113.78-47.86,28.69-99.2,47.21-154.13,56.09-31.28,5.06-62.76,6.12-94.35,3.66-68.41-5.33-132.47-24.52-191.46-59.98-37.76-22.7-70.53-50.45-93.34-88.98-15.79-26.66-26.89-54.4-28.1-85.9-.95-24.6,2.23-47.96,15.96-68.73,14.7-22.22,34.67-36.29,62.49-36.19,8.73.03,16.22,3.69,22.45,9.57,8.03,7.57,8.44,19.91,1.22,26.56-2.39,2.2-5.04,3.78-8.57,3.09-.11-1.96.77-3.46,1.69-4.94Z"/>
    <path class="cls-42" d="m394.21,599.49c4.23-3.32,9.16-5.34,14.17-6.89,5.75-1.78,10.97.29,15.52,3.88,4.51,3.55,8.75,7.46,13.34,10.91,11.46,8.63,23.89,9.75,37.02,4.29,3.29-1.36,6.56-2.76,9.76-4.33,15.84-7.74,31.64-7.64,47.44.09,6.76,3.31,13.51,6.71,21.17,7.38,12.02,1.06,22.07-3.48,30.95-11.17.15-.13.28-.28.42-.42,15.71-14.34,19.05-14.75,37.68-4.58-11.91,15.08-25.11,28.4-44.54,33.83,4.7-5.36,9.56-10.61,12.81-16.95,1.19-2.31,4.87-5.52,1.83-7.38-2.81-1.72-3.99,2.9-5.36,5.03-11.06,17.24-27.07,27.94-45.82,35.09-7.5,2.08-14.97,4.3-22.82,4.69.17-2.18,2.03-2.78,3.52-3.66,10.01-5.88,14.66-15.05,16.02-26.24-2.68,3.79-3.86,8.39-6.33,12.29-5.75,9.06-12.54,16.33-24.65,15.68-9.33-.5-15.31-5.78-20.2-12.92-3.24-4.73-5.13-10.22-8.63-14.87.34,7.02,3.22,12.92,7.81,18.22,3.07,3.54,7.49,5.86,9.39,10.43-5.97.05-11.3-2.94-17.12-3.59-4.52.6-8.36-1.59-12.15-3.37-14.06-6.62-26.2-15.61-34.61-29.05-1.1-1.76-2.01-3.79-4.65-5.33,2.67,6.09,6.2,10.74,10.05,15.18.91,1.05,2,1.94,2.89,3,1.23,1.47,3.6,2.97,2.43,4.94-1.29,2.16-3.6.47-5.34-.17-7.88-2.91-14.94-7.29-21.67-12.27-7.9-5.84-13.69-13.69-20.11-20.95-.09-.27-.17-.53-.26-.8Z"/>
    <path class="cls-42" d="m339.41,523.1c-16.14-3.48-28.79-12.03-36.88-26.48-2.13-3.8-3.52-4.45-7.55-2.79-15.97,6.58-31.36,4.65-44.83-5.97-13.21-10.42-20.3-24.27-18.21-41.61,1.3-10.75,8.93-17.64,18.28-17.2-16.79,12.44-17.77,30.36-2.56,47.06,13.94,15.3,29.77,18.77,49.32,10.29,4.18-1.81,6.01-1.26,8.27,2.69,8.85,15.48,22.94,24.12,39.6,29.12,1.7.51,3.43.91,5.15,1.39.17.05.29.23.84.68-4,.99-7.71,1.92-11.42,2.84Z"/>
    <path class="cls-42" d="m774.4,432.03c9.31,6.67,10.99,16.36,8.93,26.44-4.7,22.97-20.43,35.29-42.19,40.84-8.78,2.24-17.76,2.34-26.26-1.28-3.4-1.45-5.21-.78-7.5,1.92-9.16,10.8-20.03,19.08-34.33,21.89-2.17-2.26-6.05.36-8.11-3.04,17.67-3.45,30.74-13.56,41.09-27.7,1.11-1.52,1.89-3.91,5.07-2.26,17.54,9.16,33.76,5.06,48.79-5.9,9.54-6.96,15.84-16.3,18.47-28.12,1.38-6.19.23-11.72-1.96-17.31-.71-1.81-2.2-3.33-1.99-5.48Z"/>
    <path class="cls-42" d="m512.06,166.13c0,18.25,0,36.51,0,54.76,0,1.59.02,3.18-.09,4.76-.14,1.94-1.07,3.64-3.02,3.92-2.24.32-3.01-1.66-3.38-3.4-.37-1.72-.45-3.53-.45-5.3-.04-37.3-.04-74.61-.05-111.91,0-.79.01-1.59.02-2.38.02-2.34.61-4.83,3.14-5.02,3.18-.24,3.65,2.69,3.68,5.05.16,12.3.17,24.6.21,36.9.02,7.54,0,15.08,0,22.62h-.05Z"/>
    <path class="cls-42" d="m349.58,581.7c2.34.32,4.67.71,7.02.95,1.37.14,2.63-.02,3.39,1.66,6.46,14.33,18.43,16.94,32.45,15.13.58-.08,1.19.03,1.78.06,0,0-.09-.08-.09-.08,9.04,13.06,19.43,24.7,33.57,32.5,1.35.74,2.83,1.51,2.93,3.39-3.47.32-6.65-.85-9.77-2.05-24.77-9.54-46.92-22.89-63.81-43.93-2.22-2.76-4.96-5.09-7.47-7.62Z"/>
    <path class="cls-42" d="m656.4,162.86c-.72,1.06-1.52,2.42-2.49,3.65-21.39,27.28-42.79,54.56-64.22,81.81-1.55,1.97-3.45,4.87-6.22,2.61-2.89-2.37-.04-4.48,1.5-6.44,21.4-27.28,42.78-54.56,64.19-81.83,1.3-1.66,2.48-3.89,5.21-2.92,1.14.41,1.83,1.47,2.02,3.13Z"/>
    <path class="cls-42" d="m365.28,159.48c1.82.15,2.66,1.65,3.59,2.85,21.46,27.71,42.88,55.46,64.33,83.18,1.43,1.85,2.91,4.11.65,5.62-2.83,1.89-4.68-.85-6.24-2.86-16.87-21.76-33.71-43.53-50.54-65.32-4.6-5.96-9.19-11.92-13.68-17.96-.88-1.19-2.06-2.6-.66-4.27.67-.8,1.43-1.35,2.55-1.25Z"/>
    <path class="cls-42" d="m578.81,637.49c18.76-7.07,33.79-18.7,43.74-36.31,1.6-2.83,3.69-1.83,5.58-1.74,11.01.53,20.16-2.97,27-11.86,2.38.47,3.46.97,1.44,3.65-8.23,10.92-18.45,19.51-30.02,26.58-11.83,7.23-24.45,12.82-37.34,17.88-3.37,1.32-6.78,2.03-10.39,1.8Z"/>
    <path class="cls-42" d="m397.93,273.17c-1.23,3.28-3.4,2.4-5.8.73-8.3-5.74-16.62-11.46-24.94-17.18-18.93-13.01-37.87-26.01-56.8-39.02-.65-.45-1.3-.91-1.92-1.41-1.82-1.48-4.42-2.89-2.21-5.67,1.96-2.47,3.86-.52,5.64.7,19.08,13.13,38.16,26.27,57.24,39.4,8.48,5.83,16.99,11.63,25.45,17.5,1.58,1.09,3.54,2.01,3.34,4.95Z"/>
    <path class="cls-42" d="m712.62,212.74c-.1,1.86-1.57,2.64-2.86,3.52-27.96,19.09-55.92,38.17-83.88,57.24-1.95,1.33-4.13,3.35-6.02.33-1.55-2.47.58-3.93,2.44-5.19,28.11-19.2,56.22-38.42,84.33-57.61,1.28-.88,2.57-2.06,4.31-1.18,1.14.57,1.79,1.54,1.69,2.89Z"/>
    <path class="cls-42" d="m470.45,230.94c.15,2.12-.73,3.34-2.51,3.7-2.28.45-3.12-1.18-3.75-2.96-2.9-8.2-5.83-16.39-8.69-24.6-7.84-22.59-15.62-45.2-23.51-67.77-.86-2.46-1.72-4.84,1.43-5.86,2.91-.94,3.56,1.62,4.29,3.71,10.59,30.41,21.2,60.81,31.8,91.22.33.93.68,1.85.94,2.56Z"/>
    <path class="cls-42" d="m585.94,139.23c-1.36,4.04-3.05,9.31-4.9,14.52-9.01,25.34-18.05,50.67-27.12,75.98-.77,2.14-1.12,5.36-4.23,4.84-4.42-.74-2.68-3.99-1.78-6.52,7.74-21.8,15.55-43.57,23.29-65.36,3.11-8.76,6.08-17.57,9.22-26.31.58-1.62,1.41-3.63,3.79-2.81,2.02.7,2.38,2.47,1.73,5.65Z"/>
    <path class="cls-42" d="m663.04,306.25c-1.8.25-3.27-.29-3.66-2.16-.54-2.57,1.27-3.4,3.33-3.99,10.62-3.08,21.19-6.3,31.84-9.26,17.87-4.96,35.79-9.74,53.68-14.65,2.53-.69,5.37-2.02,6.43,1.53.95,3.21-2.07,3.89-4.27,4.5-28.52,7.96-57.06,15.85-85.59,23.74-.57.16-1.17.19-1.75.28Z"/>
    <path class="cls-42" d="m353.19,306.14c-8.13-2.36-16.08-4.72-24.05-6.98-19.74-5.58-39.49-11.12-59.24-16.68-1.33-.37-2.63-.84-3.96-1.21-1.93-.53-3.39-1.57-2.75-3.76.69-2.34,2.59-2.8,4.77-2.19,6.83,1.91,13.66,3.84,20.49,5.77,21.06,5.97,42.13,11.94,63.18,17.93,1.14.32,2.27.72,3.33,1.23,1.79.85,2.87,2.26,2.09,4.29-.71,1.84-2.41,1.77-3.86,1.59Z"/>
    <path class="cls-4" d="m339.41,523.1c10.37,2.66,20.61,1.25,31.13-.19-6.89,2.53-13.84,4.91-20.66,7.63-11.55,4.6-20.83,11.31-22.59,24.92-1.87,14.42,3.97,25.39,15.14,33.84,3.32,2.51,6.26,5.13,8.81,8.46,18.02,23.5,42.71,37.56,70.08,46.64,26.31,8.73,52.99,16.62,80.49,21.04,11.64,1.87,22.92-.86,33.88-4.1,27.14-8.03,55.16-13.45,80.76-26.2,19.58-9.75,36.92-22.28,49.52-40.59.87-1.26,2.06-2.52,3.4-3.19,11.75-5.91,17.62-16.12,20.19-28.36,2.18-10.42-7.16-28.53-22.11-33.81-6.27-2.21-12.57-4.34-18.81-6.91,8.2,1.07,16.35,1.8,24.42-.43.71-1.01,1.68-1.75,2.83-2.09,12.42-3.7,22.16-11.32,30.51-20.93,2.39-2.75,4.96-3.44,8.46-2.38,21.67,6.55,39.77.17,55.23-15.52,3.79-3.85,6.93-8.15,9.04-13.17,5.41-12.83,4.2-24.78-4.71-35.71-8.56-3.98-14.74-1.56-16.98,6.66-3.24.83-4.12-1.81-5.18-3.78-4.5-8.4-.82-17.97,8.69-22.8,10.06-5.11,20.49-4.59,30.71-1.06,21.05,7.29,34.96,22.16,42.94,42.62,11.62,29.77,10.54,60.05,1.42,89.99-7.87,25.83-20.11,49.66-37.78,70.41-16.59,19.48-35.99,35.78-56.72,50.63-52,37.26-110.76,57.48-173.17,67.92-24.06,4.03-48.54,5.3-72.99,4.26-65.63-2.82-127.88-18.85-186.32-48.94-36.41-18.75-68.88-42.99-94.48-75.09-23.22-29.11-40.13-61.64-43.36-99.65-2.32-27.36,1.05-53.61,18.04-76.5,10.66-14.35,24.4-24.5,41.89-28.68,11.75-2.81,22.55-.35,30.98,9.02,4.57,5.08,5.56,10.93,2.81,15.9-.98,1.77-1.81,4.27-4.81,2.83-.24-6.73-4.74-7.2-9.88-6.73-14.49,4.29-20.22,16.05-15.83,32.48,6.88,25.76,32.65,39.85,57.97,31.7,7.84-2.52,7.8-2.5,12.31,4.31,7.13,10.77,16.95,18.13,28.97,22.68,2.01.76,4.24,1.14,5.78,2.88Zm20.05,64.52c8.02,11.87,20.71,16.49,34.39,12.88,1.69-.6,3.36-1.31,4.86-2.25,10.61-6.7,20.26-5.4,29.09,3.33.84.83,1.8,1.56,2.67,2.38,14.13,13.24,29.83,16.15,47.63,7.8,8.58-4.02,17.21-8.09,27.08-8.46,11.56-.43,21.79,3.42,31.84,8.46,15.35,7.7,29.91,5.94,43.72-3.97,4.05-2.9,7.42-6.57,11.44-9.52,8.43-6.17,15.46-6.32,24.21-.59,2.14,1.4,2.01,2.33.57,4.13-9.84,12.24-21.16,22.54-36.17,28.18,5.28-4.68,8.84-10.54,11.91-16.69.92-1.84,2.5-4.28-.13-5.79-2.61-1.49-4.4.61-5.95,2.51-.5.61-.86,1.33-1.31,1.99-7.26,10.63-16.27,19.35-27.28,26.17-5.72,3.54-12.28,5.59-17.4,10.12-.14.14-.3.26-.41.42-.08.11-.14.36-.1.39,1.72,1.26,3.29.09,4.97-.24,11.74-2.33,21.67-10.03,33.73-11.37,2-.83,4.17-.97,6.24-1.7,15.67-5.47,27.25-15.86,36.04-29.59,2.39-3.74,5.21-5.66,9.73-5.29,4.21.35,8.42-.37,12.17-2.24,5.03-2.51,10.9-4.34,12.14-11.09.97-2.44,1.16-5,5.03-5.43,11.32-1.23,19.68-10.91,20.2-22.52.34-7.55-2.86-12.99-9.7-16.18-5.46-2.54-11.31-3.46-17.28-3.61-13.49-.34-27.01.5-40.47-1.22-8.63-1.1-17.16-2.5-25.43-5.3-2.6-.88-3.12-2-.94-3.97,2.94-2.66,5.66-5.6,8.74-8.07,16.57-13.3,36.23-20.75,55.46-28.97,12.58-5.38,25.15-10.66,34.59-21.18,10-11.15,11.49-27.63,2.32-38.54-3.66-4.35-3.35-7.16-1.13-11.78,8.23-17.08,4.71-35.62-9.33-45.93-6.06-4.45-10.59-8.25-7.85-16.36.28-.84-.15-1.95-.33-2.92-3.6-20.07-17.46-34.44-37.48-38.8-3.24-.7-5.83-1.84-7.15-5.3-9.41-24.54-39.14-36.7-65.25-30.13-3.61.91-5.49.07-7.77-2.11-20.84-19.84-53.72-23.52-77.53-6.69-9.11,6.44-16.85,8.38-27.7,7.24-22.21-2.33-44.1,10.55-51.35,28.88-2.15,5.44-5.25,7.24-10.51,8.28-17.96,3.56-41.16,23.64-36,48.33.64,3.05-1.24,3.83-3.21,4.76-5.92,2.78-10.42,7.17-13.97,12.55-8.76,13.3-7.43,26.86-.8,40.48,1.12,2.29,2.54,4.24.03,6.81-11.12,11.36-8.19,28.96,1.27,39.92,8.84,10.25,20.7,15.73,32.58,21.11,15.79,7.16,31.93,13.61,46.64,22.94,7.63,4.84,14.77,10.28,20.53,17.95-14.62,5.41-29.31,7.1-44.1,7.87-10.29.54-20.61-.05-30.92,1.2-14.98,1.81-22.83,13-18,26.77,2.07,5.89,5.57,10.9,11.25,14.03,3.05,2.35,7.39,2.23,9.88,5.92Zm104.54,58.87c4.1,1.78,8.5,2.96,13.05,3.24,1.51.09,1.83-.34.58-1.4-6.74-1.74-12.69-5.26-18.79-8.44-12.87-6.71-22.13-17.14-29.89-29.12-.94-1.45-2.23-3.69-4.07-2.58-2.12,1.28-.04,3.3.68,4.66,4.07,7.72,9.51,14.44,15.59,20.82-13.23-4.59-24.91-11.5-34.67-21.65-4.07-4.24-7.2-9.42-12.35-12.6.49,3.75,3.13,6.31,5.16,9.18,8.2,11.52,19.11,19.91,31.34,26.72,10.94,4.25,22.56,6.48,33.37,11.18Zm53.8,6.49c12.4-5.28,18.53-15.38,21.42-27.94.42-1.84,1.55-4.61-.53-5.38-2.99-1.1-3.11,2.36-3.81,4.09-2.67,6.64-5.52,13.12-10.53,18.42-8.1,8.58-19.17,10.23-28.47,4.15-4.41-2.89-7.73-6.82-10.16-11.44-2.02-3.84-3.83-7.8-5.55-11.79-.72-1.67-1.06-3.81-3.42-3.17-2.46.67-1.24,2.95-1.27,4.57-.02.95.46,1.91.69,2.87,2.61,10.89,9.92,18.22,18.56,24.54,7.57,2.98,15.3,2.4,23.06,1.07Z"/>
    <path class="cls-42" d="m289.83,355.15c-9.52,0-19.04.01-28.56-.02-2.28,0-5.28.68-5.46-2.85-.18-3.54,2.71-3.25,5.09-3.25,19.44-.01,38.87,0,58.31-.02,2.45,0,5.4-.09,5.5,3.03.13,3.91-3.31,3.08-5.73,3.1-9.72.05-19.44.02-29.16.02Z"/>
    <path class="cls-42" d="m727.01,355.16c-9.51,0-19.02,0-28.53,0-2.19,0-4.84.27-4.98-2.76-.15-3.37,2.58-3.39,5.05-3.39,19.41,0,38.83,0,58.24-.02,2.28,0,4.66.04,4.64,3.13-.02,3.13-2.48,3.04-4.71,3.04-9.91,0-19.81,0-29.72,0Z"/>
    <path class="cls-42" d="m326.32,678.32c4.98.34,9.23.6,13.48.93,15.17,1.16,29.66-2.77,43.63-7.54,34.41-11.73,65.06-3.57,94.11,15.59,4.96,3.27,9.92,6.54,14.86,9.84.25.16.3.62,1.02,2.19-8.74-4.96-16.91-8.6-25.15-12.1-28.6-12.16-57.74-15.49-88.14-7.37-16.27,4.35-32.94,4.21-49.48.66-.76-.16-1.51-.47-2.22-.8-.52-.24-.96-.63-2.11-1.39Z"/>
    <path class="cls-42" d="m563.98,679.36c16.27-10.09,33.04-18.75,53-17.94,11.02.44,21.3,3.98,31.56,7.63,14.48,5.14,29,10.13,44.74,9.94-9.03,2.42-18.21,2.33-27.31.99-12.53-1.85-24.36-6.61-36.67-9.43-18.56-4.25-36.51-2.94-53.53,6.28-1.88,1.02-3.93,1.75-5.9,2.61-1.97.53-3.95,1.31-5.9-.07Z"/>
    <path class="cls-42" d="m236.37,620.38c18.04.31,33.82-7.52,50.28-12.98,26.54-8.81,50.8-5.82,70.76,15.7.92.99,1.68,2.14,2.84,3.64-1.01,0-1.68.21-1.98-.03-24.56-20.19-51.51-21.95-80.28-10.66-12.73,4.99-25.9,7.14-39.57,4.91-.7-.11-1.37-.38-2.06-.58Z"/>
    <path class="cls-42" d="m266.46,518.6c-9.07-4.29-17.82-2.28-26.3,1.65-6.45,2.99-12.57,6.7-19.03,9.69-15.01,6.96-29.3,4.86-42.99-4.04,19.83,7.77,37.19,1.2,53.96-8.94,11.31-6.84,23.25-9.88,36.3-5.85,4.93,1.52,8.23,4.54,8.78,9.95-3.81.2-6.98-2.37-10.72-2.46Z"/>
    <path class="cls-15" d="m266.46,518.6c4.34-2.52,7.22,1.31,10.72,2.46.21,2.05-1.26,2.69-2.59,2.02-4.72-2.36-5.1,1.28-6.03,4.12-4.06,12.36,3.11,27.24,16.56,33.87,10.48,5.17,21.63,7.38,34.12,6.12-10.76,4.67-30.31,1.89-43.37-5.71-11.9-6.92-17.84-21.73-14.1-34.76.91-3.16,2.89-5.55,4.68-8.13Z"/>
    <path class="cls-19" d="m696.35,538.31c14.12-3.96,25.91-13.06,39.5-18.3,13.45-5.19,26.44-5.41,39.35,1.67,12.15,6.67,24.92,11.06,39.12,8.68,4.22-.71,8.41-1.55,13.31-2.47-10.58,5.75-26.71,6.27-41.06,1.82-8.07-2.5-15.72-6.3-24.11-7.77-13.83-2.43-26.54,1.29-39.01,6.86-8.72,3.9-17.24,8.49-27.09,9.51Z"/>
    <path class="cls-62" d="m788.59,585.28c-7.89-.13-15.18-2.82-21.97-6.33-21.74-11.23-43.66-12.08-66.06-2.37-.65.28-1.46.2-2.24-.1,18.96-11.26,38.47-16.32,59.74-6.01,9.15,4.44,17.55,10.49,27.8,12.72,2.96.64,5.88.49,8.78,1.02-1.54,3.02-3.94,1.19-6.04,1.07Z"/>
    <path class="cls-41" d="m521.67,719.2c-17.74,1.67-34.59-1.93-50.98-8.28-14.67-5.69-29.01-12.23-44.92-14.28-12.59-1.62-24.78-.04-37.23,2.6,5.03-2.99,15.69-5.28,24.06-5.57,15.47-.54,30.37,2.09,44.46,8.41,20.62,9.26,41.52,17.17,64.61,17.12Z"/>
    <path class="cls-16" d="m644.96,632.67c22.12-22.3,52.41-32.46,79.38-19.71,13.79,6.52,27.15,13.57,43.14,11.77-13.06,3.51-25.04.67-36.42-5.74-15.29-8.61-31.27-11.92-48.41-6.35-12.69,4.12-24.26,10.34-34.79,18.52-.83.64-1.41,1.96-2.91,1.5Z"/>
    <path class="cls-5" d="m713.94,550.17c22.82-10.89,43.85-13.09,64.65,2.11,11.93,8.72,16.99,9.51,39.08,10.73-14.25,3-27.35-.48-39.79-7.45-6.34-3.55-12.32-7.79-19.48-9.72-12.71-3.42-25-1.64-37.1,2.83-1.95.72-3.71,2.25-7.35,1.49Z"/>
    <path class="cls-47" d="m387.75,661.24c-6.04-2.58-11.76-5.47-17.87-7.59-12.1-4.2-24.11-3.55-36.17-.01-10.25,3.01-20.49,6.2-31.14,1.73-1.16-.49-2.27-1.08-3.38-2.28,14.51,6.75,27.52-1.1,40.98-3.73,17.88-3.49,33.48,1.37,47.58,11.89Z"/>
    <path class="cls-27" d="m661.37,644.09c17.7-12.67,36.66-16.94,57.54-9.51,4.45,1.58,8.77,3.51,13.14,5.31,4.51,1.85,9.39.96,15.09,1.91-8.16,1.29-15.22,1.01-21.77-2-21.17-9.74-41.46-7.55-61.19,3.95-.83.48-1.54,1.33-2.82.33Z"/>
    <path class="cls-19" d="m563.98,679.36c1.97.02,3.93.05,5.9.07-24.13,15.15-48.36,13.54-72.66-.22,22.32,8.9,44.61,12.97,66.76.14Z"/>
    <path class="cls-46" d="m545.39,708.74c14.34-3.83,27.17-10.66,39.76-18.06,10.18-5.98,21.1-9.53,33.12-9.43-20.11,1.92-35.32,15.28-53.17,22.44-6.36,2.55-12.78,4.9-19.7,5.05Z"/>
    <path class="cls-36" d="m252.08,634.53c18.73,1.27,35.35-7.03,52.84-11.34,8.02-1.98,16.09-.74,24.22-.41-13.77-.59-26.78,2.67-39.31,7.78-12.24,4.98-24.86,5.2-37.74,3.98Z"/>
    <path class="cls-56" d="m785.17,605.75c-9.62,1.41-18.83-.29-26.77-5.43-12.43-8.06-24.98-15.12-40.52-14.34,11.43-1.74,22.28-.19,31.9,6.08,10.85,7.06,21.71,13.71,35.39,13.69Z"/>
    <path class="cls-43" d="m256.97,592.41c-22.44-6.66-35.16-27.98-27.25-46.74-2,22.84,8.09,37.53,28.4,45.72.19.98.08,1.63-1.15,1.02Z"/>
    <path class="cls-10" d="m246.57,549.3c2.92,17.67,14.66,29.17,42.9,33.11-20.36,3.51-47.51-15.46-42.9-33.11Z"/>
    <path class="cls-2" d="m794.05,490.88c12.34-18.31,11.92-36.87.65-55.64,14.31,14.43,14.17,40.33.16,55.95-.42.29-.69.18-.81-.31Z"/>
    <path class="cls-1" d="m800.69,505.93c17.69-14.03,20.25-32.83,16.82-54.18,7.86,16.2,1.71,45.13-16.82,54.18Z"/>
    <path class="cls-31" d="m223.53,488.05c-13.45-15.9-14.14-39.4-1.12-52.92-10.63,17.9-9.16,35.26,1.85,52.21-.06.43-.3.66-.73.71Z"/>
    <path class="cls-17" d="m590.03,705.44c14.44-10.03,30.59-13.37,48.03-10.99-16.74.25-32.67,3.94-48.03,10.99Z"/>
    <path class="cls-53" d="m216.1,496.09c-15.97-8.17-19.23-34.85-11.9-48.5-3.35,25.53-1.28,34.49,11.9,48.5Z"/>
    <path class="cls-53" d="m235.49,592.63c-17.4-5.58-29.9-23.07-24.11-36.27,1.77,19.4,2.23,20.09,24.11,36.27Z"/>
    <path class="cls-65" d="m192.49,468.4c.61,22.79,1.16,24.4,11.93,36.42-10.5-3.26-15.98-19.05-11.93-36.42Z"/>
    <path class="cls-29" d="m296.68,519.35c6.69,7.85,14.62,13.39,25.3,13.84-10.58,1.77-21.54-4.13-25.3-13.84Z"/>
    <path class="cls-59" d="m684.5,656.26c8.02-5.28,16.52-6.88,25.67-3.52-8.68.44-17.56-.55-25.67,3.52Z"/>
    <path class="cls-38" d="m317.08,547.37c-14.63,3.25-26.18-2.48-27.7-11.01,7.01,10.52,17.18,11.22,27.7,11.01Z"/>
    <path class="cls-52" d="m193.73,510.77c-9.92-4.94-12.84-10.86-9.82-19.85-1.15,8.94,3.59,14.77,9.82,19.85Z"/>
    <path class="cls-20" d="m817.02,508.41c5.74-5.97,8.9-13.23,10.6-21.23.12,8.88-2.78,16.4-9.82,22.08-.63.05-.89-.23-.79-.85Z"/>
    <path class="cls-28" d="m788.59,585.28c1.97-.62,4.27.65,6.04-1.07h11.01c-5.62,1.67-11.22,3.36-17.05,1.07Z"/>
    <path class="cls-7" d="m341.06,662.34c6.12-1.49,12.19-2.22,17.98,1.29-5.96-.86-11.96-1.3-17.98-1.29Z"/>
    <path class="cls-58" d="m256.97,592.41c.38-.34.76-.68,1.15-1.02,2.97,1.2,5.94,2.4,8.91,3.6-3.55-.31-7.12-.4-10.06-2.59Z"/>
    <path class="cls-20" d="m817.8,509.26c-2.26,2.47-4.77,4.58-8.55,5.01,2.59-1.95,5.17-3.91,7.76-5.86.26.29.52.57.79.85Z"/>
    <path class="cls-24" d="m224.26,487.34c1.74,1.94,3.47,3.88,5.21,5.82-2.91-.86-4.95-2.47-5.94-5.12.24-.24.49-.47.73-.71Z"/>
    <path class="cls-35" d="m794.86,491.19c-.72,3.08-3.38,4.52-6.16,5.95,1.78-2.09,3.57-4.17,5.35-6.26.38-.18.65-.08.81.31Z"/>
    <path class="cls-32" d="m621,327.73c2.46-1.48,5.18-1.87,7.96-1.67,16.32,1.16,31.38,19.01,29.89,35.25-.43,4.68-3.09,8.42-4.89,12.52-3.53,4.87-8.4,8.35-12.71,12.42-26.99,25.49-52.23,52.54-70.42,80.78,7.41-10.84,18.07-23.8,29.67-36,15.32-16.1,31.4-31.41,47.72-46.48,2.9-2.68,5.8-5.44,9.65-6.8,8.97-1.43,19.58,6.92,22.29,18.05,3.15,12.9-1.8,23.52-10.15,33-7.97,6.69-17.79,10.29-26.47,15.83-18.07,11.52-35.58,23.75-51.59,38.03-3.36,2.99-7.38,5.2-10.34,8.56,15.76-13.79,32.43-26.41,50.43-37.3,10.18-6.16,20.7-11.7,30.92-17.76,1.66-.98,3.35-2.24,5.53-1.43,13.23.82,19.36,11.59,13.35,23.71-4.25,8.57-11.7,13.94-19.95,17.98-11.32,5.55-22.87,10.62-34.43,15.65-24.17,10.5-46.15,23.7-59.55,47.58-1.23-.75-.81-1.44-.49-2.09,13.23-26.71,3.18-60.08-22.63-78.45-10.03-7.14-21.26-9.09-32.76-10.96-1.66-.27-3.79.44-3.6-2.44-1.05-8.71.14-17.4.17-26.1.08-29.96.03-59.92.04-89.89,0-12.88,1.22-25.75.66-34.65-1.1,39.64-.39,83.29-.84,126.92-.08,7.88.12,15.83-.83,23.71-.11.57-.12,1.61-.33,1.65-6.77,1.32-13.67,1.87-20.32,3.93-1.95.61-.32-2.92-2.24-3.26-9.49-37.98-23.52-74.33-39.39-110.03-3.05-6.86-6.41-13.58-9-20.63-.03-.09.24-.3-.12.13,2.45,6.55,5.73,13.15,8.73,19.84,15.56,34.78,29.18,70.26,38.9,107.15.31,1.19.4,2.33.06,3.51.85,2.14,2.21,4.05-1.58,5.24-3.99,1.25-2.26-2.22-2.86-3.23-1.42-2.4-1.16-5.58-2.95-7.98-7.96-24.46-16.91-48.54-27.52-71.98-5.83-12.89-11.63-25.8-17.3-35.88,16.69,32.44,32.12,68.19,43.8,105.52.37,1.18.36,2.33.15,3.52,1.03,3.57,3.3,7.35,2.75,10.65-.55,3.27-5.53,3.76-8.23,6-16.64,13.8-26.96,30.88-26.94,53.03,0,9.29,3.28,17.98,6.68,26.69-17.94-28.91-47.15-41.79-76.3-54.81-10.1-4.51-20.25-9-29-15.99-5.58-4.46-9.86-9.91-11.11-17.02-2.02-11.52,3.26-17.23,14.85-16.63,8.71,2.89,16.21,8.12,24.04,12.66,20.9,12.12,41.1,25.29,54.51,36.61-16.7-13.78-39.55-30.39-63.97-44.8-5.25-3.1-11.33-4.81-15.75-9.31-9.31-10.27-15.46-21.65-11.24-36.02,3.39-11.55,11.98-17.31,23.41-16.37,1.78-.05,2.91,1.12,4.05,2.22,25.34,24.55,51.82,47.99,73.65,75.95,4.39,5.63,8.2,11.67,12.07,16.51-6.83-9.75-14.22-20.24-22.06-30.4-18.35-23.82-40.02-44.49-61.86-64.99-1.78-1.67-3.33-3.35-4.27-5.59-7.57-22.16,3.45-41.36,25.85-45.35,3.09-.55,5.85.17,8.75.6,3.85,1.45,5.65,4.97,7.59,8.09,23.68,38.06,45.43,77.18,63.38,113.79-16.85-38.64-36.56-80.36-62.61-118.75-1.25-1.84-2.16-3.75-2.42-5.96,1.73-17.95,14.45-31.29,32.4-34.54,9.78-1.77,19.08-1.49,27.8,3.81,2.98,1.79,2.9,5.05,3.62,7.84,9.59,37.57,16.22,75.75,23.54,113.78,1.85,9.62,3.75,19.24,4.87,28.54.23-3.79-1.15-7.91-1.84-12.05-5.65-34.08-9.69-68.43-16.77-102.28-2.11-10.11-4.41-20.18-6.7-30.26-.57-2.5-1.48-5-.2-7.55,7.4-12.44,19.4-17.84,32.82-19.33,19.34-2.15,36.36,2.96,48.14,19.9,1.74,2.51.48,5.01-.18,7.42-9.94,36.26-15.82,73.28-20.84,110.47-1.6,11.85-3.63,23.64-5.44,35.46-.13.78,1.27.06.49.2-.32.06-.45-.09-.39-.45,6.71-43.48,14.97-86.66,25.38-129.41,1.91-7.85,3.15-15.97,6.92-23.3,19.59-8.04,43.66-1.89,55.72,14.12,4,5.3,6.31,10.93,4.85,17.67-.36,2.61-1.55,4.83-3.02,6.99-25.65,37.7-46.76,77.8-63.16,120.36-.34.89-.71,1.82-.92,2.07,12-30.85,29.68-59.44,46.49-88.48,6.36-10.98,13.48-21.51,20.37-32.17,1.42-2.2,2.92-4.27,5.58-5.09Z"/>
    <path class="cls-32" d="m463.22,562.2c4.19,2.64,8.3,5.42,12.6,7.87,2.32,1.32,2.23,2.45,1.06,4.6-2.38,4.37-4.37,8.96-6.14,13.64,3.26-2.95,4.55-7.05,6.73-10.61,1.35-2.21.75-6.46,6-4.54,3.91,1.43,5.96,2.72,3.89,7.65,1.88-6.62,5.99-4.64,10.19-4.35,10.85.76,21.82,1.45,32.47-1.66,3.6-1.05,5.14-.17,6.48,3.27,1.48,3.79,3.83,7.23,6.22,10.62-.54-4.69-3.37-8.37-5.3-12.45-.72-1.52-1.98-3.66.89-3.86,2.38-.17,4.43-4.78,7-.84,2.48,3.79,4.71,7.73,8.63,11.97-1.14-5.08-4.27-7.78-6.1-11.15-.89-1.65-3.48-3.16-.18-5.07,2.14-1.23,3.64-3.02,6.05.23,3.3,4.45,7.25,8.49,12.07,11.47-2.84-4.79-6.85-8.48-10.71-12.31-.8-.79-1.98-1.74-2.02-2.66-.16-3.27,4.85-1.01,5.26-5.04.29-2.88,3.35-5.54,7.72-1.97-4.11-2.89-3.82-5.22-.48-7.49,15.59,5.68,30.87,12.21,47.01,16.34,4.81,1.23,9.72,1.98,12.48,2.78-16.55-3.13-34.35-9.21-51.78-16.45-2.55-1.06-5.13-2.03-7.86-2.56,1.2-1.55.96-4.2,3.56-4.68,3.99.27,7.79,1.4,11.51,2.74,21.6,7.78,43.89,11.58,66.81,11.83.54,0,.99.25,1.56-.01-24.85.53-48.59-4.86-71.83-12.99-2.59-.91-5.32-1.59-8.15-1.51.98-4.46,3.91-4.42,7.57-3.59,15.19,3.45,30.28,7.65,45.94,8.43,10.5.52,21.03.49,31.54.77,1.76.05,3.55.27,5.28.61,5.34,1.07,8.48,3.95,7.96,9.85-.44,4.91-3.99,8.6-9.62,8.42-5.74-.18-8.98,2.03-11.72,7-6.53,11.83-16.42,15.13-28.34,9-14.66-7.52-26.29-2.45-37.1,7.45-4.56,4.18-9.2,8.06-15.2,10.01-10.12,3.29-19.05-.1-27.66-4.94-6.9-3.88-13.9-7.05-21.9-8.4-11.48-1.94-21.98.36-32.17,5.23-4.28,2.04-8.35,4.52-12.67,6.47-11.7,5.3-22.3,3.16-31.84-5.16-2.24-1.96-4.39-4.03-6.71-5.88-10.29-8.18-21.16-10.49-33.55-4.33-13.24,6.58-21.9,3.37-28.58-9.97-1.77-3.53-3.71-5.84-8.07-5.34-1.68.19-3.5-.55-5.22-.96-4.44-1.07-6.53-4.02-6.84-8.49-.32-4.73,2.09-7.25,6.33-8.74,6.53-2.3,13.3-1.93,20-1.97,22.31-.15,43.96-4.52,65.44-9.97,1.88-.48,3.65-.97,4.73.93,1.52,2.68-2.27,1.37-2.41,2.91-24.35,8.68-49.22,14.7-75.21,14.88,3.1.52,11.17.17,16.57-.52,18.69-2.39,36.9-6.75,54.69-12.9,1.37-.48,2.67-.69,4.05-.32,4.49-2.12,6.45-.38,6.5,4.26-11.21,2.67-21.68,7.55-32.56,11.2-10.31,3.45-20.78,6.1-30.29,7.81,19.96-2.69,39.36-11.33,59.3-18.12,1.13-.39,2.29-.62,3.41-1.01,2.28-.85,2.38,1.38,3.32,2.39,3.19,3.42,6.34,6.88,9.51,10.32-4.59,6.19-10.74,10.89-14.38,15.05,3.54-4.24,10.05-8.63,14.26-15.18Z"/>
    <path class="cls-3" d="m509.04,566.09c-30.9.05-56.4-24.66-56.44-54.68-.04-31.17,25.26-57.18,55.62-57.2,30.82-.02,56.46,25.9,56.45,57.07-.01,29.98-25.17,54.76-55.63,54.81Z"/>
    <path class="cls-42" d="m468.18,291.31c6.3,24.91,11.64,50.02,15.49,75.43,3.56,23.45,7.01,46.91,10.44,70.38.48,3.27.5,6.6.2,9.99-11.64-51.13-19.54-103.04-32.66-153.84,2.37-.03,4.63-.39,6.53-1.97Z"/>
    <path class="cls-42" d="m401.45,324c18.26,25.06,32.45,52.48,46.27,80.09,7.7,15.38,14.71,31.09,21.12,47.06.77,1.92,2.35,3.77,1.1,6.87-23.63-44.81-45.91-89.78-74.43-131.18,2.32-.23,4.75-.26,5.94-2.84Z"/>
    <path class="cls-42" d="m555.09,292.28c-.22,9.21-3.84,17.69-5.98,26.46-9.39,38.62-16,77.8-23.71,116.76-.76,3.83-.92,7.86-2.86,11.55-1.81-13.17,16.81-121.61,26.6-155.17,1.97.29,3.89,1.32,5.95.4Z"/>
    <path class="cls-42" d="m621,327.73c-15.64,22.24-29.4,45.63-42.73,69.3-10.59,18.8-20.84,37.78-29.1,57.75-.49,1.18-1.2,2.27-2.46,3.06,16.16-48.09,39.93-92.29,68.94-133.79.67,2.85,3.06,3.18,5.34,3.67Z"/>
    <path class="cls-42" d="m360.91,371.6c35.11,31.08,67.38,64.61,90.82,105.81-2.91-3.69-5.83-7.37-8.73-11.06-2.94-3.74-5.89-7.47-8.8-11.23-17.17-22.23-37.53-41.41-57.84-60.64-5.75-5.44-11.35-11.03-17.03-16.56,1.51-1.86,1.36-4.13,1.58-6.31Z"/>
    <path class="cls-42" d="m657.88,377.76c-13.43,12.61-26.99,25.09-40.26,37.87-17.87,17.22-34.22,35.81-48.73,55.98-.68.95-1.51,1.79-2.32,2.74-1.68-1.69.05-2.64.61-3.56,14.67-24.21,32.94-45.54,52.7-65.68,9.58-9.77,19.4-19.29,29.75-28.26,1.33-1.15,2.9-2.02,4.35-3.01.79,1.82,1.85,3.37,3.91,3.92Z"/>
    <path class="cls-42" d="m668.49,434.74c-31.16,16.73-60.97,35.53-88.57,57.78,21.36-20.54,44.38-38.78,70.12-53.4,6.52-3.7,12.84-7.81,19.99-10.31-.51,1.97-1.02,3.95-1.53,5.93Z"/>
    <path class="cls-42" d="m347.16,430.3c11.74,4.44,22.07,11.45,32.62,18.04,18.52,11.57,35.89,24.7,52.26,39.16,1.46,1.29,3.05,2.44,4.15,4.17-3.25.2-4.83-2.25-6.84-3.8-23.6-18.14-48.42-34.38-74.68-48.42-2.24-1.2-4.71-2.15-6.32-4.31.55-1.84-1.01-3.17-1.18-4.84Z"/>
    <path class="cls-18" d="m507.62,445.71c-.3-42.9-.58-85.81.34-128.71.18-8.5.03-17.01.98-25.51.51,51.41,1.83,102.82-.52,154.22,0,0-.4,0-.4,0h-.4Z"/>
    <path class="cls-55" d="m483.9,448c-11.75-46.01-30.89-89.28-48.5-133.21,2.6,5.43,5.23,10.85,7.81,16.3,2.62,5.51,5.31,10.99,7.76,16.57,13.79,31.38,25.37,63.53,33.57,96.85.28,1.12.12,2.35.17,3.52,0,0-.41-.09-.41-.09l-.41.06Z"/>
    <path class="cls-64" d="m475.64,443.21c-12.29-39.42-28.95-77.06-46.83-114.23,7.44,11.36,13.53,23.39,19.09,35.69,10.87,24.05,20.66,48.51,27.97,73.91.32,1.12.43,2.3.65,3.46-.29.39-.58.78-.87,1.17Z"/>
    <path class="cls-48" d="m444.14,545.48c-16.14,4.9-31.98,10.9-48.89,12.93-9.03,1.08-18.04,2.44-28.29,1.27,12.15-1.64,23.27-2.87,34.29-4.68,13.18-2.17,25.93-6.21,38.73-9.93,1.31-.38,2.7-.5,4.05-.73,0,.39.03.77.11,1.15Z"/>
    <path class="cls-33" d="m584.46,311.59c-19.92,44.15-39.59,88.22-51.5,135.28-1.08-17.13,33.8-108.6,51.5-135.28Z"/>
    <path class="cls-33" d="m538.73,448.83c11.64-44.59,28.63-87.1,53.04-126.54-21.28,40.65-38.87,82.82-53.04,126.54Z"/>
    <path class="cls-14" d="m557.72,457.32c19.4-39.13,46.18-72.92,74.52-105.61-25.72,34.62-53.23,67.99-74.52,105.61Z"/>
    <path class="cls-66" d="m501.23,429.08c-2.11-7.94-1.37-16.15-1.73-24.19-1.52-33.47-3.05-66.95-2.84-100.48,0-1.38.19-2.75.54-4.12,2.51,42.88,3.99,85.78,5.27,128.7-.37.56-.78.59-1.23.09Z"/>
    <path class="cls-44" d="m381.18,363.73c29.04,30.73,55.52,63.43,75.97,100.66-22.23-35.88-49.38-68.04-75.97-100.66Z"/>
    <path class="cls-57" d="m390.66,358.81c26.49,30.29,50.62,62.3,68.78,98.45-20.33-34.63-44.72-66.4-68.78-98.45Z"/>
    <path class="cls-21" d="m520.74,312.31c-1.28,40.48-2.39,80.97-5.22,121.39-1.3.05-1.53-.6-1.09-1.69.42-41.12,2.75-82.15,5.12-123.19,3.03.25,1.07,2.23,1.2,3.48Z"/>
    <path class="cls-6" d="m564.2,456.12c11.81-21.59,26.84-40.92,42.3-59.93,9.24-11.36,18.5-22.72,29.58-32.49-24.92,30.11-50.09,60.02-71.11,93.08-.52.08-.78-.14-.77-.66Z"/>
    <path class="cls-40" d="m371.75,411.24c26.46,17.89,49.25,39.74,68.76,65.07-21.46-23.24-44.18-45.13-68.76-65.07Z"/>
    <path class="cls-37" d="m656.34,415.06c-28.9,19.51-55.03,42.37-79.86,68.43,7.24-13.43,59.35-60.31,79.86-68.43Z"/>
    <path class="cls-23" d="m648.88,407.61c-11.25,9.78-22.73,19.3-33.69,29.45-10.99,10.18-21.44,20.91-32.57,30.92,19.23-23.26,41.23-43.47,66.26-60.36Z"/>
    <path class="cls-54" d="m362.11,417.32c27.02,14.96,49.8,34.96,70.26,57.77-22.07-20.96-44.94-40.93-70.26-57.77Z"/>
    <path class="cls-60" d="m356.28,464.81c12.7,1.21,54.8,24.56,70.97,39.13-22.49-14.18-44.83-28.64-70.97-39.13Z"/>
    <path class="cls-26" d="m420.28,491.99c-18.16-11.78-35.8-24.41-55.19-34.19,20.53,7.93,38.3,20.34,55.19,34.19Z"/>
    <path class="cls-34" d="m655.42,466.01c-20.83,9.27-39.4,19.33-56.96,31.22,6.38-8.42,44.22-29.38,56.96-31.22Z"/>
    <path class="cls-25" d="m643.24,462.15c-17.93,9.2-34.45,20.61-50.85,32.22,15.31-13.69,32.05-25.22,50.93-33.54.33.31.42.62.29.9-.13.28-.25.42-.37.42Z"/>
    <path class="cls-63" d="m520.74,312.31c-.4-1.16-.8-2.32-1.2-3.48-.67-3.57,1.34-6.68,1.58-10.11.84,4.6,1.35,9.14-.38,13.59Z"/>
    <path class="cls-30" d="m514.42,432.02c.36.56.73,1.12,1.09,1.69-.43,4.24-.86,8.48-1.3,12.71-.97-4.85-1.31-9.66.2-14.4Z"/>
    <path class="cls-12" d="m501.23,429.08c.41-.03.82-.06,1.23-.09v16.56c-.41.01-.82.03-1.23.04v-16.5Z"/>
    <path class="cls-49" d="m643.24,462.15c.03-.44.05-.88.08-1.33,2.89-2.35,6.37-3.37,10.26-3.65-3.44,1.66-6.89,3.32-10.33,4.98Z"/>
    <path class="cls-51" d="m581.83,470.25c-1.92,2.18-3.85,4.36-5.77,6.54-.36-.3-.72-.6-1.07-.89,1.9-2.21,3.79-4.43,5.69-6.64.39.33.77.66,1.16,1Z"/>
    <path class="cls-13" d="m437.09,480.59c2.75,1.3,4.64,3.41,5.78,6.26-2.7-1.28-4.43-3.58-5.78-6.26Z"/>
    <path class="cls-9" d="m564.97,456.78c-1.39,2.67-2.77,5.34-4.16,8.01-.11-3.46,1.32-6.21,3.38-8.67.37.09.63.31.77.66Z"/>
    <path class="cls-22" d="m568.86,545.01c5.15-1.63,9.72,1.04,14.21,2.49,19.26,6.21,38.84,10.26,59.12,10.74,2.7.06,5.4.63,8.06,1.2-23.72,2.39-46.28-2.72-68.43-10.41-4.24-1.47-8.55-2.75-12.84-4.1-.01.01-.12.08-.12.08Z"/>
    <path class="cls-39" d="m450.51,549.63c-21.39,8.82-42.78,17.68-66.19,19.72,21.66-4.41,42.16-12.5,62.92-19.76,1.09-.38,2.29-.73,3.39.15.01,0-.12-.11-.12-.11Z"/>
    <path class="cls-61" d="m565.41,549.63c5.32-.19,9.66,2.78,14.4,4.44,16.23,5.68,32.43,11.44,49.24,15.22-22.49-2.3-43.22-10.29-63.49-19.78,0,0-.15.11-.15.11Z"/>
    <path class="cls-45" d="m450.91,555.46c-15.57,9.24-31.23,18.34-48.75,23.49,16.36-7.59,32.19-16.29,48.75-23.49Z"/>
    <path class="cls-50" d="m610.39,578.65c-8.54-1.24-30.53-12.11-41.92-20.87,14.22,6.48,27.68,14.53,41.92,20.87Z"/>
    <path class="cls-61" d="m463.22,562.2c-1.26,5.68-6.52,8.12-9.91,12.05-2.59,3-5.73,5.53-8.84,8,6.29-6.64,12.58-13.28,18.87-19.92,0,0-.12-.14-.12-.14Z"/>
    <path class="cls-11" d="m453.83,563.18c-7.09,5.7-14.25,11.3-22.76,15.05,7.28-5.42,14.56-10.84,21.84-16.26.31.4.62.81.92,1.21Z"/>
    <path class="cls-8" d="m560.51,562.06c6.25,4.65,12.49,9.29,18.74,13.94-7.59-2.77-13.73-7.59-18.74-13.94Z"/>
    <path class="cls-67" d="m457.4,581.32c2.48-4.74,5.32-9.15,9.43-12.6-2.16,4.93-5.45,9.05-9.43,12.6Z"/>
    <path class="cls-32" d="m532.09,506.48c-11.75-.09-24.94-12.62-25.77-24.48-.33-4.72,4.61-11.12,9.51-12.32,10.35-2.52,29.37,10.51,30.9,21.16,1.32,9.2-4.77,15.71-14.63,15.64Z"/>
    <path class="cls-42" d="m554.95,524.07c-5.91,17.59-17.87,28.78-35.99,32.34-20.52,4.03-37.39-3.32-49.37-19.97-11.06-15.36-11.39-32.31-3.25-49.39-4.25,12.23-3.25,24.07,3.11,35.28,6.3,11.11,15.65,18.98,27.62,23.29,23.4,8.42,43.47.62,57.88-21.55Z"/>
  </g>
  <text class="cls-68" transform="translate(112.1 833.41)"><tspan x="0" y="0">ĐÔNG HẢI SEA</tspan><tspan class="cls-69" x="536.69" y="0">F</tspan><tspan x="580.99" y="0">OOD</tspan></text>
</svg>