<?xml version="1.0" encoding="UTF-8"?>
<svg id="Layer_1" data-name="Layer 1" xmlns="http://www.w3.org/2000/svg" viewBox="0 0 120.81 50.01">
  <defs>
    <style>
      .cls-1 {
        fill: #a27d53;
      }

      .cls-1, .cls-2 {
        stroke-width: 0px;
      }

      .cls-2 {
        fill: #00109f;
      }
    </style>
  </defs>
  <g>
    <path class="cls-1" d="m22.94,50.01c-1.77,0-3.29-.48-4.5-1.42-.42-.34-.62-.71-.62-1.13,0-.69.43-1.11,1.14-1.11.23,0,.5.09.82.27.57.36,1.06.62,1.44.76.53.2,1.12.3,1.74.3,2.44,0,2.44-1.02,2.44-1.4,0-.42-.19-.73-.61-.98-.22-.14-.54-.28-.93-.42-.3-.11-.77-.26-1.39-.44-1.65-.49-2.78-1.02-3.47-1.63-.69-.61-1.04-1.42-1.04-2.39,0-1.19.5-2.12,1.47-2.76.88-.59,2.07-.88,3.55-.88.96,0,1.92.18,2.86.54.42.16.78.34,1.05.54.44.31.66.66.66,1.05,0,.74-.43,1.18-1.14,1.18-.2,0-.39-.05-.55-.14-.45-.26-.91-.46-1.34-.6-.5-.15-1.02-.23-1.53-.23-2.5,0-2.5.95-2.5,1.27,0,.36.16.63.52.86.23.15.8.42,2.15.85.8.25,1.46.48,1.95.68.61.26,1.11.53,1.49.8.88.66,1.33,1.54,1.33,2.63s-.45,2.04-1.32,2.73c-.89.71-2.13,1.07-3.67,1.07Z"/>
    <path class="cls-1" d="m30.95,49.79c-.8,0-1.28-.47-1.28-1.26v-10.27c0-.79.48-1.26,1.28-1.26h6.65c.77,0,1.23.45,1.23,1.19s-.46,1.19-1.23,1.19h-5.39v2.67h2.87c.75,0,1.19.45,1.19,1.19s-.45,1.19-1.19,1.19h-2.87v2.96h5.66c.77,0,1.23.45,1.23,1.19s-.46,1.19-1.23,1.19h-6.92Z"/>
    <path class="cls-1" d="m50.55,49.93c-.53,0-.93-.26-1.14-.74l-1.09-2.39h-5.14l-1.1,2.39c-.21.47-.61.74-1.14.74-.76,0-1.21-.45-1.21-1.21,0-.16.04-.32.12-.52l4.76-10.61c.2-.47.61-.74,1.14-.74s.94.27,1.15.75l4.75,10.59c.08.2.12.37.12.53,0,.76-.45,1.21-1.21,1.21Zm-3.22-5.47l-1.59-3.68-1.58,3.68h3.17Z"/>
    <path class="cls-1" d="m54.61,49.93c-.79,0-1.26-.47-1.26-1.26v-10.41c0-.79.47-1.26,1.26-1.26h6.72c.76,0,1.21.45,1.21,1.21s-.45,1.21-1.21,1.21h-5.44v2.6h2.88c.77,0,1.22.46,1.22,1.22s-.46,1.21-1.22,1.21h-2.88v4.22c0,.79-.48,1.26-1.27,1.26Z"/>
    <path class="cls-1" d="m69.53,50.01c-1.89,0-3.48-.66-4.71-1.96-1.18-1.26-1.78-2.82-1.78-4.65s.6-3.4,1.78-4.65c1.23-1.3,2.81-1.96,4.71-1.96s3.48.66,4.71,1.96c1.18,1.26,1.78,2.82,1.78,4.65s-.6,3.4-1.78,4.65c-1.23,1.3-2.81,1.96-4.71,1.96Zm0-10.86c-1.23,0-2.19.41-2.92,1.26-.69.8-1.03,1.77-1.03,2.98s.34,2.18,1.03,2.98c.74.85,1.69,1.26,2.92,1.26s2.19-.41,2.92-1.26c.7-.8,1.04-1.77,1.04-2.98s-.34-2.18-1.04-2.98c-.74-.85-1.69-1.26-2.92-1.26Z"/>
    <path class="cls-1" d="m83.67,50.01c-1.89,0-3.48-.66-4.71-1.96-1.18-1.26-1.78-2.82-1.78-4.65s.6-3.4,1.78-4.65c1.23-1.3,2.81-1.96,4.71-1.96s3.48.66,4.71,1.96c1.18,1.26,1.78,2.82,1.78,4.65s-.6,3.4-1.78,4.65c-1.23,1.3-2.81,1.96-4.71,1.96Zm0-10.86c-1.23,0-2.19.41-2.92,1.26-.69.8-1.03,1.77-1.03,2.98s.34,2.18,1.03,2.98c.74.85,1.69,1.26,2.92,1.26s2.19-.41,2.92-1.26c.7-.8,1.04-1.77,1.04-2.98s-.34-2.18-1.04-2.98c-.74-.85-1.69-1.26-2.92-1.26Z"/>
    <path class="cls-1" d="m93.25,49.79c-.8,0-1.28-.48-1.28-1.28v-10.23c0-.8.48-1.28,1.28-1.28h3.33c1.93,0,3.5.61,4.68,1.83,1.15,1.18,1.73,2.72,1.73,4.57s-.58,3.39-1.73,4.57c-1.18,1.21-2.76,1.83-4.68,1.83h-3.33Zm3.28-2.39c1.25,0,2.2-.36,2.91-1.11.7-.73,1.03-1.68,1.03-2.9s-.34-2.16-1.03-2.9c-.71-.75-1.66-1.11-2.91-1.11h-2.02v8.02h2.02Z"/>
  </g>
  <g>
    <path class="cls-2" d="m4.26,23.97c-1.07,0-1.68-.61-1.68-1.68v-5.45h-1.08c-.95,0-1.51-.56-1.51-1.49s.56-1.51,1.51-1.51h1.08v-5.43c0-1.07.61-1.68,1.68-1.68h4.52c2.6,0,4.73.83,6.32,2.46,1.54,1.59,2.32,3.66,2.32,6.16s-.78,4.57-2.32,6.16c-1.59,1.63-3.72,2.46-6.32,2.46h-4.52Zm4.45-3.11c1.71,0,3.02-.5,3.99-1.53.95-1.01,1.42-2.31,1.42-3.97s-.46-2.97-1.42-3.97c-.97-1.03-2.28-1.53-3.99-1.53h-2.81v3.99h2.37c.94,0,1.51.56,1.51,1.51s-.56,1.49-1.51,1.49h-2.37v4.02h2.81Z"/>
    <path class="cls-2" d="m27.75,24.27c-2.55,0-4.68-.89-6.34-2.64-1.59-1.69-2.4-3.8-2.4-6.27s.81-4.58,2.4-6.27c1.65-1.75,3.79-2.64,6.34-2.64s4.68.89,6.34,2.64c1.59,1.69,2.4,3.8,2.4,6.27s-.81,4.58-2.4,6.27c-1.65,1.75-3.79,2.64-6.34,2.64Zm0-14.73c-1.69,0-3,.57-4.01,1.73-.93,1.08-1.41,2.45-1.41,4.08s.47,3,1.41,4.08c1.01,1.16,2.32,1.73,4.01,1.73s3-.57,4.01-1.73c.94-1.08,1.42-2.45,1.42-4.08s-.48-3-1.42-4.08c-1.01-1.16-2.32-1.73-4.01-1.73Zm2.25-3.21c-.32,0-.61-.1-.85-.3,0,0,0,0-.01-.01l-1.39-1.26-1.38,1.26s-.02.01-.02.02c-.25.2-.53.3-.84.3-.81,0-1.29-.46-1.29-1.23,0-.36.15-.69.42-.96,0,0,2.2-2.01,2.2-2.01.27-.25.58-.38.91-.38s.64.13.91.38l2.21,2s.01.01.02.02c.26.26.4.59.4.95,0,.77-.48,1.23-1.28,1.23Z"/>
    <path class="cls-2" d="m52,24.16c-.5,0-.93-.2-1.24-.58,0,0-8.5-10.83-8.5-10.83v9.83c0,1-.58,1.58-1.6,1.58s-1.58-.58-1.58-1.58v-14.43c0-1.02.59-1.6,1.63-1.6.52,0,.96.23,1.27.66l8.45,10.76v-9.81c0-1.02.59-1.6,1.62-1.6s1.58.58,1.58,1.6v14.43c0,1-.59,1.58-1.62,1.58Z"/>
    <path class="cls-2" d="m64.82,24.27c-2.57,0-4.71-.86-6.35-2.56-1.6-1.67-2.41-3.81-2.41-6.36s.83-4.73,2.48-6.4c1.64-1.67,3.73-2.52,6.24-2.52,1.16,0,2.24.17,3.2.52,1.05.38,1.95.96,2.66,1.71.34.33.51.71.51,1.11,0,.99-.57,1.56-1.56,1.56-.36,0-.71-.13-1.07-.37,0,0,0,0-.01,0-1.2-.91-2.46-1.37-3.74-1.37-1.61,0-2.88.54-3.9,1.67-.99,1.09-1.47,2.43-1.47,4.1s.47,3.1,1.39,4.18c.99,1.17,2.31,1.74,4.03,1.74s3.04-.41,4.04-1.21v-2.3h-3.39c-1,0-1.57-.57-1.57-1.56s.57-1.53,1.57-1.53h5c1.06,0,1.66.61,1.66,1.68v4.05c0,.47-.14.84-.41,1.11-1.65,1.82-3.97,2.75-6.89,2.75Z"/>
    <path class="cls-2" d="m94.95,24.16c-1.05,0-1.65-.61-1.65-1.68v-5.76h-7.8v5.76c0,1.07-.6,1.68-1.64,1.68s-1.68-.61-1.68-1.68v-14.26c0-1.07.6-1.68,1.65-1.68s1.66.61,1.66,1.68v5.32h7.8v-5.32c0-1.07.6-1.68,1.65-1.68s1.65.61,1.65,1.68v14.26c0,1.07-.6,1.68-1.65,1.68Z"/>
    <path class="cls-2" d="m113.52,24.16c-.69,0-1.22-.34-1.49-.97l-1.5-3.28h-7.06l-1.5,3.28c-.27.62-.8.96-1.49.96-1,0-1.58-.58-1.58-1.58,0-.2.05-.42.16-.68,0,0,6.45-14.39,6.45-14.39.27-.63.8-.97,1.49-.97s1.23.34,1.49.97c0,0,6.45,14.38,6.45,14.39.11.25.16.47.16.67,0,1-.58,1.58-1.58,1.58Zm-4.28-7.29l-2.25-5.21-2.25,5.21h4.49Zm-2.08-10.69c-1.19,0-1.28-.82-1.28-1.07v-.36c0-.37.11-.75.34-1.13,0,0,.01-.02.02-.03.04-.07.13-.17.4-.46.02-.02.04-.04.33-.3.27-.24.37-.39.41-.47-.02,0-.05,0-.08,0-.01,0-.03,0-.04,0-.26.01-.46.07-.61.16-.1.07-.21.13-.36.18-.13.05-.31.07-.59.07-.02,0-.03,0-.05,0-.66-.07-1.04-.55-.98-1.26,0-.31.19-.6.54-.85.63-.44,1.37-.67,2.19-.67.75,0,1.36.18,1.8.53.57.45.86,1,.86,1.63,0,.66-.37,1.33-1.11,1.98-.32.28-.45.43-.49.5,0,.02,0,.05,0,.1v.37c0,.25-.09,1.07-1.3,1.07Z"/>
    <path class="cls-2" d="m119.17,24.16c-1.07,0-1.68-.61-1.68-1.68v-14.26c0-1.07.61-1.68,1.68-1.68s1.64.61,1.64,1.68v14.26c0,1.07-.6,1.68-1.64,1.68Z"/>
  </g>
</svg>