<?xml version="1.0" encoding="UTF-8"?>
<svg id="Layer_1" data-name="Layer 1" xmlns="http://www.w3.org/2000/svg" xmlns:xlink="http://www.w3.org/1999/xlink" viewBox="0 0 322.91 201.07">
  <defs>
    <style>
      .cls-1 {
        fill: url(#linear-gradient-12);
      }

      .cls-1, .cls-2, .cls-3, .cls-4, .cls-5, .cls-6, .cls-7, .cls-8, .cls-9, .cls-10, .cls-11, .cls-12, .cls-13, .cls-14, .cls-15, .cls-16, .cls-17 {
        stroke-width: 0px;
      }

      .cls-2 {
        fill: url(#linear-gradient-17);
      }

      .cls-3 {
        fill: url(#linear-gradient);
      }

      .cls-4 {
        fill: url(#linear-gradient-6);
      }

      .cls-5 {
        fill: url(#linear-gradient-15);
      }

      .cls-6 {
        fill: url(#linear-gradient-11);
      }

      .cls-7 {
        fill: url(#linear-gradient-5);
      }

      .cls-18 {
        filter: url(#drop-shadow-1);
      }

      .cls-8 {
        fill: url(#linear-gradient-13);
      }

      .cls-9 {
        fill: url(#linear-gradient-16);
      }

      .cls-10 {
        fill: url(#linear-gradient-14);
      }

      .cls-11 {
        fill: url(#linear-gradient-2);
      }

      .cls-12 {
        fill: url(#linear-gradient-7);
      }

      .cls-13 {
        fill: url(#linear-gradient-3);
      }

      .cls-14 {
        fill: url(#linear-gradient-9);
      }

      .cls-15 {
        fill: url(#linear-gradient-8);
      }

      .cls-16 {
        fill: url(#linear-gradient-10);
      }

      .cls-17 {
        fill: url(#linear-gradient-4);
      }
    </style>
    <linearGradient id="linear-gradient" x1=".28" y1="117.88" x2="260.19" y2="280.86" gradientUnits="userSpaceOnUse">
      <stop offset=".04" stop-color="#ffd168"/>
      <stop offset=".45" stop-color="#fc8861"/>
      <stop offset="1" stop-color="#ff15ab"/>
    </linearGradient>
    <linearGradient id="linear-gradient-2" x1="10.46" y1="101.65" x2="270.37" y2="264.64" gradientUnits="userSpaceOnUse">
      <stop offset=".04" stop-color="#fdbb63"/>
      <stop offset=".45" stop-color="#fc8861"/>
      <stop offset="1" stop-color="#ff15ab"/>
    </linearGradient>
    <linearGradient id="linear-gradient-3" x1="18.43" y1="88.93" x2="278.34" y2="251.92" xlink:href="#linear-gradient-2"/>
    <linearGradient id="linear-gradient-4" x1="33.5" y1="64.9" x2="293.41" y2="227.89" xlink:href="#linear-gradient-2"/>
    <linearGradient id="linear-gradient-5" x1="38.76" y1="56.51" x2="298.67" y2="219.5" xlink:href="#linear-gradient-2"/>
    <linearGradient id="linear-gradient-6" x1="48.18" y1="41.49" x2="308.09" y2="204.48" xlink:href="#linear-gradient-2"/>
    <linearGradient id="linear-gradient-7" x1="59.45" y1="23.52" x2="319.36" y2="186.51" xlink:href="#linear-gradient-2"/>
    <linearGradient id="linear-gradient-8" x1="69.19" y1="7.99" x2="329.1" y2="170.98" xlink:href="#linear-gradient-2"/>
    <linearGradient id="linear-gradient-9" x1="34.55" y1="63.22" x2="294.46" y2="226.21" xlink:href="#linear-gradient-2"/>
    <linearGradient id="linear-gradient-10" x1="97.16" y1="-36.62" x2="357.08" y2="126.37" xlink:href="#linear-gradient-2"/>
    <linearGradient id="linear-gradient-11" x1="79.11" y1="-7.83" x2="339.02" y2="155.16" xlink:href="#linear-gradient-2"/>
    <linearGradient id="linear-gradient-12" x1="31.06" y1="68.78" x2="290.98" y2="231.77" xlink:href="#linear-gradient-2"/>
    <linearGradient id="linear-gradient-13" x1="42.07" y1="51.23" x2="301.98" y2="214.22" xlink:href="#linear-gradient-2"/>
    <linearGradient id="linear-gradient-14" x1="51.53" y1="36.15" x2="311.44" y2="199.14" xlink:href="#linear-gradient-2"/>
    <linearGradient id="linear-gradient-15" x1="60.32" y1="22.14" x2="320.23" y2="185.13" xlink:href="#linear-gradient-2"/>
    <linearGradient id="linear-gradient-16" x1="94.88" y1="-32.98" x2="354.79" y2="130.01" xlink:href="#linear-gradient-2"/>
    <linearGradient id="linear-gradient-17" x1="106.32" y1="-51.22" x2="366.23" y2="111.77" xlink:href="#linear-gradient-2"/>
  </defs>
  <g class="cls-18">
    <g>
      <path class="cls-3" d="m33.79,129.64v42.82h-8.37v-59.16h11.67l9.53,35.44v-35.44h8.29v59.16h-9.57l-11.55-42.82Z"/>
      <path class="cls-11" d="m70.83,172.46h-9.28v-59.16h9.28v25.37h10.56v-25.37h9.49v59.16h-9.49v-25.33h-10.56v25.33Z"/>
      <path class="cls-13" d="m125.45,172.46h-9.36l-1.61-10.73h-11.39l-1.61,10.73h-8.54l9.45-59.16h13.61l9.45,59.16Zm-21.2-18.77h8.99l-4.5-29.91-4.5,29.91Z"/>
      <path class="cls-17" d="m137.73,113.31h30.54v8.46h-11.52v50.7h-9.28v-50.7h-9.74v-8.46Z"/>
      <path class="cls-7" d="m186.24,172.46c-.3-.93-.51-1.73-.62-2.39-.14-1.07-.21-2.7-.21-4.87v-9.28c0-5.03-2.04-7.55-6.11-7.55h-3.22v24.09h-9.28v-59.16h14.03c9.19,0,13.78,4.54,13.78,13.61v4.66c0,6.08-2.04,10.08-6.11,12,4.12,1.71,6.19,5.9,6.19,12.58v9.12c0,3.19.33,5.58.99,7.18h-9.45Zm-10.15-50.7v18.19h3.63c3.74,0,5.61-2.09,5.61-6.27v-5.82c0-4.07-1.58-6.11-4.74-6.11h-4.5Z"/>
      <path class="cls-4" d="m230.84,172.46h-9.36l-1.61-10.73h-11.39l-1.61,10.73h-8.54l9.45-59.16h13.61l9.45,59.16Zm-21.2-18.77h8.99l-4.5-29.91-4.5,29.91Z"/>
      <path class="cls-12" d="m243.42,129.64v42.82h-8.37v-59.16h11.67l9.53,35.44v-35.44h8.29v59.16h-9.57l-11.55-42.82Z"/>
      <path class="cls-15" d="m285.12,139.5h13.04v18.77c0,9.9-4.62,14.85-13.86,14.85s-13.86-4.95-13.86-14.85v-30.77c0-9.9,4.62-14.85,13.86-14.85s13.86,4.95,13.86,14.85v5.78h-8.79v-6.35c0-3.88-1.61-5.82-4.83-5.82s-4.83,1.94-4.83,5.82v31.93c0,3.85,1.61,5.78,4.83,5.78s4.83-1.92,4.83-5.78v-10.89h-4.25v-8.46Z"/>
    </g>
    <path class="cls-14" d="m229.69,94.53c-1.29,1.5-2.67,2.93-4.14,4.25h83.11v88.04H14.26v-88.04h150.36c-1.47-1.32-2.85-2.75-4.14-4.25H10v96.54h302.9v-96.54h-83.22Z"/>
    <path class="cls-16" d="m271.39,10.01H120.74c-7.16,0-12.97,5.81-12.97,12.97v12.02h52.95c8.35-9.59,20.65-15.66,34.36-15.66s26.01,6.07,34.36,15.66h54.91v-12.02c0-7.16-5.81-12.97-12.97-12.97Z"/>
    <path class="cls-6" d="m195.08,104.21c-10.91,0-20.19-3.78-27.86-11.34-7.67-7.56-11.45-16.84-11.45-27.97s3.78-20.41,11.45-27.97c7.67-7.56,16.95-11.34,27.86-11.34s20.19,3.78,27.86,11.34c7.67,7.56,11.45,16.84,11.45,27.97s-3.78,20.41-11.45,27.97c-7.67,7.56-16.95,11.34-27.86,11.34Zm0-9.36c8.35,0,15.26-2.73,20.88-8.35,5.61-5.61,8.49-12.81,8.49-21.59s-2.88-15.98-8.49-21.59c-5.61-5.61-12.52-8.35-20.88-8.35s-15.4,2.74-21.02,8.35c-5.61,5.61-8.35,12.81-8.35,21.59s2.74,15.98,8.35,21.59c5.61,5.61,12.67,8.35,21.02,8.35Zm0-9.79c5.62,0,10.27-1.84,14.05-5.62,3.78-3.78,5.72-8.63,5.72-14.54s-1.94-10.76-5.72-14.54c-3.78-3.78-8.43-5.62-14.05-5.62s-10.37,1.84-14.15,5.62c-3.78,3.78-5.62,8.63-5.62,14.54s1.84,10.76,5.62,14.54,8.53,5.62,14.15,5.62Z"/>
    <path class="cls-1" d="m24.89,77.48h15.16v8.34h-23.82v-37.9h23.55v8.34h-14.89v6.28h13.54v8.23h-13.54v6.71Z"/>
    <path class="cls-8" d="m83.52,85.82h-9.85l-6.39-10.94-6.39,10.94h-9.85l11.32-19.44-10.77-18.46h9.85l5.85,10.02,5.85-10.02h9.85l-10.77,18.46,11.32,19.44Z"/>
    <path class="cls-10" d="m105.67,47.92c3.74,0,6.88,1.25,9.42,3.79,2.54,2.54,3.84,5.58,3.84,9.2s-1.3,6.66-3.84,9.2c-2.54,2.54-5.68,3.79-9.42,3.79h-5.69v11.91h-8.66v-37.9h14.35Zm0,17.87c2.65,0,4.6-2.11,4.6-4.87s-1.95-4.87-4.6-4.87h-5.69v9.75h5.69Z"/>
    <path class="cls-5" d="m135.98,77.48h13.54v8.34h-22.2v-37.9h8.66v29.56Z"/>
    <path class="cls-9" d="m264.53,85.82l-7.15-12.45h-4.11v12.45h-8.66v-37.9h15.16c3.63,0,6.66,1.25,9.2,3.79s3.79,5.58,3.79,9.2c0,4.6-2.82,8.83-6.98,10.99l8.07,13.91h-9.31Zm-11.26-29.78v9.75h6.5c2.38,0,4.33-2.11,4.33-4.87s-1.95-4.87-4.33-4.87h-6.5Z"/>
    <path class="cls-2" d="m291.52,77.48h15.16v8.34h-23.82v-37.9h23.55v8.34h-14.89v6.28h13.54v8.23h-13.54v6.71Z"/>
  </g>
</svg>
