<?xml version="1.0" encoding="utf-8"?>
<!-- Generator: Adobe Illustrator 28.0.0, SVG Export Plug-In . SVG Version: 6.00 Build 0)  -->
<svg version="1.1" id="Layer_1" xmlns="http://www.w3.org/2000/svg" xmlns:xlink="http://www.w3.org/1999/xlink" x="0px" y="0px"
	 viewBox="0 0 379 148" style="enable-background:new 0 0 379 148;" xml:space="preserve">
<style type="text/css">
	.st0{fill:#C16B49;}
	.st1{fill:#FFFFFF;}
</style>
<g>
	<rect class="st0" width="379" height="148"/>
	<g>
		<g>
			<g>
				<g>
					<g>
						<g>
							<path class="st1" d="M101.3,60.2v9.9c0,2.6-1.3,4-4,4H81.5c-2.6,0-4-1.3-4-4V48.3c0-2.6,1.3-4,4-4h19.8v5.9H83.5v17.8h11.9
								v-5.9h-7.9l2-5.9h7.9C100,56.3,101.3,57.6,101.3,60.2z"/>
						</g>
						<g>
							<path class="st1" d="M105.3,74.1V48.3c0-2.6,1.3-4,4-4h15.9c2.6,0,4,1.3,4,4v25.8h-5.9v-7.9h-11.9v7.9H105.3z M123.1,50.3
								h-11.9v9.9h11.9V50.3z M114.8,77.8c0,0.6,0.2,1.2,0.6,1.6s1,0.6,1.8,0.6c0.7,0,1.3-0.2,1.8-0.6s0.6-1,0.6-1.6
								c0-0.6-0.2-1.2-0.6-1.6s-1-0.6-1.8-0.6c-0.7,0-1.3,0.2-1.7,0.6S114.8,77.2,114.8,77.8z"/>
						</g>
						<g>
							<path class="st1" d="M150.9,50.3H139v17.8h13.9v5.9H137c-2.6,0-4-1.3-4-4V48.3c0-2.6,1.3-4,4-4h15.9L150.9,50.3z"/>
						</g>
						<g>
							<path class="st1" d="M162.7,44.4v11.9h11.9V44.4h5.9v29.7h-5.9V62.2h-11.9v11.9h-5.9V44.4H162.7z"/>
						</g>
						<g>
							<path class="st1" d="M222.2,60.2v9.9c0,2.6-1.3,4-4,4h-15.9c-2.6,0-4-1.3-4-4V48.3c0-2.6,1.3-4,4-4h19.8v5.9h-17.8v17.8h11.9
								v-5.9h-7.9l2-5.9h7.9C220.9,56.3,222.2,57.6,222.2,60.2z"/>
						</g>
						<g>
							<path class="st1" d="M226.2,74.1V48.3c0-2.6,1.3-4,4-4H246c2.6,0,4,1.3,4,4v25.8H244v-7.9h-11.9v7.9H226.2z M244,50.3h-11.9
								v9.9H244V50.3z M235.6,77.8c0,0.6,0.2,1.2,0.6,1.6c0.4,0.4,1,0.6,1.8,0.6c0.7,0,1.3-0.2,1.8-0.6s0.6-1,0.6-1.6
								c0-0.6-0.2-1.2-0.6-1.6s-1-0.6-1.8-0.6c-0.7,0-1.3,0.2-1.7,0.6C235.9,76.6,235.6,77.2,235.6,77.8z"/>
						</g>
						<g>
							<path class="st1" d="M271.7,50.3h-11.9v17.8h13.9v5.9h-15.9c-2.6,0-4-1.3-4-4V48.3c0-2.6,1.3-4,4-4h15.9L271.7,50.3z"/>
						</g>
						<g>
							<path class="st1" d="M283.6,44.4v11.9h11.9V44.4h5.9v29.7h-5.9V62.2h-11.9v11.9h-5.9V44.4H283.6z"/>
						</g>
					</g>
					<g>
						<g>
							<line class="st1" x1="77.5" y1="83.8" x2="301.4" y2="83.8"/>
						</g>
						<g>
							<rect x="77.5" y="83" class="st1" width="223.9" height="1.6"/>
						</g>
					</g>
					<g>
						<g>
							<path class="st1" d="M133.9,103V93c0-0.2,0.1-0.3,0.3-0.3h4.4c0.7,0,1.4,0.2,2,0.5c0.6,0.3,1,0.8,1.4,1.3
								c0.3,0.6,0.5,1.2,0.5,1.9c0,1.3-0.5,2.2-1.5,2.9l1.9,3.7c0,0.1,0,0.1,0,0.2c0,0.1,0,0.1-0.1,0.2c0,0-0.1,0.1-0.2,0.1h-2.9
								c-0.2,0-0.3-0.1-0.4-0.2l-1.4-3.1h-0.2H137v3c0,0.2-0.1,0.3-0.3,0.3h-2.5C134,103.4,133.9,103.3,133.9,103z M139,97.1
								c0.2-0.2,0.3-0.4,0.3-0.7c0-0.3-0.1-0.5-0.3-0.7c-0.2-0.2-0.4-0.2-0.6-0.2H137v2h1.3C138.6,97.4,138.8,97.3,139,97.1z"/>
						</g>
						<g>
							<path class="st1" d="M148.5,102.9c-0.7-0.4-1.3-1-1.7-1.8c-0.4-0.7-0.6-1.5-0.6-2.4c0-0.9,0.2-1.7,0.6-2.4
								c0.4-0.7,0.9-1.3,1.7-1.8c0.7-0.4,1.5-0.7,2.4-0.7c1,0,1.8,0.2,2.6,0.6c0.7,0.4,1.3,1,1.6,1.7c0.4,0.7,0.6,1.6,0.6,2.5
								c0,0.3,0,0.5,0,0.7c0,0.2-0.1,0.3-0.3,0.3h-6c0.2,0.4,0.4,0.7,0.8,0.9c0.3,0.2,0.7,0.3,1.2,0.3c0.3,0,0.5,0,0.8-0.1
								c0.2-0.1,0.5-0.2,0.7-0.3c0.1-0.1,0.1-0.1,0.2-0.1c0.1,0,0.2,0,0.2,0.1l1.1,1.6c0,0.1,0.1,0.1,0.1,0.2c0,0.1,0,0.2-0.1,0.2
								c-0.4,0.3-0.9,0.6-1.4,0.7c-0.5,0.2-1.1,0.3-1.7,0.3C150.1,103.6,149.2,103.4,148.5,102.9z M152,96.8
								c-0.3-0.2-0.6-0.3-1.1-0.3c-0.4,0-0.8,0.1-1.1,0.3c-0.3,0.2-0.5,0.5-0.7,0.9h3.5C152.5,97.2,152.3,96.9,152,96.8z"/>
						</g>
						<g>
							<path class="st1" d="M161.1,103.2c-0.6-0.2-1.2-0.6-1.8-1.1c-0.1-0.1-0.1-0.2-0.1-0.2c0-0.1,0-0.1,0.1-0.2l1.1-1.4
								c0.1-0.1,0.1-0.1,0.2-0.1c0.1,0,0.1,0,0.2,0.1c0.3,0.2,0.7,0.4,1.1,0.5c0.4,0.1,0.8,0.2,1.1,0.2c0.2,0,0.3,0,0.4-0.1
								c0.1,0,0.1-0.1,0.1-0.2c0-0.1-0.1-0.2-0.3-0.4c-0.2-0.1-0.5-0.3-1-0.5c-0.8-0.3-1.4-0.6-1.9-1.1c-0.5-0.5-0.7-1.1-0.7-1.9
								c0-0.5,0.1-1,0.4-1.4c0.3-0.4,0.6-0.8,1.2-1.1c0.5-0.3,1.2-0.4,1.9-0.4c0.5,0,1.1,0.1,1.6,0.3c0.5,0.2,1,0.5,1.5,0.9
								c0.1,0.1,0.1,0.1,0.1,0.2c0,0.1,0,0.2-0.1,0.2l-1.4,1.5c-0.1,0.1-0.1,0.1-0.2,0.1c-0.1,0-0.2,0-0.2-0.1
								c-0.2-0.1-0.4-0.3-0.6-0.3c-0.2-0.1-0.5-0.1-0.7-0.1c-0.4,0-0.5,0.1-0.5,0.3c0,0.1,0,0.1,0.1,0.2c0.1,0.1,0.2,0.1,0.4,0.2
								c0.2,0.1,0.5,0.2,0.8,0.3c0.8,0.3,1.5,0.6,1.9,1.1c0.4,0.4,0.7,1.1,0.7,1.8c0,0.5-0.1,1-0.4,1.4c-0.3,0.5-0.6,0.8-1.1,1.1
								c-0.5,0.3-1.1,0.4-1.8,0.4C162.4,103.6,161.7,103.5,161.1,103.2z"/>
						</g>
						<g>
							<path class="st1" d="M173.5,103.3c-0.1,0.1-0.1,0.1-0.2,0.1h-2.3c-0.1,0-0.2,0-0.2-0.1c-0.1-0.1-0.1-0.1-0.1-0.2v-6.2H170
								c-0.1,0-0.2,0-0.2-0.1c-0.1-0.1-0.1-0.1-0.1-0.2v-2.1c0-0.2,0.1-0.3,0.3-0.3h0.6v-1.7c0-0.2,0.1-0.3,0.3-0.4l2.4-0.5
								c0,0,0,0,0.1,0c0.1,0,0.1,0,0.2,0.1c0,0.1,0.1,0.1,0.1,0.2v2.2h1.3c0.2,0,0.3,0.1,0.3,0.3v2.1c0,0.1,0,0.2-0.1,0.2
								c-0.1,0.1-0.1,0.1-0.2,0.1h-1.3v6.2C173.6,103.1,173.5,103.2,173.5,103.3z"/>
						</g>
						<g>
							<path class="st1" d="M185.9,94.2c0.1,0,0.1-0.1,0.2-0.1h1.7c0.2,0,0.3,0.1,0.3,0.3v8.6c0,0.1,0,0.2-0.1,0.2
								c-0.1,0.1-0.1,0.1-0.2,0.1H186c-0.2,0-0.3-0.1-0.4-0.2l-0.2-0.2c-0.6,0.4-1.3,0.6-2.1,0.6c-0.9,0-1.7-0.2-2.4-0.7
								c-0.7-0.4-1.3-1-1.8-1.8c-0.4-0.7-0.7-1.5-0.7-2.4c0-0.9,0.2-1.7,0.7-2.4c0.4-0.7,1-1.3,1.8-1.7c0.7-0.4,1.6-0.6,2.4-0.6
								c0.8,0,1.6,0.2,2.2,0.6l0.3-0.2C185.8,94.2,185.8,94.2,185.9,94.2z M184.4,100.5c0.3-0.2,0.5-0.4,0.7-0.7
								c0.2-0.3,0.3-0.6,0.3-1c0-0.4-0.1-0.7-0.3-1c-0.2-0.3-0.4-0.5-0.7-0.7c-0.3-0.2-0.6-0.3-1-0.3c-0.4,0-0.7,0.1-1,0.3
								c-0.3,0.2-0.5,0.4-0.7,0.7c-0.2,0.3-0.3,0.6-0.3,1c0,0.4,0.1,0.7,0.3,1c0.2,0.3,0.4,0.5,0.7,0.7c0.3,0.2,0.6,0.2,1,0.2
								C183.7,100.7,184,100.6,184.4,100.5z"/>
						</g>
						<g>
							<path class="st1" d="M199.5,94.1h2.3c0.2,0,0.3,0.1,0.3,0.3v8.6c0,0.2-0.1,0.3-0.3,0.3H200c-0.2,0-0.3-0.1-0.4-0.2l-0.4-0.7
								c-0.4,0.3-0.8,0.6-1.3,0.8c-0.5,0.2-1,0.3-1.4,0.3c-0.8,0-1.4-0.2-2-0.5c-0.6-0.3-1-0.8-1.3-1.5c-0.3-0.6-0.5-1.4-0.5-2.2
								v-4.9c0-0.2,0.1-0.3,0.3-0.3h2.3c0.2,0,0.3,0.1,0.3,0.3V99c0,0.4,0.1,0.7,0.2,0.9c0.1,0.3,0.3,0.5,0.6,0.6
								c0.2,0.2,0.5,0.2,0.8,0.2c0.3,0,0.7-0.1,0.9-0.2c0.3-0.2,0.5-0.4,0.7-0.6c0.2-0.3,0.2-0.5,0.2-0.8v-4.7
								C199.1,94.2,199.2,94.1,199.5,94.1z"/>
						</g>
						<g>
							<path class="st1" d="M214,94.5c0.1,0.1,0.2,0.2,0.2,0.3c0,0.1,0,0.1-0.1,0.2l-1,1.9c-0.1,0.1-0.1,0.2-0.2,0.2
								c-0.1,0-0.1,0-0.2-0.1c-0.3-0.2-0.7-0.3-1-0.3c-0.3,0-0.6,0.1-0.8,0.2c-0.3,0.2-0.5,0.4-0.7,0.7c-0.2,0.3-0.3,0.7-0.3,1.2
								v4.1c0,0.1,0,0.2-0.1,0.2c-0.1,0.1-0.1,0.1-0.2,0.1h-2.3c-0.1,0-0.2,0-0.2-0.1c-0.1-0.1-0.1-0.1-0.1-0.2v-8.6
								c0-0.2,0.1-0.3,0.3-0.3h1.8c0.2,0,0.3,0.1,0.4,0.2l0.5,0.7c0.2-0.4,0.6-0.6,0.9-0.8c0.4-0.2,0.8-0.3,1.3-0.3
								C212.7,93.9,213.4,94.1,214,94.5z"/>
						</g>
						<g>
							<path class="st1" d="M224.3,94.2c0.1,0,0.1-0.1,0.2-0.1h1.7c0.2,0,0.3,0.1,0.3,0.3v8.6c0,0.1,0,0.2-0.1,0.2
								c-0.1,0.1-0.1,0.1-0.2,0.1h-1.8c-0.2,0-0.3-0.1-0.4-0.2l-0.2-0.2c-0.6,0.4-1.3,0.6-2.1,0.6c-0.9,0-1.7-0.2-2.4-0.7
								c-0.7-0.4-1.3-1-1.8-1.8c-0.4-0.7-0.7-1.5-0.7-2.4c0-0.9,0.2-1.7,0.7-2.4c0.4-0.7,1-1.3,1.8-1.7c0.7-0.4,1.6-0.6,2.4-0.6
								c0.8,0,1.6,0.2,2.2,0.6l0.3-0.2C224.2,94.2,224.3,94.2,224.3,94.2z M222.8,100.5c0.3-0.2,0.5-0.4,0.7-0.7
								c0.2-0.3,0.3-0.6,0.3-1c0-0.4-0.1-0.7-0.3-1c-0.2-0.3-0.4-0.5-0.7-0.7c-0.3-0.2-0.6-0.3-1-0.3c-0.4,0-0.7,0.1-1,0.3
								c-0.3,0.2-0.5,0.4-0.7,0.7c-0.2,0.3-0.3,0.6-0.3,1c0,0.4,0.1,0.7,0.3,1c0.2,0.3,0.4,0.5,0.7,0.7c0.3,0.2,0.6,0.2,1,0.2
								C222.2,100.7,222.5,100.6,222.8,100.5z"/>
						</g>
						<g>
							<path class="st1" d="M239,94.5c0.6,0.3,1,0.8,1.3,1.5c0.3,0.6,0.5,1.4,0.5,2.2v4.9c0,0.2-0.1,0.3-0.3,0.3h-2.3
								c-0.2,0-0.3-0.1-0.3-0.3v-4.6c0-0.4-0.1-0.7-0.2-1c-0.1-0.3-0.3-0.5-0.6-0.6c-0.2-0.2-0.5-0.2-0.8-0.2
								c-0.3,0-0.7,0.1-0.9,0.2c-0.3,0.2-0.5,0.4-0.7,0.6c-0.2,0.3-0.2,0.5-0.2,0.8v4.7c0,0.1,0,0.2-0.1,0.2
								c-0.1,0.1-0.1,0.1-0.2,0.1h-2.3c-0.1,0-0.2,0-0.2-0.1c-0.1-0.1-0.1-0.1-0.1-0.2v-8.6c0-0.2,0.1-0.3,0.3-0.3h1.8
								c0.2,0,0.3,0.1,0.4,0.2l0.4,0.7c0.4-0.3,0.8-0.6,1.3-0.8c0.5-0.2,1-0.3,1.4-0.3C237.8,93.9,238.4,94.1,239,94.5z"/>
						</g>
						<g>
							<path class="st1" d="M248.2,103.3c-0.1,0.1-0.1,0.1-0.2,0.1h-2.3c-0.1,0-0.2,0-0.2-0.1c-0.1-0.1-0.1-0.1-0.1-0.2v-6.2h-0.6
								c-0.1,0-0.2,0-0.2-0.1c-0.1-0.1-0.1-0.1-0.1-0.2v-2.1c0-0.2,0.1-0.3,0.3-0.3h0.6v-1.7c0-0.2,0.1-0.3,0.3-0.4l2.4-0.5
								c0,0,0,0,0.1,0c0.1,0,0.1,0,0.2,0.1c0,0.1,0.1,0.1,0.1,0.2v2.2h1.3c0.2,0,0.3,0.1,0.3,0.3v2.1c0,0.1,0,0.2-0.1,0.2
								c-0.1,0.1-0.1,0.1-0.2,0.1h-1.3v6.2C248.3,103.1,248.3,103.2,248.2,103.3z"/>
						</g>
					</g>
				</g>
			</g>
		</g>
	</g>
</g>
</svg>
