<?xml version="1.0" encoding="UTF-8"?>
<svg id="Layer_1" data-name="Layer 1" xmlns="http://www.w3.org/2000/svg" xmlns:xlink="http://www.w3.org/1999/xlink" viewBox="0 0 595.28 595.28">
  <defs>
    <style>
      .cls-1 {
        fill: url(#linear-gradient);
      }

      .cls-1, .cls-2, .cls-3, .cls-4, .cls-5, .cls-6, .cls-7 {
        stroke-width: 0px;
      }

      .cls-2 {
        fill: #779741;
      }

      .cls-3 {
        fill: #8d7236;
      }

      .cls-4, .cls-8, .cls-9 {
        fill: none;
      }

      .cls-10 {
        filter: url(#drop-shadow-6);
      }

      .cls-5 {
        fill: url(#linear-gradient-2);
      }

      .cls-11 {
        filter: url(#drop-shadow-2);
      }

      .cls-6 {
        fill: url(#linear-gradient-3);
      }

      .cls-7 {
        fill: #02564a;
      }

      .cls-12 {
        clip-path: url(#clippath);
      }

      .cls-8 {
        stroke: #bba274;
        stroke-width: 6.84px;
      }

      .cls-8, .cls-9 {
        stroke-miterlimit: 10;
      }

      .cls-9 {
        stroke: #8d7236;
        stroke-width: 8.55px;
      }
    </style>
    <clipPath id="clippath">
      <circle class="cls-4" cx="915.27" cy="298.95" r="258.13"/>
    </clipPath>
    <filter id="drop-shadow-2" filterUnits="userSpaceOnUse">
      <feOffset dx="30.93" dy="30.93"/>
      <feGaussianBlur result="blur" stdDeviation="22.09"/>
      <feFlood flood-color="#010101" flood-opacity=".5"/>
      <feComposite in2="blur" operator="in"/>
      <feComposite in="SourceGraphic"/>
    </filter>
    <linearGradient id="linear-gradient" x1="638.33" y1="-2267.69" x2="744.41" y2="-2267.69" gradientTransform="translate(-1425.51 1501.41) rotate(46.14)" gradientUnits="userSpaceOnUse">
      <stop offset="0" stop-color="#faddce"/>
      <stop offset="1" stop-color="#ee9f7b"/>
    </linearGradient>
    <filter id="drop-shadow-6" filterUnits="userSpaceOnUse">
      <feOffset dx="-37.35" dy="37.35"/>
      <feGaussianBlur result="blur-2" stdDeviation="26.68"/>
      <feFlood flood-color="#010101" flood-opacity=".5"/>
      <feComposite in2="blur-2" operator="in"/>
      <feComposite in="SourceGraphic"/>
    </filter>
    <linearGradient id="linear-gradient-2" x1="-3470.08" y1="1353.44" x2="-3271.25" y2="1353.44" gradientTransform="translate(-2649.01 1465) rotate(178.96)" xlink:href="#linear-gradient"/>
    <linearGradient id="linear-gradient-3" x1="-3154.91" y1="-495.85" x2="-3196.31" y2="-742.21" gradientTransform="translate(-711.34 2953.91) rotate(104.93)" xlink:href="#linear-gradient"/>
  </defs>
  <g>
    <g>
      <path class="cls-8" d="m329.37,349.71s12.29-23.9,47.85-14.6"/>
      <g>
        <g>
          <path class="cls-8" d="m352.14,261.06c5.69,1.24,11.6,3.22,17.59,6.17,36.31,17.87,69.02,27.38,106.62-3.97"/>
          <path class="cls-8" d="m397.8,278.99s43.61,25.44,42.3,66.11"/>
          <path class="cls-8" d="m358.43,262.74s40.01,3.49,55.83-32.4"/>
        </g>
        <g>
          <path class="cls-2" d="m412.65,263.22s32.57,14.04,47.22-20.03c0,0-32.65-12.77-47.22,20.03Z"/>
          <path class="cls-2" d="m424.12,222.08s35.46.3,35.75-36.77c0,0-35.05.9-35.75,36.77Z"/>
        </g>
      </g>
      <path class="cls-2" d="m386.53,357.3s31.37-6.5,24.55-39.29c0,0-30.77,7.47-24.55,39.29Z"/>
      <path class="cls-2" d="m399.5,295.15s-33.75-10.91-45.12,24.38c0,0,33.71,9.64,45.12-24.38Z"/>
      <path class="cls-2" d="m384.15,380.62s-15.28-32.01-48.73-15.99c0,0,16.18,31.1,48.73,15.99Z"/>
      <path class="cls-2" d="m199.44,318.37s30.43,7.85,38.61-23.97c0,0-30.32-6.73-38.61,23.97Z"/>
      <path class="cls-2" d="m237.07,247.07s1.09-29.61-29.86-30.72c0,0-.08,29.28,29.86,30.72Z"/>
      <path class="cls-2" d="m156.1,321.84s29.6-10.55,18.53-41.49c0,0-28.88,11.43-18.53,41.49Z"/>
      <path class="cls-2" d="m178.83,197.14s-28.67-12.86-42.08,17.14c0,0,28.76,11.73,42.08-17.14Z"/>
      <path class="cls-2" d="m168.24,231.86s-31.42-.72-32.15,32.12c0,0,31.06-.34,32.15-32.12Z"/>
      <path class="cls-8" d="m284.07,234.6s-16.83,24.35-70.38,26.64c-53.54,2.29-73.94,20.57-84.78,39.54"/>
      <path class="cls-8" d="m173.17,366.03s.87-74.65,54.06-105.99"/>
      <path class="cls-8" d="m230.1,201.8s-34.97-2.19-44.81,25.31"/>
      <path class="cls-2" d="m269.54,297.17s34.73-7.2,27.16-43.5c0,0-34.07,8.29-27.16,43.5Z"/>
      <path class="cls-2" d="m326.66,306.7s21.64-28.11-7.77-50.7c0,0-20.42,28.5,7.77,50.7Z"/>
      <path class="cls-8" d="m255.33,252.87s-35.66,76.16,59.1,107.18"/>
      <path class="cls-2" d="m291.77,296.29s-16.21,31.55,16.8,48.46c0,0,14.94-31.71-16.8-48.46Z"/>
      <path class="cls-2" d="m308.52,159.7s-17.83-18.9-37.56-.24c0,0,18.25,18.07,37.56.24Z"/>
      <path class="cls-2" d="m410.89,114.42s-24.58,8.37-15.81,34.07c0,0,24.01-9.1,15.81-34.07Z"/>
      <path class="cls-2" d="m355.43,125.46s-3.31,31.25,29.37,34.67c0,0,2.21-30.98-29.37-34.67Z"/>
      <path class="cls-2" d="m368.59,81.12s-16.72,26.61,11.11,44.06c0,0,15.62-26.86-11.11-44.06Z"/>
      <path class="cls-2" d="m311.78,182.2s6.68,30.71,38.77,23.7c0,0-7.63-30.1-38.77-23.7Z"/>
      <path class="cls-8" d="m351.28,60.17s-39.76,85.06,18.61,135.35"/>
      <path class="cls-8" d="m295.48,110.22s.75,36.61,47.71,48.4"/>
      <path class="cls-2" d="m253.58,143.69s24.08,9.73,34.23-15.46c0,0-24.12-8.8-34.23,15.46Z"/>
      <path class="cls-2" d="m318.5,87.19s-15.11-27.55-43.9-11.72c0,0,15.86,26.71,43.9,11.72Z"/>
      <path class="cls-2" d="m231.02,104.4s-28.86-12.44-41.83,17.74c0,0,28.93,11.32,41.83-17.74Z"/>
      <path class="cls-2" d="m219.21,139.3s-31.42-.27-31.67,32.58c0,0,31.05-.79,31.67-32.58Z"/>
      <path class="cls-8" d="m339.22,99.8s-41.59,20.47-73.76,4.64c-32.17-15.83-56.61-32.41-89.93-4.64"/>
      <path class="cls-8" d="m275.47,108.42s-70.36,13.14-32.37,103.24"/>
      <path class="cls-2" d="m156.36,151.24s24.08,9.73,34.23-15.45c0,0-24.12-8.8-34.23,15.45Z"/>
      <path class="cls-2" d="m253.8,180.89s.7,31.41,33.55,30.64c0,0-1.76-31.01-33.55-30.64Z"/>
      <path class="cls-8" d="m286.67,181.47s36.77,18.23,27.83,56.6"/>
      <path class="cls-2" d="m333.1,384.77s-28.86-12.44-41.83,17.74c0,0,28.92,11.31,41.83-17.74Z"/>
      <path class="cls-2" d="m237.19,386.47s31.12-15.63,14.75-48.14c0,0-30.21,16.49-14.75,48.14Z"/>
      <path class="cls-2" d="m198.44,360.08s31.42.03,31.42-32.82c0,0-31.04,1.03-31.42,32.82Z"/>
      <path class="cls-9" d="m479.5,234.75c0-100.45-81.42-181.87-181.87-181.87S115.77,134.3,115.77,234.75s81.43,181.85,181.86,181.85,181.87-81.42,181.87-181.85Z"/>
      <path class="cls-9" d="m125.01,179.4c28.73-10.55,67.82-8.75,114.48,29.75,0,0,28.76,30.03,89.88,27.99,45.45-1.52,98.78-25.27,110.27-90.75l-10.34,1.72c-63.18,17.23-76.24,78.01-76.95,126.72-.58,39.83-16.51,88.04-66.75,102.19-21.7,6.1-36.05,18.69-45.5,31.78"/>
    </g>
    <g>
      <path class="cls-3" d="m205.49,469.39h9.27v48.06c0,19.08-9.38,24.94-21.74,24.94-3.41,0-7.57-.74-9.91-1.7l1.39-7.57c1.92.74,4.69,1.38,7.78,1.38,8.31,0,13.21-3.72,13.21-17.79v-47.32Z"/>
      <path class="cls-3" d="m252.61,529.93c4.16,2.56,10.23,4.69,16.63,4.69,9.49,0,15.03-5.01,15.03-12.25,0-6.72-3.84-10.55-13.54-14.28-11.73-4.16-18.97-10.23-18.97-20.36,0-11.19,9.27-19.5,23.23-19.5,7.35,0,12.68,1.7,15.88,3.51l-2.56,7.57c-2.34-1.27-7.14-3.4-13.64-3.4-9.81,0-13.54,5.86-13.54,10.76,0,6.71,4.37,10.02,14.28,13.86,12.15,4.69,18.33,10.55,18.33,21.1,0,11.08-8.21,20.67-25.15,20.67-6.93,0-14.49-2.02-18.33-4.58l2.34-7.78Z"/>
      <path class="cls-3" d="m306.97,470.25c4.48-.75,10.34-1.39,17.8-1.39,9.16,0,15.88,2.13,20.14,5.97,3.94,3.41,6.29,8.63,6.29,15.03s-1.92,11.61-5.54,15.34c-4.91,5.22-12.9,7.89-21.96,7.89-2.77,0-5.33-.11-7.46-.64v28.78h-9.27v-70.98Zm9.27,34.64c2.03.53,4.58.75,7.68.75,11.19,0,18.01-5.44,18.01-15.35s-6.71-14.06-16.94-14.06c-4.05,0-7.14.31-8.74.74v27.93Z"/>
      <path class="cls-3" d="m366.89,518.63l-7.46,22.6h-9.59l24.41-71.84h11.19l24.51,71.84h-9.91l-7.67-22.6h-25.47Zm23.55-7.24l-7.03-20.68c-1.59-4.69-2.66-8.95-3.73-13.11h-.21c-1.06,4.27-2.24,8.63-3.62,13l-7.03,20.79h21.64Z"/>
    </g>
  </g>
  <g class="cls-12">
    <g>
      <g class="cls-11">
        <path class="cls-7" d="m792.45,398.67c-9.11-17.57-31.89-15.34-48.27-19.59-.26-.07-.43.14-.45.35-1.73.89-3.22,2.34-4.62,3.65-1.65,1.55-3.2,3.21-4.68,4.92-.31.36-.61.72-.91,1.09-1,1.03-2.08,2.44-3.12,3.96-.37.5-.75.99-1.12,1.49,2.5-5.26,4.2-10.91,7.19-15.93.41.05.58-.58.14-.7-.75-.2-1.49-.4-2.23-.59,0,0,0,0,0-.01,0-.02-.02-.03-.03-.01,0,0,0,.01-.01.01-1.65-.43-3.31-.8-5.03-.96-3.3-.3-6.61-.3-9.91.04-8.16.85-16.41,2.29-24.4,4.13-.06.01-.07.08-.06.13-1.8,2.16-2.86,4.96-4.24,7.39-1.67,2.93-3.42,5.42-5.8,7.82-.64.65-1.13,1.31-1.54,2,.68-2.43,1.12-4.94,1.96-7.34,1.06-3.05,2.45-5.94,3.93-8.81.08,0,.15-.01.23-.01.06,0,.07-.09,0-.1-.07,0-.14,0-.22,0-.03-.07-.13-.11-.19-.02,0,0,0,0,0,.01-11.11-.54-21.76,4.81-31.54,9.44-3.04,1.44-6,3.02-8.73,4.99-2.55,1.84-4.66,4.1-6.85,6.34-2.45,2.5-5.18,4.28-7.98,6.32-2.32,1.69-3.56,3.61-4.38,6.32-2,6.66-5.98,12.28-10.81,17.19-12.98,6.45-25.65,14.45-36.05,24.52-.1.1-.03.23.07.26-.05.6.3,1.32.63,1.78.52.72,1.24,1.18,2.12,1.23.06.07.16.1.27.03,1.37-1.07,2.71-2.18,4.06-3.28,3.01-2.19,7.13-5.16,10.49-7.52,1.26-.79,2.54-1.57,3.82-2.33,5.9-3.49,11.95-6.73,18.08-9.78.22-.11.44-.21.66-.32.28-.04.56-.1.83-.18,4.33,2.46,8.62,4.94,12.83,7.59,4.78,3.01,9.61,6.91,15.13,8.45,2.74.77,5.6.81,8.42.8,3.03-.01,6.07-.07,9.1-.14,5.94-.15,11.87-.44,17.76-1.26,6.46-.9,13.12-2.51,19.04-5.3.01,0,0-.02.01-.03,0,0,0,0,0,0,.89-1.65,1.98-3.31,2.32-5.18.38-2.04.1-4.3.05-6.36-.09-4.38.09-8.9-.29-13.29.94,4.42,2.58,8.84,4.24,12.99,1.43,3.59,3.38,8.71,7.5,9.91.09.03.16-.04.18-.12,4.74-.58,9.53-2.08,14.16-3.21.23-.05.26-.43.01-.48-4.02-.85-5.5-4.91-6.47-8.43-.79-2.87-1.14-5.84-1.89-8.72,3.25,6.8,8.54,12.4,15.04,16.24.09.05.21.04.28-.03,2.38-2.15,5.33-3.24,8.19-4.56,2.24-1.04,4.42-2.01,6.75-2.81,2.03-.7,4.1-1.39,5.96-2.49,2.2-1.31,4.08-3.31,6-4.99,4.52-3.94,8.98-7.95,13.19-12.24,4.15-4.22,8.42-8.88,11.28-14.11.05-.09-.04-.19-.13-.18Z"/>
        <g>
          <path class="cls-7" d="m585.73,459.77s-.48-1.76.1-2.84c.58-1.08,7.76-7.53,24.37-17.75,16.61-10.21,57.64-22.11,66.65-24.61,9-2.51,37.45-8.11,37.45-8.11l35.28-4.86-52.47,9.32s-35.47,8.64-49.67,14.4c-14.19,5.76-39.68,18.75-45.75,22.97-6.07,4.22-15.96,11.47-15.96,11.47Z"/>
          <path class="cls-1" d="m781.29,412.95c4.15-4.22,8.42-8.88,11.28-14.11.05-.09-.04-.19-.13-.18-9.11-17.57-31.89-15.34-48.27-19.59-.26-.07-.43.14-.45.35-1.73.89-3.22,2.34-4.62,3.65-1.65,1.55-3.2,3.21-4.68,4.92-1.82,2.1-3.5,4.32-5.16,6.54,2.5-5.26,4.2-10.91,7.19-15.93.41.05.58-.58.14-.7-.75-.2-1.49-.4-2.23-.59,0,0,0,0,0-.01,0-.02-.02-.03-.03-.01,0,0,0,.01-.01.01-1.65-.43-3.31-.8-5.03-.96-3.3-.3-6.61-.3-9.91.04-8.16.85-16.41,2.29-24.4,4.13-.06.01-.07.08-.06.13-1.8,2.16-2.86,4.96-4.24,7.39-1.67,2.93-3.42,5.42-5.8,7.82-.64.65-1.13,1.31-1.54,2,.68-2.43,1.12-4.94,1.96-7.34,1.06-3.05,2.45-5.94,3.93-8.81.08,0,.15-.01.23-.01.06,0,.07-.09,0-.1-.07,0-.14,0-.22,0-.03-.07-.13-.11-.19-.02,0,0,0,0,0,.01-11.11-.54-21.76,4.81-31.54,9.44-3.04,1.44-6,3.02-8.73,4.99-2.55,1.84-4.66,4.1-6.85,6.34-2.45,2.5-5.18,4.28-7.98,6.32-2.32,1.69-3.56,3.61-4.38,6.32-2,6.66-5.98,12.28-10.81,17.19-12.98,6.45-25.65,14.45-36.05,24.52-.1.1-.03.23.07.26-.05.6.3,1.32.63,1.78.52.72,1.24,1.18,2.12,1.23.06.07.16.1.27.03,3.04-2.37,5.91-4.93,9.06-7.17,3-2.13,6.14-4.08,9.3-5.96,5.9-3.49,11.95-6.73,18.08-9.78.22-.11.44-.21.66-.32.28-.04.56-.1.83-.18,4.33,2.46,8.62,4.94,12.83,7.59,4.78,3.01,9.61,6.91,15.13,8.45,2.74.77,5.6.81,8.42.8,3.03-.01,6.07-.07,9.1-.14,5.94-.15,11.87-.44,17.76-1.26,6.46-.9,13.12-2.51,19.04-5.3.01,0,0-.02,0-.03,0,0,0,0,0,0,.89-1.65,1.98-3.31,2.32-5.18.38-2.04.1-4.3.05-6.36-.09-4.38.09-8.9-.29-13.29.94,4.42,2.58,8.84,4.24,12.99,1.43,3.59,3.38,8.71,7.5,9.91.09.03.16-.04.18-.12,4.74-.58,9.53-2.08,14.16-3.21.23-.05.26-.43.01-.48-4.02-.85-5.5-4.91-6.47-8.43-.79-2.87-1.14-5.84-1.89-8.72,3.25,6.8,8.54,12.4,15.04,16.24.09.05.21.04.28-.03,2.38-2.15,5.33-3.24,8.19-4.56,2.24-1.04,4.42-2.01,6.75-2.81,2.03-.7,4.1-1.39,5.96-2.49,2.2-1.31,4.08-3.31,6-4.99,4.52-3.94,8.98-7.95,13.19-12.24Zm-41.96-29.18c1.48-1.4,3.2-2.58,4.63-4.01,0,0,.02.01.02.01,16.63,4.31,38.57,1.54,48.39,18.92-1.37,0-2.74.03-4.11.05-.6,0-1.19,0-1.79.02-.25,0-.49,0-.74,0,.66-.31,1.27-.87,1.84-1.28.8-.56,1.58-1.13,2.35-1.74.01-.01,0-.03-.02-.03-.99.51-1.95,1.05-2.91,1.62-.71.42-1.54.74-2.01,1.43-.96.02-1.92.01-2.87.03,1.65-1.47,3.27-3.87,5.42-4.57.04-.01.04-.09,0-.08-.95.05-1.6.58-2.31,1.17-1.19,1-2.4,1.98-3.53,3.05-.16.15-.1.34.03.44-.92.02-1.83.06-2.74.08,2.11-2.3,4.32-4.35,6.79-6.31.04-.03-.01-.1-.06-.08-2.89,1.6-5.55,3.86-7.64,6.41-.62.02-1.24.04-1.86.06,2.6-2.77,4.5-6.09,7.46-8.55.04-.03-.01-.11-.06-.08-3.42,2.07-5.4,5.83-8.15,8.65-.68.02-1.36.04-2.04.07,2.99-3.05,4.46-7.2,7.7-10.08.04-.03-.01-.1-.05-.07-3.69,2.45-5.38,6.99-8.38,10.13-.01.01-.02.03-.03.04-.66.03-1.31.04-1.97.06,0-.02.01-.03.02-.04.16-.27.31-.54.47-.8.32-.53.65-1.06.98-1.59.61-.96,1.25-1.9,1.88-2.85,1.32-1.98,2.9-3.77,4.21-5.75.03-.05-.04-.1-.08-.06-1.8,1.82-3.39,3.93-4.96,5.95-1.15,1.49-2.77,3.36-3.34,5.19-.66.03-1.32.08-1.97.11.52-.3.82-.83,1.18-1.44.68-1.15,1.28-2.35,1.99-3.49,1.59-2.56,3.43-4.85,5.41-7.11.06-.07-.03-.16-.1-.1-1.82,1.69-3.47,3.63-4.97,5.62-.75,1-1.43,2.03-2.09,3.09-.72,1.17-1.64,2.28-2.27,3.48,0,0,0,0,0,0-1.14.06-2.29.12-3.43.19.93-.49,1.35-1.5,1.91-2.36.75-1.14,1.55-2.25,2.38-3.34,1.86-2.43,3.98-4.55,6.11-6.73.05-.05-.02-.12-.07-.08-2.31,1.8-4.38,3.99-6.28,6.21-.84.98-1.64,1.99-2.41,3.03-.7.94-1.65,1.92-1.89,3.07-.03.12.08.21.2.2-1.15.07-2.3.11-3.45.19,1.81-2.41,3.65-4.8,5.56-7.12,1.71-2.07,3.57-4.04,5.19-6.18.01-.02-.01-.04-.03-.02-4.28,3.8-7.97,8.61-11.44,13.15-.06.08-.07.15-.06.22-.55.04-1.11.09-1.66.13.34-.44.6-1.05.83-1.4,1.07-1.58,2.17-3.14,3.32-4.67,2.42-3.23,5.2-6.09,7.81-9.15.01-.02,0-.04-.02-.02-2.59,2.14-4.87,4.78-7.02,7.35-.97,1.16-1.91,2.34-2.81,3.55-.51.68-1,1.37-1.48,2.07-.24.35-.48.7-.71,1.06-.28.33-.43.71-.53,1.13-.02-.02-.04-.04-.08-.05-.03,0-.07-.02-.1-.02-.12-.03-.28.03-.3.17,0,.02,0,.04-.01.07-.88.06-1.76.13-2.64.2.55-.68.91-1.78,1.29-2.42.95-1.61,1.99-3.15,3.08-4.66,2.27-3.13,4.99-5.69,7.54-8.55.01-.01,0-.03-.02-.02-2.78,1.85-5.21,4.59-7.31,7.17-1,1.23-1.93,2.51-2.8,3.84-.46.69-.89,1.4-1.31,2.11-.26.45-.52.89-.77,1.35-.1.18-.2.36-.29.55-.11.11-.13.23-.13.36-.04-.03-.09-.05-.15-.04-.25.06-.33.23-.31.42-1.58.12-3.15.23-4.73.37,1.61-2.13,2.62-4.61,3.75-7.02,1.32-2.8,3.17-5.27,5.03-7.72.01-.01-.01-.03-.02-.02-1.89,2.19-3.78,4.4-5.2,6.93-1.49,2.67-2.83,5.33-4.46,7.91-1,.09-2,.2-3,.29.27-.42.5-.87.79-1.31.48-.71,1.09-1.33,1.57-2.03.97-1.39,1.41-3.12,2.24-4.61,1.86-3.31,4.37-6.06,6.69-9.04.03-.04-.04-.09-.07-.06-2.66,2.6-5.26,5.57-7.15,8.78-.9,1.52-1.42,3.3-2.46,4.73-.82,1.11-1.99,2.23-2.31,3.6-.97.1-1.95.19-2.92.29,1.84-1.28,2.32-3.9,3.38-5.74,1.81-3.15,4.03-6.02,5.95-9.09.02-.02-.02-.05-.04-.03-2.19,2.34-4.02,5.13-5.78,7.8-.73,1.11-1.3,2.2-1.78,3.43-.39.98-.86,1.78-1.59,2.56-.4.43-.73.7-1.01,1.16-.95.1-1.89.19-2.84.3,1.87-3.22,3.88-6.35,6.02-9.39,2.22-3.16,4.74-6.07,7-9.19.01-.02-.02-.04-.03-.02-2.73,2.54-5.08,5.66-7.29,8.66-2.37,3.19-4.5,6.54-6.49,9.98-.01.02-.01.05-.02.07-1.32.15-2.64.32-3.96.48,1.06-.89,1.66-2.37,2.43-3.51,1.13-1.67,2.28-3.34,3.49-4.96,2.49-3.33,5.27-6.33,8-9.45,0-.01,0-.02-.02-.02-3.16,2.62-5.99,5.82-8.55,9.02-1.16,1.44-2.27,2.91-3.3,4.44-.9,1.33-2.35,2.91-2.53,4.53h0c-1.27.16-2.54.3-3.81.46,1.33-1.18,2.1-3.38,3.06-4.87,1.25-1.95,2.61-3.83,4.07-5.62,2.72-3.33,5.77-6.32,8.94-9.22.05-.04-.01-.13-.07-.09-3.66,2.61-6.9,5.81-9.74,9.28-1.31,1.61-2.54,3.27-3.69,5-1.04,1.56-2.77,3.56-2.96,5.46,0,.04,0,.07.02.1-1.04.14-2.08.29-3.12.43,1.28-1.91,2.49-3.89,3.72-5.84,2.26-3.19,4.64-6.31,7.18-9.27,1.34-1.55,2.74-3.05,4.23-4.46Zm31.14,15.86s.02-.05.03-.07c0,0,0-.02,0-.03.12,0,.24,0,.37-.02,0,.03,0,.05.02.07-.14.01-.28.03-.42.04Zm1.62-.17c.2,0,.4-.02.6-.03,0,0,0,0,.01.01-.17.01-.34.02-.51.04-.03,0-.06-.01-.1-.02Zm-35.94-20.91c-4.35,6.02-5.91,13.51-9.74,19.83-.11.17-.05.33.07.43-1.09,1.33-2.08,2.77-2.8,4.25-.07.14-.02.26.07.34-1.42.2-2.84.4-4.26.61,3.05-4.05,5.54-8.49,7.87-12.98,1.18-2.27,2.37-4.53,3.55-6.8,1.06-2.03,2.25-4.06,3.16-6.18.69.15,1.39.32,2.09.5Zm-107.38,41.46c1.16-2.62,1.56-5.93,3.28-8.23,1.92-2.57,5.11-3.85,7.54-5.87,2.47-2.06,4.45-4.62,6.81-6.79,2.45-2.26,5.24-4.06,8.17-5.62,5.16-2.76,10.6-5.17,16.02-7.39,5.9-2.41,12.03-4.1,18.41-4.36-1.67,2.62-3,5.47-4.07,8.38-1.04,2.84-2.25,6.11-2.28,9.17-.46,1.06-.83,2.19-1.26,3.42-1.06,3.06-3.02,5.46-4.7,8.17-.18.29.24.65.48.38,1.79-1.97,3.42-4.29,4.45-6.76.57-1.36.83-2.83,1.25-4.24.55-1.8,1.5-3.15,2.8-4.49,4.22-4.39,6.2-9.98,9.35-15.08,0,0,0,0,0,0,1.31-.12,2.61-.27,3.9-.43-2.66,4.36-5.32,8.67-7.12,13.47-1.85,4.92-3.28,9.98-5.48,14.76-.07.15.12.25.21.13,3.1-4.09,4.08-9.13,5.49-13.96.79-2.71,1.87-5.29,3.29-7.73,1.27-2.17,2.9-4.28,3.7-6.68,6.4-.8,12.73-2.02,19.14-2.86,5.39-.7,10.52-.49,15.71.61-1.25,1.9-2.29,3.99-3.39,5.96-1.3,2.32-2.59,4.65-3.93,6.95-2.54,4.36-5.12,8.7-7.53,13.14-.95.14-1.9.26-2.85.41,2.5-3.84,4.73-7.88,7.05-11.84,2.32-3.95,4.5-7.96,5.82-12.38,0-.02-.02-.02-.02,0-1.52,4.63-4.11,8.74-6.81,12.77-2.45,3.66-5.16,7.23-6.34,11.5-1.1.17-2.19.37-3.29.54,1.42-1.48,2.4-3.74,3.28-5.49,1.07-2.13,1.98-4.33,2.91-6.53,2.14-5.02,4.66-9.7,7.3-14.46,0,0,0-.02-.01,0-3.04,4.3-5.49,8.88-7.66,13.67-1.05,2.32-2.12,4.62-3.29,6.88-1.06,2.05-2.67,3.99-3.54,6.11-1.05.17-2.09.34-3.14.52,1.3-1.74,2.09-4.06,3.05-5.99,1.19-2.37,2.41-4.73,3.66-7.07,2.45-4.59,5.04-9.1,7.77-13.52.02-.04-.03-.07-.06-.03-2.92,4.3-5.7,8.7-8.29,13.21-1.27,2.21-2.48,4.45-3.66,6.7-1.08,2.07-2.65,4.42-3.12,6.72,0,.03,0,.06.01.09-.88.15-1.75.28-2.63.43-.22.04-.43.08-.65.12,1.39-1.71,2.25-4.13,3.27-6.07,1.24-2.38,2.48-4.76,3.78-7.11,2.55-4.6,5.24-9.13,7.71-13.77.02-.03-.02-.05-.04-.02-2.99,4.29-5.66,8.91-8.22,13.47-1.26,2.25-2.52,4.49-3.75,6.76-1.13,2.06-2.79,4.41-3.32,6.7-.01.05,0,.1.02.14-1.1.2-2.21.4-3.31.6,1.27-1.12,1.98-3,2.53-4.51.98-2.7,1.99-5.21,3.42-7.71,2.81-4.91,5.75-9.77,8.42-14.75.01-.02-.02-.04-.03-.02-3.1,4.61-6,9.38-8.93,14.1-1.3,2.09-2.37,4.18-3.16,6.51-.42,1.24-.82,2.48-1.4,3.65-.5,1-1.25,1.87-1.68,2.89-.81.15-1.62.31-2.43.46,1.29-1.17,2.15-3.14,2.79-4.6.97-2.19,1.73-4.48,2.58-6.72,1.98-5.21,4.33-10.22,6.97-15.13,0-.01-.01-.02-.02-.01-2.78,4.35-5.14,8.96-7.18,13.7-.89,2.05-1.58,4.17-2.41,6.24-.49,1.22-1.02,2.43-1.67,3.57-.62,1.1-1.55,2.04-2.12,3.16-.91.17-1.81.35-2.72.53,1.58-.88,2.42-3.22,3.04-4.83.93-2.42,1.57-4.94,2.42-7.39,1.76-5.06,3.97-9.85,6.06-14.77,0-.01-.02-.02-.02-.01-2.58,4.13-4.57,8.88-6.25,13.45-.83,2.27-1.51,4.59-2.28,6.89-.42,1.25-.86,2.51-1.47,3.68-.54,1.03-1.38,1.86-1.81,2.92-.02.05,0,.09.04.11-1.19.24-2.38.47-3.57.72,1.22-1.23,1.99-3.03,2.61-4.58.88-2.21,1.42-4.53,2.07-6.8,1.47-5.12,3.54-9.72,6.13-14.36.03-.04-.04-.08-.07-.04-2.78,3.81-4.95,8.38-6.38,12.88-.69,2.18-1.21,4.42-1.94,6.59-.39,1.16-.83,2.32-1.4,3.4-.59,1.11-1.4,2.05-2.02,3.13-2.06.43-4.12.87-6.17,1.32.15-.35.28-.7.4-.95.96-1.94,1.9-3.91,2.75-5.9,1.77-4.14,3.51-8.32,5.09-12.53,0-.02-.02-.03-.03-.01-.76,1.59-8.61,17.7-9.67,19.72-2.85.64-5.7,1.31-8.54,2.01,1.47-1.4,2.52-3.83,3.42-5.49,1.29-2.37,2.41-4.85,3.34-7.39,1.93-5.26,3.24-10.65,5.44-15.82.02-.04-.04-.06-.07-.03-2.71,4.44-3.89,9.7-5.65,14.55-.97,2.67-2.07,5.28-3.4,7.79-.65,1.23-1.34,2.43-2.08,3.6-.61.96-1.42,1.88-1.77,2.97-.7.18-1.41.35-2.11.53,1.36-1.39,2.37-3.48,3.2-5.07,1.21-2.31,2.19-4.77,3.1-7.21,1.96-5.25,3.47-10.66,5.38-15.93,0,0,0-.01-.01,0-2.21,4.76-3.74,9.8-5.58,14.71-.97,2.58-2.06,5.08-3.35,7.51-.61,1.13-1.24,2.25-1.94,3.32-.65.99-1.5,1.9-2,2.97-.77.2-1.54.41-2.31.62.15-.32.27-.66.41-.96.59-1.24,1.16-2.48,1.74-3.73.94-2,2.3-4.17,2.63-6.38,0-.03-.03-.04-.04-.01-.82,2.12-2.03,4.08-3.1,6.09-.3.56-2.35,4.7-2.63,5.25-1.2.33-2.4.66-3.6,1,1.37-1.16,2.42-2.94,3.17-4.39,1.29-2.49,2.1-5.2,2.85-7.88,1.77-6.3,3.67-12.3,6.82-18.07.01-.03-.02-.05-.04-.02-3.51,4.68-5.32,10.43-6.93,15.98-.84,2.91-1.59,5.85-2.85,8.61-.54,1.18-1.17,2.33-1.93,3.38-.75,1.03-1.72,1.85-2.52,2.82-.75.22-1.51.43-2.26.65.99-1.2,1.68-2.82,2.23-4.1,1.12-2.63,2.09-5.32,3.11-7.99,1.05-2.75,2.09-5.5,3.1-8.27,1.11-3.04,2.03-6.25,4.17-8.74,0,0,0-.02-.01-.01-1.9,1.6-2.77,3.92-3.68,6.17-1.11,2.74-2.23,5.47-3.31,8.21-1.08,2.74-2.16,5.49-3.22,8.23-.55,1.43-1.11,2.88-1.87,4.22-.56.99-1.33,1.81-1.98,2.72-1.42.43-2.83.86-4.24,1.31,1.05-1.18,2.03-3.23,2.27-3.71,1.73-3.43,2.08-7.37,4.07-10.67.04-.06-.05-.14-.1-.08-1.66,2.03-2.32,4.57-3.14,7.02-.51,1.53-1.16,3.01-1.97,4.4-.38.66-1.96,3.73-2.9,3.3-.16-.07-.3.1-.19.24.04.05.08.07.12.11-.78.26-1.57.51-2.35.77,1.29-1.86,2.29-4.14,3.27-6.03,1.26-2.43,2.39-4.92,3.45-7.45,2.32-5.56,4.27-11.49,8.91-15.61.02-.02,0-.05-.03-.03-4.4,3.52-6.79,8.7-8.91,13.79-1.26,3.02-2.6,5.99-4.08,8.9-.66,1.3-1.36,2.59-2.09,3.86-.57.99-1.24,1.96-1.74,2.99-1.16.4-2.32.8-3.48,1.22.28-.46.54-.94.8-1.38.77-1.29,1.46-2.62,2.13-3.96,1.25-2.53,2.4-5.12,3.51-7.71,1.11-2.59,2.24-5.17,3.51-7.7,1.35-2.7,2.94-5.14,4.58-7.67.01-.02-.02-.04-.03-.03-3.94,4.06-6.31,9.66-8.61,14.74-1.2,2.66-2.33,5.35-3.63,7.96-.67,1.34-1.38,2.66-2.13,3.96-.44.75-1,1.49-1.45,2.26-1.11.4-2.21.82-3.31,1.24.98-1.15,1.8-2.51,2.56-3.71,1.48-2.33,2.74-4.8,3.9-7.3,1.15-2.47,2.22-4.98,3.33-7.47,1.07-2.42,2.3-4.81,3.2-7.3,0-.02-.02-.03-.03-.01-2.67,4.48-4.78,9.39-7.13,14.05-1.1,2.19-2.21,4.38-3.45,6.5-1.21,2.05-2.9,3.87-4.11,5.9-.98.38-1.95.78-2.93,1.17.71-.83,1.34-1.74,1.88-2.5,1.63-2.3,3.02-4.7,4.26-7.23,2.52-5.13,4.73-10.4,7.24-15.53.01-.02-.02-.04-.03-.02-3.16,4.25-5.05,9.42-7.37,14.14-1.15,2.35-2.41,4.68-3.91,6.82-1.45,2.07-3.28,3.77-5.05,5.55-.49.2-.97.42-1.46.63.63-.72,1.21-1.5,1.74-2.18,1.5-1.93,2.74-4.04,3.89-6.19,2.19-4.11,4.1-8.41,5.86-12.72.03-.07-.08-.12-.12-.05-2.31,3.92-4.02,8.17-6.19,12.16-1.03,1.89-2.16,3.73-3.42,5.46-.78,1.07-1.61,2.1-2.51,3.06-.44.47-.92.9-1.36,1.37-.66.29-1.31.6-1.97.9.71-.78,1.32-1.66,1.92-2.49,1.24-1.68,2.37-3.43,3.26-5.33,1.63-3.49,2.49-7.24,4.92-10.31.02-.02-.02-.04-.04-.03-2.68,2.42-3.74,5.99-5.18,9.19-.77,1.71-1.72,3.3-2.81,4.83-1.11,1.57-2.68,3.06-3.54,4.8-.52.24-1.04.46-1.55.71-.78.37-1.56.75-2.34,1.13,3.55-3.3,6.61-7.04,8.6-11.52Zm-23.29,25.29c-3.65,2.09-7.24,4.3-10.7,6.71-3.26,2.27-6.58,4.69-9.18,7.71-.82-.33-1.49-.72-1.99-1.49-.25-.39-.39-.87-.64-1.26,5.55-4.62,11.16-9.07,17.22-13.03,5.89-3.85,12.02-7.29,18.32-10.43,7.48-3.72,15.19-6.96,23.04-9.84.07.06.19.07.28,0,.08-.06.16-.13.23-.2,5.45-1.98,10.97-3.79,16.53-5.44,7.39-2.19,14.86-4.17,22.38-5.96,0,0,0,0,.01,0,.4.13.71,0,.96-.23,20.2-4.75,40.78-8.08,61.36-10.25,0,.03-.01.05-.01.08,0,.1.13.16.2.09.07-.07.12-.14.18-.21.02,0,.05,0,.07,0,1.09-.11,2.18-.19,3.27-.3.11.14.31.21.45.04.03-.03.05-.06.07-.09,1.81-.18,3.63-.34,5.44-.5.1.03.22.02.31-.02,0,0,0,0,0,0,1.12-.1,2.23-.2,3.34-.29.04.03.09.04.15.04.12,0,.22-.03.33-.08,4.25-.33,8.51-.59,12.77-.81.01.01.01.03.03.05.02.02.05.05.07.07-.43.04-.86.08-1.29.12-.38-.03-.77-.03-1.15.08-.01,0-.01.02-.02.03-2.25.22-4.51.45-6.75.71-.03,0-.06-.02-.09-.02-.07-.01-.12.02-.17.06-1.05.12-2.1.26-3.15.39-.13-.01-.26-.03-.39-.03-.07,0-.12.04-.15.1-.9.11-1.8.23-2.69.35-.16-.08-.31-.16-.47-.23-.26-.12-.49.14-.41.35-.95.13-1.9.25-2.85.38-.05-.03-.1-.07-.15-.1-.2-.13-.37,0-.41.18-2.08.29-4.16.6-6.23.91-.01,0-.02,0-.03,0-2.25.33-4.5.67-6.75,1.02-.17-.15-.41-.08-.51.08-1.37.21-2.74.43-4.11.65-.25-.08-.49-.15-.75-.19-.11-.02-.16.11-.08.17.06.04.11.08.17.12-3.24.52-6.48,1.06-9.72,1.61-.01-.01-.03-.03-.04-.05-.12-.13-.27-.03-.3.11-.77.13-1.54.26-2.31.39-.13-.08-.25-.18-.38-.25-.15-.08-.32.11-.2.25.03.03.06.06.08.09-1.82.31-3.63.64-5.45.96-.04-.03-.07-.06-.11-.09-.1-.08-.22.04-.2.14-1.93.34-3.85.68-5.78,1.02-3.38.61-6.74,1.26-10.1,1.96-.06-.03-.12-.06-.18-.09-.09-.04-.16.07-.13.15-3.2.67-6.39,1.39-9.57,2.15,0,0,0,0-.01,0-.15-.1-.29-.03-.36.1-.53.13-1.06.26-1.59.39-.01,0-.02-.01-.04-.02-.14-.05-.26.01-.35.11-10.39,2.56-20.65,5.6-30.73,9.17-.07,0-.14-.02-.2-.02-.11,0-.16.07-.17.16-1.2.43-2.41.86-3.61,1.31-.03-.01-.07-.03-.1-.04-.18-.07-.31.06-.34.21-2.79,1.04-5.58,2.12-8.34,3.25,0,0,0,0-.02,0-.28-.1-.49.04-.6.25-2.4.98-4.78,2.01-7.16,3.06-.43.1-.82.27-1.18.52-.88.39-1.76.79-2.64,1.2-.32.05-.63.12-.93.21-.15.05-.24.19-.25.34-.77.36-1.55.71-2.32,1.08-.38.18-.76.38-1.14.56-.93.16-1.79.52-2.39,1.17-5.84,2.88-11.59,5.95-17.25,9.19Zm120.07-22.68c-.05-.17-.31-.11-.27.07.92,4.09,1.29,8.27,2.68,12.25.94,2.7,2.53,5.27,5.25,6.25-4.38,1-8.98,1.84-13.18,3.37-.01-.01-.02-.03-.04-.04-4.15-1.96-6.08-6.95-7.67-10.96-1.69-4.27-2.71-8.77-4.33-13.04-.01-.1-.02-.2-.03-.29-.02-.13-.21-.1-.22.02-.35,4.71.12,9.57.27,14.28.06,2.13.35,4.37.13,6.49-.21,2.05-1.4,3.76-2.17,5.62-11.16,3.88-22.65,5.38-34.42,5.82-2.94.11-5.9.15-8.84.14-3.03,0-6.13.14-9.13-.37-5.69-.98-10.6-4.87-15.4-7.84-4.58-2.83-9.27-5.47-14.1-7.86.72-.22,1.42-.46,2.2-.52,1.07-.07,2.14.08,3.17.35,2.66.69,4.99,2.36,7.29,3.81,4.6,2.93,9.16,5.94,13.64,9.06.02.02.05-.02.03-.04-4.82-4.05-9.83-7.95-15.16-11.31-2.13-1.34-4.49-2.63-7.03-2.96-.38-.05-.8-.08-1.24-.1.15-.07.29-.13.44-.2.04.02.08.04.13.03,2.79-.4,4.89.69,7.35,1.94,2.42,1.22,4.76,2.57,7.04,4.03,4.5,2.88,8.7,6.12,13.04,9.22.07.05.16-.06.09-.12-4.61-4.04-9.49-7.96-14.68-11.22-2.63-1.65-5.36-3.16-8.24-4.35-.3-.12-.65-.26-1.01-.38.47,0,.94.02,1.4.07,1.35.13,2.68.37,3.99.73,2.69.73,5.25,1.78,7.65,3.2,5.62,3.3,10.08,8,14.45,12.75.02.02.05,0,.03-.03-4.03-5.27-8.75-10.31-14.53-13.67-2.3-1.34-4.77-2.49-7.34-3.17-1.54-.41-3.43-.88-5.22-.96.32-.15.64-.29.97-.43,1.07-.21,2.1-.41,3.23-.29,1.39.14,2.73.62,4.06,1.02,2.99.91,5.98,1.93,8.65,3.59,2.83,1.76,4.88,4.3,7.02,6.8,2.19,2.55,4.31,5.16,6.56,7.67.03.04.08-.01.05-.05-2.28-3.04-4.71-5.96-7.03-8.96-2.21-2.85-4.5-5.33-7.72-7.02-2.79-1.47-5.91-2.59-8.93-3.47-.85-.25-1.89-.52-2.92-.61.63-.28,1.26-.55,1.89-.82.01.01.02.03.03.04,1.08.79,2.48,1.1,3.72,1.56,1.42.52,2.85,1.04,4.27,1.56,2.71.99,5.44,2.05,7.9,3.58,5.35,3.33,8.62,8.88,12.04,13.98.01.02.04,0,.03-.02-2.86-5.31-6.21-10.67-11.17-14.26-2.28-1.65-4.85-2.73-7.46-3.72-1.58-.6-3.16-1.18-4.74-1.75-1.23-.45-2.51-1.08-3.82-1.31.87-.37,1.75-.75,2.63-1.12.05.05.12.09.2.12,5.68,1.94,11.41,3.99,16.21,7.71,2.52,1.96,4.46,4.35,6.07,7.09,1.45,2.44,2.76,4.96,4.9,6.87.02.02.06-.01.04-.04-2.28-2.61-3.62-5.73-5.44-8.64-1.5-2.38-3.4-4.45-5.61-6.19-4.38-3.45-9.75-5.58-14.96-7.51.91-.38,1.83-.75,2.75-1.11.03.03.07.07.12.09,2.71,1.31,5.69,2,8.41,3.33,2.81,1.37,5.46,3.21,7.49,5.61,3.82,4.5,5.68,10.32,9.67,14.68.02.02.05,0,.03-.03-3.66-4.98-5.76-11.04-9.94-15.64-1.98-2.17-4.35-3.79-6.94-5.14-2.45-1.28-5.14-2.57-7.84-3.29,1.38-.55,2.77-1.08,4.16-1.6,5.69,2.12,10.71,5.94,14.19,10.93,1.66,2.38,2.79,4.97,3.88,7.64,1.03,2.51,2.1,5,4.1,6.9.03.02.06,0,.04-.04-2.08-2.61-3.16-5.65-4.39-8.7-1.08-2.68-2.46-5.18-4.23-7.47-3.32-4.31-7.76-7.56-12.8-9.56,1.17-.44,2.35-.86,3.52-1.29,2.56.64,5.14,1.06,7.33,2.7,2.48,1.85,3.62,4.83,4.81,7.58,2.35,5.43,4.67,10.86,7.17,16.22.02.04.07,0,.06-.03-2.45-6.16-5.02-12.3-7.74-18.36-1.06-2.37-2.34-4.62-4.54-6.1-1.8-1.21-4.04-1.97-6.23-2.32.55-.2,1.11-.39,1.66-.59-.04.14.04.31.22.33,3.23.4,6.09.93,8.63,3.14,2.41,2.1,3.95,5.06,5.08,8.01,2.03,5.25,2.76,11.18,5.95,15.92.04.06.14.01.11-.06-3.03-5.99-3.73-12.77-6.7-18.75-2.24-4.51-6.94-9.76-12.53-8.86,1.08-.38,2.16-.76,3.25-1.12.12-.04.23-.07.35-.11,1.32.56,2.71.82,3.99,1.52,1.14.62,2.18,1.41,3.13,2.3,2.03,1.89,3.72,4.2,5.19,6.55,3.38,5.39,4.35,12.04,5.99,18.11.02.07.12.04.11-.03-1.57-6.87-2.77-13.83-6.51-19.92-1.43-2.34-3.19-4.54-5.34-6.27-1.47-1.18-3.48-2.45-5.48-2.61,1.64-.54,3.28-1.06,4.93-1.57,1.15.64,2.39,1.06,3.5,1.78,1.44.94,2.45,2.16,3.28,3.65,1.43,2.58,2.51,5.41,3.47,8.19.93,2.67,1.78,5.36,2.63,8.06.81,2.56,1.18,4.99,1.52,7.63,0,.02.03.02.03,0,.6-2.51-.34-5.36-1.05-7.75-.95-3.21-1.96-6.41-3.12-9.56-1.8-4.9-3.92-10.83-9.51-12.23.81-.25,1.61-.49,2.42-.73-.13.15,0,.4.2.41,1.7.12,2.98.88,4.43,1.74.69.41,1.44.82,2.08,1.31,1.16.9,1.51,1.88,1.98,3.19.95,2.62,2.55,4.89,2.62,7.73-.06-.01-.12,0-.09.08.21.6.43,1.2.52,1.83.11.78-.08,1.59.06,2.36.23,1.28,1.56,1.83,1.92,3.15.82,2.98.8,6.4.47,9.44,0,.03.05.04.06,0,.74-2.87.35-6.09-.12-8.98-.11-.67-.26-1.25-.59-1.85-.48-.86-1.35-1.29-1.44-2.48-.09-1.27,0-2.26-.63-3.37.28-1.6-.14-3.19-.69-4.7-.32-.87-.72-1.71-1.06-2.57-.38-.94-.58-1.98-1.02-2.9-.87-1.84-3.17-3-4.87-3.91-.71-.38-1.55-.85-2.37-.93.88-.26,1.77-.5,2.66-.75.02.05.06.1.13.11,3.76.87,5.92,3.37,7.5,6.77,1.37,2.95,2.41,6.08,3.39,9.18,1.69,5.31,2.96,10.86,1.34,16.34-.02.07.09.1.12.03,2.21-5.88.55-12.29-1.34-18.01-1.7-5.16-3.97-13.73-10.35-14.65,2.08-.58,4.17-1.14,6.27-1.67-.13.1-.25.24-.36.43-.04.08.05.19.13.14,1.42-.95,2.31,2.17,2.5,2.99.28,1.24,1.09,2.17,1.55,3.33.51,1.29.54,2.69.9,4.01.31,1.14.8,2.15,1.46,3.13.06.09.2.02.15-.08-1.01-1.8-1.32-3.6-1.58-5.62-.24-1.88-1.14-3.4-1.6-5.2-.3-1.18-.65-2.43-1.8-3.08-.24-.14-.46-.2-.67-.22.83-.21,1.65-.41,2.48-.61.57.46,1.29.84,1.79,1.34.64.64,1.09,1.62,1.46,2.44.61,1.34,1.09,2.75,1.56,4.15.93,2.78,1.74,5.6,2.36,8.46,1.25,5.81,1.92,11.67,1.57,17.62,0,.13.19.13.2,0,.53-6.31.06-12.74-1.38-18.9-.69-2.97-1.57-5.88-2.66-8.72-.81-2.08-1.84-5.32-3.89-6.66.38-.09.76-.19,1.14-.28,5.06,3.53,7.77,9.38,8.77,15.34,1,5.97.26,11.87-.13,17.86,0,.09.14.11.15.02,1.7-11.38,2.21-25.82-8.09-33.39.69-.16,1.39-.32,2.08-.48,0,.04,0,.09.03.13.49.72,1.18,1.07,1.87,1.59.95.72,1.86,1.51,2.68,2.38,1.63,1.72,2.85,3.75,3.81,5.9.01.03.06,0,.05-.02-.65-2.14-1.67-4.11-3.01-5.91-1.08-1.44-2.85-3.71-4.73-4.24.93-.21,1.86-.42,2.79-.63,1.01,1.04,2.29,1.78,3.3,2.84,1.14,1.2,2.12,2.56,2.85,4.04,1.4,2.81,1.72,5.94,2.1,9.02.76,6.26,1.17,12.24.15,18.49-.02.11.13.16.16.05,1.78-6.17,1.13-13.01.38-19.29-.39-3.26-.84-6.5-2.47-9.41-1.22-2.17-3.37-4.95-5.86-5.88,1.08-.24,2.16-.48,3.24-.71,2.01,2.09,4.05,3.87,5.47,6.51,1.52,2.82,2.12,5.88,2.21,9.06.1,3.14.06,6.3-.04,9.44-.09,3.11.27,6.94-.96,9.84-.04.08.1.14.15.06,1.51-2.72,1.29-6.56,1.46-9.58.22-3.69.44-7.46.18-11.16-.21-3.02-1.01-5.91-2.52-8.55-1.23-2.15-3.07-4.5-5.32-5.76.23-.05.46-.1.69-.14,2.98.92,5.38,2.07,7.45,4.54,2.33,2.78,3.65,6.21,4.82,9.59,2.01,5.77,3.87,11.97,8.02,16.64.05.05.15-.02.1-.08-4.3-5.94-5.93-12.83-8.53-19.57-1.15-2.98-2.65-5.93-5.01-8.14-1.58-1.47-3.74-2.91-5.97-3.17,1.48-.31,2.96-.61,4.44-.9,1.35.29,2.43.67,3.47,1.74,1.05,1.09,1.8,2.46,2.5,3.78,1.55,2.91,2.73,6.02,3.86,9.11,1.98,5.42,3.83,11.43,7.83,15.75.05.06.16-.02.12-.08-4.16-5.9-6.13-12.5-8.62-19.19-1.04-2.79-2.23-5.71-3.98-8.14-.84-1.17-2.24-2.72-3.8-3.23,1.33-.26,2.65-.51,3.98-.76,1.43.97,2.17,2.71,2.96,4.2.72,1.35,1.38,2.72,2,4.11,1.23,2.75,2.25,5.58,3.07,8.48.7,2.48,1.35,4.99,2.43,7.34,1.22,2.66,3.04,5.05,4.97,7.24.07.07.21-.02.15-.11-2.07-2.89-4.1-5.57-5.29-8.95-.99-2.8-1.6-5.72-2.53-8.54-.9-2.73-1.96-5.41-3.23-7.99-.95-1.93-2.03-4.97-4.22-5.83,1.25-.23,2.5-.46,3.75-.69,4.58,4.53,5.68,10.91,7.1,16.95,1.28,5.44,3.41,10.96,7.11,15.24.02.02.05,0,.04-.03-1.62-2.71-3.2-5.37-4.42-8.3-1.27-3.05-2.04-6.21-2.69-9.44-1.06-5.26-2.39-10.96-6.71-14.51.94-.17,1.87-.33,2.81-.49,2.76,1.86,3.9,5.24,4.63,8.34.74,3.14,1.28,6.33,1.94,9.49,1.13,5.35,2.51,10.8,6.44,14.82.05.05.14-.03.09-.08-4.34-4.99-5.14-11.79-6.45-18.01-1.06-5.05-1.46-11.63-6.24-14.63.72-.12,1.43-.25,2.15-.37,2.16,2.3,3.55,4.58,4.49,7.67.83,2.72,1.42,5.52,2.29,8.24-.06-.11-.12-.21-.17-.32-.02-.08-.04-.16-.06-.24Zm40.89,3.12c-2.07,1.81-3.99,3.67-6.52,4.81-2.21.99-4.51,1.73-6.77,2.61-2.48.96-4.88,2.2-7.28,3.34-1.24.59-2.48,1.22-3.6,2.03-.42.3-.78.76-1.31.8-.72.06-1.48-.67-2.07-1.08-5.54-3.74-9.9-8.89-12.96-14.8-.59-3.33-1.37-6.78-2.43-9.99-.75-2.25-1.89-4.81-3.84-6.31.66-.11,1.31-.22,1.97-.33.87,1.97,2.33,3.82,3.48,5.62,1.16,1.81,1.96,3.34,2.25,5.5,0,.02.03.02.04,0,.38-1.8-.34-3.43-1.27-4.94-1.25-2.04-2.44-4.42-4-6.27,1.81-.3,3.63-.6,5.44-.89.63.58,1.54.83,2.28,1.27.92.55,1.73,1.23,2.59,1.87.02.01.04-.01.03-.03-.6-.82-1.38-1.52-2.2-2.12-.52-.38-1.14-.86-1.79-1.13,1.19-.19,2.39-.38,3.58-.57,1.14.78,2.34,1.45,3.4,2.38,1.22,1.08,2.3,2.3,3.38,3.51,1.99,2.25,3.98,4.57,6.52,6.21,2.63,1.7,5.66,2.7,8.48,4.02,3.23,1.52,6.2,3.4,9.3,5.13.01,0,.02,0,.01-.02-2.55-2.1-5.57-3.78-8.51-5.24-2.97-1.48-6.21-2.54-8.99-4.38-2.81-1.86-4.88-4.56-7.12-7.04-1.46-1.62-3.35-3.75-5.51-4.74,1.13-.18,2.26-.35,3.39-.52,2.83,5.06,7.78,8.45,12.72,11.24,5.35,3.02,10.9,5.57,15.89,9.2.01.01.03-.01.02-.02-4.2-3.76-9.42-6.15-14.31-8.87-5.34-2.96-10.24-6.48-13.58-11.66.84-.13,1.69-.26,2.53-.39.01.03,0,.07.03.1,3.51,4.26,7.94,7.67,12.55,10.64,4.66,3,9.8,5.13,14.57,7.94.08.05.15-.07.07-.13-4.2-3.24-9.39-5.09-13.86-7.92-4.71-2.99-8.73-6.8-12.62-10.75,1.06-.16,2.12-.32,3.18-.48.9,1.96,3.13,3.5,4.85,4.69,2.19,1.52,4.55,2.8,6.84,4.16,4.74,2.82,9.42,5.8,14.28,8.4.03.02.05-.03.03-.04-4.29-2.93-8.82-5.53-13.23-8.26-2.19-1.35-4.39-2.68-6.54-4.11-1.12-.74-2.22-1.51-3.23-2.39-.9-.78-1.64-1.74-2.52-2.53.18-.03.35-.05.53-.08.86-.13,1.73-.25,2.59-.37,0,.02,0,.03.01.05,2.54,3.68,7.23,6.06,11.07,8.13,4.42,2.38,8.71,4.72,12.9,7.47.04.03.1-.04.06-.07-3.29-3.15-7.68-5.2-11.63-7.39-2-1.11-4.02-2.2-5.89-3.51-2.06-1.45-3.81-3.16-5.7-4.79.68-.1,1.36-.2,2.04-.29,3.14,2.3,6.46,4.41,9.78,6.44.03.02.05-.02.02-.04-2.89-2.26-5.85-4.48-8.9-6.52.93-.13,1.87-.24,2.8-.36,3.74,2.24,7.03,4.91,10.45,7.6,3.28,2.57,6.92,5.06,11.09,5.84.03,0,.05-.04.01-.05-4.41-1.48-7.96-4.07-11.54-6.96-2.83-2.29-5.67-4.84-8.92-6.56.78-.1,1.57-.2,2.36-.3,1.61.9,3.48,1.35,5.08,2.35,1.91,1.19,3.48,2.74,5.09,4.3,1.29,1.26,2.65,2.55,4.24,3.43,1.82,1.01,4,1.67,6.02,2.15.02,0,.03-.02.01-.03-2.06-1.03-4.32-1.63-6.27-2.88-1.93-1.24-3.4-3.02-5.04-4.6-1.34-1.3-2.82-2.45-4.45-3.38-.93-.53-2.04-1.15-3.17-1.51.68-.08,1.37-.16,2.05-.24,1.68.9,3.41,1.57,4.97,2.72,1.7,1.25,3.06,2.86,4.69,4.2,2.46,2.03,5.59,3.64,8.79,4.03.02,0,.02-.03,0-.04-3.89-1.38-7.06-3.07-10.03-5.98-2.01-1.97-4.42-4.13-7.18-5.07.91-.1,1.82-.19,2.74-.28,1.29.69,2.63,1.21,3.85,2.08,1.63,1.16,3.1,2.53,4.68,3.76,2.43,1.89,5.03,3.63,8.15,4.02.02,0,.03-.03,0-.04-3.75-1.04-6.54-3.44-9.46-5.89-1.54-1.3-3.61-3.33-5.77-4.06.65-.07,1.3-.14,1.96-.2,1.22.44,2.36.86,3.46,1.63,1.42.99,2.71,2.17,4.1,3.2,2.26,1.69,4.79,3,7.66,3.12.03,0,.04-.04,0-.05-3.8-.94-6.43-2.87-9.41-5.31-1.05-.86-2.45-2.13-3.93-2.76.63-.06,1.27-.11,1.9-.16,2.35,1.01,4.26,3.4,6.37,4.73,2.01,1.26,4.21,2.05,6.6,1.83.02,0,.03-.04,0-.04-3.37-.11-6.09-2.02-8.62-4.07-.93-.75-1.98-1.9-3.16-2.56.63-.05,1.26-.1,1.89-.15.08.12.24.18.38.05.03-.02.05-.05.08-.08.02,0,.03,0,.05,0,0,.07.02.14.09.2,3,2.89,7.23,4.77,11.43,4.76.02,0,.03-.04,0-.04-4.11-.74-7.61-2.26-10.78-4.97.56-.04,1.13-.08,1.69-.12.11.09.27.11.4-.02,0,0,0,0,0,0,0,0,0-.01.01-.02.35-.02.7-.05,1.05-.07,1.67,2.45,5.81,3.6,8.58,3.68.03,0,.04-.05,0-.06-1.63-.38-3.16-.87-4.67-1.62-1.14-.56-2.09-1.41-3.16-2.05.96-.06,1.93-.1,2.9-.16.55.87,1.71,1.37,2.62,1.75,1.2.49,2.57.8,3.87.74.02,0,.03-.03,0-.04-1.29-.28-2.48-.57-3.68-1.15-.75-.37-1.44-.95-2.18-1.33,1.96-.1,3.92-.18,5.88-.25.87-.01,1.74-.04,2.61-.05-3.93,4.88-7.66,9.79-12.06,14.28-4.34,4.43-9.06,8.51-13.74,12.58Zm-11.25-33.66c1.7-2.74,3.67-5.31,5.98-7.58.02-.02.04,0,.02.03-2.22,2.73-4.28,5.55-5.96,8.66-.77,1.42-1.43,2.9-2.21,4.31-.57,1.03-1.19,2.29-2.3,2.79-.09.04-.22-.03-.18-.14.52-1.35,1.63-2.48,2.31-3.79.76-1.44,1.48-2.89,2.34-4.28Zm-80.95,1.32c.8-2.42,1.5-4.88,2.36-7.28,0-.02.04-.01.03,0-.55,2.59-1.34,5.15-2.07,7.69-.66,2.33-1.23,4.82-2.3,7.01-.09.18-.33.04-.3-.13.45-2.47,1.48-4.92,2.27-7.3Zm-15.31,9.54c2.25-4.39,3.92-9.57,7.68-12.96,0,0,.02,0,.01,0-3.16,4.02-4.28,9.14-7.6,13.03-.05.05-.12-.02-.09-.07Zm116.3,13.91c0,.08,0,.16,0,.24,0,.01-.02.01-.02,0,0-.08,0-.16,0-.24,0-.01.02-.01.02,0Zm-2.22-.13s-.01.07-.04.05c-2.03-1.18-4.11-2.18-6.23-3.19-1.83-.87-4.09-1.87-5.34-3.54-.09-.12.03-.31.18-.22,2,1.19,3.81,2.55,5.9,3.62,1.91.97,3.88,1.9,5.53,3.29Zm-12.36,10.77s0,.04-.02.04c-5.16-1.71-10.41-3.93-15.04-6.8-2.32-1.44-4.48-3.1-6.44-5-1.87-1.81-4.09-3.74-5.59-5.87-.07-.11.07-.21.17-.16,2.32,1.25,4.02,3.76,5.87,5.6,1.98,1.95,4.18,3.63,6.53,5.11,4.6,2.89,9.62,4.78,14.52,7.08Zm-17.55,9.26c.06.02.03.1-.02.09-7.65-1.46-14.23-8.89-15.75-16.4-.03-.15.18-.24.25-.1,1.78,3.53,3.25,7.02,5.92,10.01,2.64,2.95,5.9,5.05,9.6,6.4Zm3.35-2.5c.07.03.04.15-.03.12-5.58-2.05-11.62-4.34-14.49-9.97-1.34-2.62-1.81-5.56-2.71-8.34-1.1-3.39-3.31-5.85-5.13-8.83-.15-.24.2-.48.39-.29,1.99,2.03,3.71,4.67,4.8,7.28,1.03,2.46,1.47,5.09,2.33,7.6,2.31,6.66,8.75,9.83,14.84,12.41Zm4.22-3.28c-5.88-1.13-10.61-4.19-14.28-8.9-3.85-4.94-6.75-10.44-10.93-15.14-.29-.32.17-.75.48-.46,4.16,3.84,6.7,9.22,9.95,13.78,3.67,5.14,8.53,9.22,14.82,10.58.1.02.06.17-.04.15Zm5.24-2.23s.03.08-.02.07c-7.55-1.46-16.48-5.53-19.64-13.07-.05-.13.12-.29.22-.16,2.43,3.17,5,6.13,8.37,8.33,3.39,2.21,7.17,3.79,11.07,4.83Zm-56.15,7.04c-.06,3.63-.2,7.3-.8,10.89-.01.07-.13.05-.12-.02.34-7.06,1.13-14.47,0-21.49-.02-.13.16-.17.2-.05,1.15,3.37.78,7.17.72,10.67Zm-9.87,12.57c-.01.05-.1.04-.1-.02.22-2.9.95-5.74.8-8.67-.14-2.82-1.11-5.62-1.85-8.32-.02-.08.11-.13.14-.05,1.04,2.55,1.88,5.06,2.09,7.84.22,3.01-.41,6.3-1.08,9.22Zm-1.56-18.33c0,.08-.13.08-.13,0,0-.24-.13-.42-.31-.56-.03-.02,0-.06.04-.05.24.12.37.35.4.61Zm-34.24-8.73c-11.62,3.97-22.68,9.32-33.52,15.04-11.5,6.06-23.29,11.83-33.07,20.53-.11.1-.32-.04-.22-.17,4.54-5.76,11.08-9.49,17.43-12.97,21.65-11.85,44.45-24.01,69.2-27.51.02,0,.02.02,0,.02-6.74,1.13-13.36,2.85-19.82,5.05Z"/>
        </g>
      </g>
      <g class="cls-10">
        <g>
          <path class="cls-7" d="m797.31,190.94s-5.45-14.4-6.74-34.39c-1.28-19.99,1.46-34.62-6.59-50.09-8.06-15.47-8.84-24.45-13.35-38.4-4.52-13.95-10.3-40.7-39.97-65.02-29.67-24.32-38.22-21.48-60.44-33.46-22.21-11.99-32.45-14.45-37.14-22.29-4.7-7.83-1.93-10.51-10.74-18.24-8.81-7.73-13.49-8.39-18-15.17-4.5-6.77-14.45-11.25-6.02,1.55,8.43,12.79,14.84,15.74,10.75,25.4-4.09,9.66-4.28,15.77-1.31,21.31,2.97,5.54-1.5,15.49.24,29.73,1.74,14.24-2.7,40.91,16.94,66.21,19.64,25.29,27.57,31.89,33.04,43.92,5.47,12.03,26.65,43.34,65.39,61.44,38.74,18.09,48.59,20.85,58.73,23.99,10.14,3.13,17.28,10.12,15.2,3.51Z"/>
          <path class="cls-5" d="m596.03-93.41h0c2.22-.04,6.46,3.26,8.89,6.92,2.6,3.92,5.23,5.71,8.86,8.18,2.53,1.73,5.4,3.68,9.01,6.84,5.71,5.01,6.69,8.01,7.83,11.49.67,2.02,1.35,4.1,3.04,6.92,3.12,5.2,8.87,8.01,19.31,13.1,4.72,2.3,10.59,5.17,17.56,8.93,7.38,3.98,13.23,6.32,18.9,8.58,11.21,4.47,21.8,8.69,41.65,24.96,26.95,22.09,34.38,46.42,38.82,60.95.48,1.58.93,3.05,1.37,4.4,1.37,4.22,2.39,7.98,3.38,11.62,2.23,8.19,4.34,15.94,9.92,26.67,5.97,11.46,6.08,22.51,6.22,35.31.05,4.76.11,9.69.45,15.05,1.27,19.64,6.64,34.04,6.7,34.18.5,1.61.53,2.53.1,3.12-.18.25-.53.56-1.18.57-1.1.02-2.76-.82-5.25-2.09-2.66-1.35-5.97-3.04-9.73-4.2l-1.32-.41c-9.56-2.95-20.4-6.29-57.5-23.62-37.78-17.64-59.52-48.13-65.73-61.77-3.5-7.69-7.98-13.09-16.1-22.88-4.42-5.32-9.91-11.94-16.86-20.89-15.6-20.11-16.13-40.85-16.52-55.99-.1-4.06-.19-7.57-.56-10.56-.86-7.04-.22-13.09.3-17.96.53-4.96.95-8.89-.47-11.52-3.18-5.93-2.81-12.28,1.27-21.92,2.86-6.74.37-9.96-4.59-16.36-1.81-2.35-3.87-5-6.1-8.39-4.22-6.41-3.44-7.9-3.18-8.39.27-.53.8-.82,1.46-.83Zm200.83,286.4c.09,0,.27-.33-.21-1.85-.04-.11-5.49-14.69-6.77-34.55-.35-5.4-.4-10.34-.45-15.13-.14-12.62-.26-23.52-6.07-34.68-5.66-10.87-7.79-18.68-10.03-26.95-.98-3.62-2-7.36-3.36-11.56-.44-1.36-.89-2.84-1.38-4.42-4.39-14.38-11.74-38.45-38.38-60.28-19.68-16.14-30.17-20.32-41.28-24.74-5.7-2.27-11.6-4.62-19.04-8.64-6.95-3.75-12.81-6.6-17.51-8.9-10.68-5.21-16.56-8.08-19.9-13.64-1.77-2.95-2.51-5.21-3.16-7.2-1.12-3.41-2.01-6.12-7.43-10.87-3.54-3.11-6.38-5.04-8.88-6.74-3.63-2.47-6.49-4.42-9.24-8.56-2.45-3.69-6.31-6.33-7.71-6.3h0c-.21,0-.25.07-.26.09-.06.13-.56,1.42,3.11,6.98,2.2,3.34,4.24,5.98,6.04,8.3,4.96,6.4,7.94,10.26,4.77,17.76-3.9,9.21-4.28,15.2-1.33,20.72,1.62,3.02,1.18,7.13.62,12.33-.51,4.79-1.15,10.76-.31,17.64.38,3.05.47,6.59.57,10.69.38,14.95.9,35.43,16.23,55.17,6.94,8.93,12.42,15.55,16.83,20.86,8.2,9.88,12.72,15.33,16.29,23.19,6.14,13.49,27.64,43.62,65.06,61.1,37.01,17.29,47.79,20.61,57.31,23.54l1.33.41c3.87,1.2,7.24,2.91,9.95,4.29,2.06,1.05,3.84,1.95,4.6,1.94h0Z"/>
        </g>
        <path class="cls-6" d="m736.23,129.94c.39-4.56.29-9.15-.18-13.73-.16-1.56-.38-3.11-.64-4.66,23.01,30.6,54.61,72.33,55.36,71.78,1.68-1.27-30.16-44.69-51.82-74.77.08.04.15.08.23.11,4.13,2.02,8.4,3.71,12.81,4.93,4.4,1.22,8.87,2.17,13.4,2.56,4.51.53,9.05.45,13.56.22-4.52-.09-9.02-.31-13.43-1.14-4.43-.69-8.75-1.93-12.95-3.41-4.21-1.48-8.23-3.41-12.07-5.61-2.07-1.2-4.1-2.52-6.03-3.92-4.8-6.7-8.83-12.4-11.48-16.32-1.5-2.22-3.54-5.21-5.99-8.78,1.82.68,3.65,1.35,5.5,1.98,5.32,1.81,10.72,3.37,16.18,4.66,5.45,1.32,11,2.23,16.56,2.88,5.57.62,11.18.72,16.75.45-5.58-.03-11.14-.44-16.62-1.36-5.47-.95-10.9-2.15-16.21-3.75-5.31-1.58-10.55-3.41-15.68-5.48-3.33-1.35-6.64-2.8-9.87-4.35-4.94-7.2-11.03-16.05-17.6-25.6,3.29,1.13,6.59,2.2,9.91,3.22,6.22,1.9,12.5,3.64,18.84,5.09,12.66,2.87,25.64,4.96,38.61,4.31-12.99.03-25.73-2.66-38.15-6.11-6.21-1.74-12.34-3.77-18.41-5.93-4.79-1.73-9.53-3.6-14.21-5.56-4.72-6.87-9.63-14.02-14.49-21.12,3.46,1.19,6.92,2.32,10.42,3.4,6.22,1.89,12.49,3.63,18.83,5.09,12.66,2.88,25.64,4.96,38.61,4.31-12.98.03-25.73-2.66-38.15-6.11-6.21-1.74-12.35-3.76-18.42-5.93-4.96-1.8-9.89-3.73-14.73-5.78-4.13-6.04-8.18-11.97-12.02-17.61,2.73.92,5.47,1.8,8.22,2.65,6.23,1.89,12.5,3.63,18.84,5.09,12.66,2.88,25.64,4.96,38.61,4.31-12.99.03-25.74-2.66-38.15-6.1-6.21-1.74-12.35-3.77-18.42-5.94-4.15-1.5-8.27-3.11-12.34-4.79-11.07-16.31-19.81-29.43-22.36-33.87-7.67-13.37-35.04-53.46-38.41-54.21-5.85-1.32-6.14,4.62-6.14,4.62,4.33,4.7,25.16,27.88,42.03,55.24,5.29,8.57,11.5,18.31,18.16,28.54l-.32.76c.36.14.72.27,1.08.4.62.94,1.24,1.89,1.86,2.84.29,5.64.4,11.35.35,17.02-.07,6.45-.31,12.9-.83,19.33-1.08,12.84-2.99,25.73-7.52,37.9,5.11-11.94,7.66-24.84,9.36-37.71.84-6.45,1.39-12.93,1.77-19.42.22-3.9.37-7.78.45-11.68,3.98,6.04,8.07,12.18,12.18,18.3.32,5.94.44,11.96.39,17.95-.07,6.45-.3,12.9-.83,19.33-1.08,12.84-2.99,25.73-7.52,37.9,5.11-11.94,7.66-24.84,9.37-37.7.84-6.45,1.38-12.94,1.76-19.43.24-4.22.39-8.44.45-12.66,4.97,7.34,9.91,14.59,14.7,21.52.26,5.43.37,10.91.32,16.37-.07,6.44-.31,12.9-.83,19.33-1.07,12.84-2.98,25.73-7.52,37.9,5.11-11.94,7.66-24.84,9.36-37.71.84-6.45,1.38-12.94,1.77-19.43.21-3.79.36-7.56.43-11.36,4.92,7.07,9.6,13.73,13.88,19.72l-.02.03s.04.02.06.03c1.31,1.83,2.58,3.59,3.8,5.28.4,3.99.69,8.02.82,12.05.16,5.53.05,11.08-.31,16.61-.34,5.54-1.1,11.04-2.11,16.5-1.04,5.46-2.59,10.81-4.49,16.06,2.19-5.13,4.05-10.42,5.4-15.86,1.32-5.44,2.39-10.95,3.05-16.53.68-5.57,1.09-11.17,1.24-16.79.06-2.35.07-4.7.05-7.05,1.24,1.69,2.44,3.31,3.57,4.81,2.61,3.49,5.96,7.96,9.74,13.01l-.19.21c.26.21.53.39.8.6.57.76,1.14,1.53,1.73,2.3,1.57,3.82,2.68,8.14,3.41,12.39.74,4.36,1.15,8.81,1.08,13.27-.07,4.45-.41,8.93-1.3,13.33-.76,4.43-2.11,8.73-3.6,12.99,1.77-4.14,3.43-8.37,4.5-12.79,1.2-4.38,1.86-8.9,2.25-13.45Z"/>
      </g>
    </g>
  </g>
</svg>