<?xml version="1.0" encoding="UTF-8"?>
<svg id="Layer_1" data-name="Layer 1" xmlns="http://www.w3.org/2000/svg" viewBox="0 0 841.89 595.28">
  <defs>
    <style>
      .cls-1 {
        fill: #233265;
      }

      .cls-1, .cls-2 {
        stroke-width: 0px;
      }

      .cls-2 {
        fill: #feda00;
      }
    </style>
  </defs>
  <g>
    <path class="cls-2" d="m113.66,236.77v91.39c0,10.96-2.79,19.07-8.37,24.35s-14.04,7.92-25.39,7.92c-9.27,0-16.43-1.86-21.49-5.58-7.34-5.2-11.01-14.1-11.01-26.69v-17.77h27.14v20.67c0,2.13.3,4.07.89,5.8.74,1.34,2.23,2.01,4.46,2.01,1.39,0,2.69-.62,3.9-1.86,1.21-1.24,1.82-3.27,1.82-6.1v-94.14h28.03Z"/>
    <path class="cls-2" d="m189.81,236.77v91.39c0,10.96-2.79,19.07-8.37,24.35-5.58,5.28-14.04,7.92-25.39,7.92-9.27,0-16.43-1.86-21.49-5.58-7.34-5.2-11.01-14.1-11.01-26.69v-17.77h27.14v20.67c0,2.13.3,4.07.89,5.8.74,1.34,2.23,2.01,4.46,2.01,1.39,0,2.69-.62,3.9-1.86,1.21-1.24,1.82-3.27,1.82-6.1v-94.14h28.03Z"/>
  </g>
  <g>
    <path class="cls-1" d="m238.95,317.23h27.14v9c0,4.02.55,6.94,1.64,8.77,1.63,2.58,4.24,3.87,7.81,3.87,2.92,0,5.3-.97,7.14-2.9,1.73-1.83,2.6-4.02,2.6-6.54,0-5.5-3.4-11.15-10.19-16.95l-12.05-9c-8.82-7.29-14-11.85-15.54-13.68-2.13-2.63-3.92-5.78-5.35-9.44-1.09-3.57-1.64-7.36-1.64-11.38,0-11.4,3.1-19.95,9.29-25.65,6.1-5.65,14.92-8.48,26.47-8.48s20.57,2.68,26.32,8.03c5.8,5.4,8.7,12.91,8.7,22.53v11.01h-26.17v-6.54c0-3.67-.47-6.67-1.41-9-1.39-2.92-3.87-4.39-7.44-4.39-2.93,0-5.26.74-6.99,2.23-1.74,1.63-2.6,3.92-2.6,6.84,0,3.87,3.62,8.75,10.86,14.65l12.42,9.59c11.1,9.86,17.35,16.06,18.74,18.59,3.07,5.5,4.61,12.52,4.61,21.04,0,7.49-2.7,14.13-8.11,19.93-6.89,7.39-16.88,11.08-29.97,11.08s-21.98-3.45-28.48-10.34c-5.2-5.45-7.81-12.05-7.81-19.78v-13.09Z"/>
    <path class="cls-1" d="m324.69,358.5v-121.72h62.31v23.5h-34.28v24.17h30.04v23.5h-30.04v27.07h35.62v23.5h-63.65Z"/>
    <path class="cls-1" d="m395.63,358.5l22.53-121.72h37.18l22.83,121.72h-29.37l-2.6-21.64h-19.63l-2.9,21.64h-28.03Zm33.83-43.28h13.98l-6.54-59.56-7.44,59.56Z"/>
    <path class="cls-1" d="m485.45,358.5v-121.72h58.52v23.5h-30.49v24.17h27.29v23.5h-27.29v50.56h-28.03Z"/>
    <path class="cls-1" d="m553.04,325.26v-55.25c0-11.5,3.4-20.32,10.19-26.47,6.39-5.8,15.04-8.7,25.95-8.7s19.48,3,26.17,9c6.59,5.95,9.89,14.67,9.89,26.17v55.25c0,10.76-3.25,19.28-9.74,25.58-6.49,6.39-15.27,9.59-26.32,9.59s-19.75-3.15-26.25-9.44c-6.59-6.29-9.89-14.87-9.89-25.73Zm28.03-57.7v60.16c0,3.67.62,6.52,1.86,8.55,1.19,1.73,3.27,2.6,6.25,2.6,3.32,0,5.65-1.44,6.99-4.31.69-2.13,1.04-4.41,1.04-6.84v-60.16c0-2.92-.3-5.25-.89-6.99-1.24-2.73-3.62-4.09-7.14-4.09s-5.72,1.31-7.06,3.94c-.69,2.13-1.04,4.51-1.04,7.14Z"/>
    <path class="cls-1" d="m637.66,325.26v-55.25c0-11.5,3.4-20.32,10.19-26.47,6.39-5.8,15.04-8.7,25.95-8.7s19.48,3,26.17,9c6.59,5.95,9.89,14.67,9.89,26.17v55.25c0,10.76-3.25,19.28-9.74,25.58-6.49,6.39-15.27,9.59-26.32,9.59s-19.75-3.15-26.25-9.44c-6.59-6.29-9.89-14.87-9.89-25.73Zm28.03-57.7v60.16c0,3.67.62,6.52,1.86,8.55,1.19,1.73,3.27,2.6,6.25,2.6,3.32,0,5.65-1.44,6.99-4.31.69-2.13,1.04-4.41,1.04-6.84v-60.16c0-2.92-.3-5.25-.89-6.99-1.24-2.73-3.62-4.09-7.14-4.09s-5.72,1.31-7.06,3.94c-.69,2.13-1.04,4.51-1.04,7.14Z"/>
    <path class="cls-1" d="m722.28,358.5v-121.72h41.71c11.3,0,19.38,3.1,24.24,9.29,4.16,5.3,6.25,13.09,6.25,23.35v57.85c0,10.16-3.2,18.12-9.59,23.87-5.5,4.91-12.47,7.36-20.9,7.36h-41.71Zm28.03-100.98v80.23h4.39c7.83,0,11.75-3.44,11.75-10.34v-59.56c0-6.89-3.91-10.33-11.75-10.33h-4.39Z"/>
  </g>
</svg>