<?xml version="1.0" encoding="utf-8"?>
<!-- Generator: Adobe Illustrator 28.0.0, SVG Export Plug-In . SVG Version: 6.00 Build 0)  -->
<svg version="1.1" id="Layer_1" xmlns="http://www.w3.org/2000/svg" xmlns:xlink="http://www.w3.org/1999/xlink" x="0px" y="0px"
	 viewBox="0 0 723.6 77.8" style="enable-background:new 0 0 723.6 77.8;" xml:space="preserve">
<style type="text/css">
	.st0{fill:#0CB7FF;}
</style>
<g>
	<g>
		<path class="st0" d="M0,13C0,5.1,2.8,1.1,8.4,1.1c5.6,0,8.4,4,8.4,11.9v47.1h14.1c7.9,0,11.9,2.6,11.9,7.7c0,5.2-4,7.8-11.9,7.8
			H11.4c-4.2,0-7.1-0.7-8.7-2.1C0.9,72.1,0,69.2,0,65.1V13z"/>
		<path class="st0" d="M64.7,61.8l-2.5,7.4c-1.7,5-4.4,7.5-8,7.5c-2.3,0-4.2-0.8-5.7-2.3c-1.5-1.5-2.2-3.5-2.2-5.8
			c0-1.8,0.3-3.4,0.8-4.8l19.2-51.9C68.8,4.6,73.1,1,79,1c5.9,0,10,3.3,12.3,9.8L110,63.6c0.7,2.1,1.1,3.9,1.1,5.3
			c0,2.4-0.8,4.3-2.4,5.7c-1.6,1.4-3.5,2.1-5.9,2.1c-4.2,0-7.1-2.7-8.8-8.2l-2.1-6.8H64.7z M69.5,46.3h17.6L78.6,19L69.5,46.3z"/>
		<path class="st0" d="M118,13c0-7.9,2.8-11.9,8.4-11.9c5.6,0,8.4,4,8.4,11.9v47.1h14.1c7.9,0,11.9,2.6,11.9,7.7
			c0,5.2-4,7.8-11.9,7.8h-19.6c-4.2,0-7.1-0.7-8.7-2.1c-1.8-1.5-2.6-4.3-2.6-8.5V13z"/>
		<path class="st0" d="M182.7,61.8l-2.5,7.4c-1.7,5-4.4,7.5-8,7.5c-2.3,0-4.2-0.8-5.7-2.3c-1.5-1.5-2.2-3.5-2.2-5.8
			c0-1.8,0.3-3.4,0.8-4.8l19.2-51.9C186.8,4.6,191.1,1,197,1c5.9,0,10,3.3,12.3,9.8L228,63.6c0.7,2.1,1.1,3.9,1.1,5.3
			c0,2.4-0.8,4.3-2.4,5.7c-1.6,1.4-3.5,2.1-5.9,2.1c-4.2,0-7.1-2.7-8.8-8.2l-2.1-6.8H182.7z M187.5,46.3h17.6L196.6,19L187.5,46.3z"
			/>
		<path class="st0" d="M322.5,52.9c0,7.8-2.9,14-8.6,18.5c-5.3,4.1-11.9,6.2-20,6.2c-6.6,0-12.3-1.2-16.9-3.6
			c-4.6-2.4-6.9-5.1-6.9-8.3c0-2.4,0.8-4.3,2.4-5.6c1.5-1.3,3.4-1.9,5.9-1.9c1.2,0,3.8,0.6,7.8,1.9c4,1.2,7.4,1.9,10.1,1.9
			c2.3,0,4.2-0.7,5.9-2.1c1.6-1.4,2.4-3.2,2.4-5.5c0-2.3-0.8-4.1-2.4-5.6c-1.5-1.4-5-2.9-10.4-4.5c-6.8-2.1-11.6-4.3-14.6-6.7
			c-4.1-3.4-6.2-8.1-6.2-14.1c0-7.3,2.7-13.1,8-17.4c5-3.9,11.2-5.9,18.6-5.9c4.5,0,8.7,0.7,12.4,2.2c5.1,2,7.6,4.9,7.6,8.7
			c0,4.7-2.5,7.1-7.5,7.1c-1.5,0-3.7-0.4-6.5-1.3c-2.9-0.8-5.1-1.3-6.6-1.3c-2.2,0-4.1,0.5-5.6,1.5c-1.8,1.1-2.6,2.7-2.6,4.8
			c0,3,3.3,5.5,9.8,7.6c7.6,2.4,13.1,5,16.4,7.6C320.1,41,322.5,46.3,322.5,52.9z"/>
		<path class="st0" d="M362.3,2.1c7.9,0,11.9,2.6,11.9,7.9c0,5.2-4,7.7-11.9,7.7h-13.6v13.1h11.8c7.9,0,11.9,2.6,11.9,7.8
			c0,5.1-4,7.7-11.9,7.7h-11.8v13.9h14.1c7.9,0,11.9,2.6,11.9,7.7c0,5.2-4,7.8-11.9,7.8h-19.6c-4.2,0-7.1-0.7-8.7-2.1
			c-1.8-1.5-2.6-4.3-2.6-8.5V13.8c0-4.4,0.8-7.4,2.5-9.2c1.7-1.7,4.7-2.6,9-2.6H362.3z"/>
		<path class="st0" d="M398.6,61.8l-2.5,7.4c-1.7,5-4.4,7.5-8,7.5c-2.3,0-4.2-0.8-5.7-2.3c-1.5-1.5-2.2-3.5-2.2-5.8
			c0-1.8,0.3-3.4,0.8-4.8L400,11.9C402.7,4.6,407,1,412.9,1c5.9,0,10,3.3,12.3,9.8l18.6,52.9c0.7,2.1,1.1,3.9,1.1,5.3
			c0,2.4-0.8,4.3-2.3,5.7c-1.6,1.4-3.5,2.1-5.9,2.1c-4.2,0-7.1-2.7-8.8-8.2l-2.1-6.8H398.6z M403.4,46.3H421L412.5,19L403.4,46.3z"
			/>
		<path class="st0" d="M482.3,2.1c7.9,0,11.9,2.6,11.9,7.9c0,5.2-4,7.7-11.9,7.7h-13.6v13.1h11.8c7.9,0,11.9,2.6,11.9,7.8
			c0,5.1-4,7.7-11.9,7.7h-11.8v18.4c0,7.9-2.8,11.9-8.4,11.9c-5.6,0-8.4-4-8.4-11.9V13.8c0-4.4,0.8-7.4,2.5-9.2s4.7-2.6,9-2.6H482.3
			z"/>
		<path class="st0" d="M499.4,38.9c0-11.3,3.1-20.5,9.4-27.7C515.4,3.7,524.3,0,535.5,0c11.2,0,20.1,3.7,26.7,11.2
			c6.3,7.1,9.5,16.4,9.5,27.7c0,11.4-3.2,20.6-9.5,27.7c-6.6,7.4-15.5,11.2-26.7,11.2s-20.1-3.7-26.7-11.2
			C502.5,59.5,499.4,50.3,499.4,38.9z M517.6,39.1c0,6.2,1.4,11.4,4.1,15.5c3.2,4.8,7.8,7.2,13.7,7.2s10.5-2.4,13.7-7.2
			c2.8-4.1,4.1-9.3,4.1-15.5c0-6.4-1.3-11.6-4-15.8c-3.2-4.9-7.8-7.4-13.8-7.4s-10.7,2.5-13.8,7.4C518.9,27.5,517.6,32.7,517.6,39.1
			z"/>
		<path class="st0" d="M578.5,38.9c0-11.3,3.1-20.5,9.4-27.7C594.5,3.7,603.4,0,614.6,0c11.2,0,20.1,3.7,26.7,11.2
			c6.3,7.1,9.5,16.4,9.5,27.7c0,11.4-3.2,20.6-9.5,27.7c-6.6,7.4-15.5,11.2-26.7,11.2s-20.1-3.7-26.7-11.2
			C581.6,59.5,578.5,50.3,578.5,38.9z M596.7,39.1c0,6.2,1.4,11.4,4.1,15.5c3.2,4.8,7.8,7.2,13.7,7.2s10.5-2.4,13.7-7.2
			c2.8-4.1,4.1-9.3,4.1-15.5c0-6.4-1.3-11.6-4-15.8c-3.2-4.9-7.8-7.4-13.8-7.4s-10.7,2.5-13.8,7.4C598,27.5,596.7,32.7,596.7,39.1z"
			/>
		<path class="st0" d="M686.1,2.1c4.6,0,8.8,0.4,12.4,1.3c7.8,1.9,14.1,6.1,18.6,12.8c4.3,6.3,6.5,13.6,6.5,22
			c0,11.4-3.1,20.5-9.3,27.2c-6.4,6.9-15.3,10.4-26.6,10.4h-15.3c-4.2,0-7.1-0.7-8.7-2.1c-1.8-1.5-2.6-4.3-2.6-8.5V13.8
			c0-4.3,0.8-7.4,2.5-9.1c1.7-1.8,4.7-2.6,9-2.6H686.1z M677.8,60.2h7.6c13.3,0,20-7.4,20-22.2c0-13.6-6.8-20.3-20.3-20.3h-7.3V60.2
			z"/>
	</g>
</g>
</svg>
