<?xml version="1.0" encoding="UTF-8"?>
<svg id="Layer_1" data-name="Layer 1" xmlns="http://www.w3.org/2000/svg" xmlns:xlink="http://www.w3.org/1999/xlink" viewBox="0 0 566.93 566.93">
  <defs>
    <style>
      .cls-1 {
        fill: #4ac2c3;
      }

      .cls-1, .cls-2, .cls-3 {
        stroke-width: 0px;
      }

      .cls-4 {
        clip-path: url(#clippath-2);
      }

      .cls-2 {
        fill: none;
      }

      .cls-5 {
        clip-path: url(#clippath-1);
      }

      .cls-3 {
        fill: #f6f5bd;
      }

      .cls-6 {
        clip-path: url(#clippath);
      }
    </style>
    <clipPath id="clippath">
      <circle class="cls-2" cx="283.46" cy="283.46" r="283.46"/>
    </clipPath>
    <clipPath id="clippath-1">
      <rect class="cls-2" width="566.93" height="566.93"/>
    </clipPath>
    <clipPath id="clippath-2">
      <rect class="cls-2" width="566.93" height="566.93"/>
    </clipPath>
  </defs>
  <g class="cls-6">
    <g class="cls-5">
      <rect class="cls-1" width="566.93" height="566.93"/>
      <g class="cls-4">
        <path class="cls-3" d="m384.44,296.28c-11.54-15.46-35.68-19.05-50.62-5.96-14.73,12.9-29.47,18.63-47.89,8.66,30.65,27.27,72.43,23.41,98.51-2.69"/>
        <path class="cls-3" d="m182.49,296.28c11.54-15.46,35.68-19.05,50.62-5.96,14.72,12.9,29.47,18.63,47.89,8.66-30.65,27.27-72.43,23.41-98.51-2.69"/>
        <path class="cls-3" d="m309.4,283.83c2.03-1.95,7.4-7.16,11.08-14.99,2.91-6.19,4.43-12.98,4.53-20.11.52-38.37.21-76.75.22-115.12,0-.21-.36-.19-.83,0-.49.2-1.1.57-1.54,1.07-11.17,12.52-17.52,25.67-21.01,35.07-7.08,19.08-7.31,36-6.72,45.74,0,.07.7,9.76-.02,57.56-.04,2.9-.14,6.93-1.96,11.67-2.98,7.75-8.3,11.43-7.4,12.58,1.1,1.41,9.58-3.37,12.08-4.85,2.88-1.71,6.99-4.2,11.57-8.62"/>
        <path class="cls-3" d="m257.26,283.83c-2.03-1.95-7.4-7.16-11.08-14.99-2.91-6.19-4.43-12.98-4.53-20.11-.52-38.37-.21-76.75-.22-115.12,0-.21.36-.19.83,0,.49.2,1.1.57,1.54,1.07,11.17,12.52,17.52,25.67,21.01,35.07,7.08,19.08,7.31,36,6.72,45.74,0,.07-.7,9.76.02,57.56.04,2.9.14,6.93,1.96,11.67,2.98,7.75,8.3,11.43,7.4,12.58-1.1,1.41-9.58-3.37-12.08-4.85-2.88-1.71-6.99-4.2-11.57-8.62"/>
        <path class="cls-3" d="m375.06,348.27h30.22c3.33,0,6.47.51,9.39,1.71,2.92,1.08,5.52,2.73,7.74,4.7,2.22,2.03,3.96,4.31,5.23,6.98,1.24,2.65,1.87,5.51,1.87,8.56s-.63,5.84-1.87,8.5c-1.27,2.67-3.01,5.01-5.23,6.98-2.22,1.91-4.82,3.48-7.74,4.7-2.92,1.08-6.06,1.65-9.39,1.65h-20.87v41.41h-9.35v-85.19Zm9.35,3.36v37.06h16.66c2.79,0,5.42-.51,7.93-1.53,2.48-1,4.6-2.28,6.41-3.99,1.83-1.65,3.26-3.62,4.34-5.84,1.11-2.22,1.62-4.56,1.62-7.1s-.51-4.94-1.62-7.16c-1.07-2.28-2.51-4.19-4.34-5.9-1.81-1.71-3.93-3.05-6.41-3.99-2.51-.96-5.14-1.53-7.93-1.53h-16.66Z"/>
        <path class="cls-3" d="m501.24,433.46h-8.59c-5.23-12.15-10.43-24.18-15.53-36.19-5.17-11.95-10.62-23.48-15.79-35.63l-32.41,71.81h-3.99l36.15-80.4,2.34-4.73c5.92,13.94,13.95,29.45,19.9,43.35,5.92,13.88,11.92,27.82,17.93,41.79"/>
        <path class="cls-3" d="m264.79,433.46h-8.59c-5.23-12.15-10.43-24.18-15.53-36.19-5.17-11.95-10.62-23.48-15.79-35.63l-32.41,71.81h-3.99l36.15-80.4,2.34-4.73c5.92,13.94,13.95,29.45,19.9,43.35,5.92,13.88,11.92,27.82,17.93,41.79"/>
        <path class="cls-3" d="m357.52,404.03c-.98-3.62-2.82-7.16-5.65-10.66-2.79-3.36-6.7-6.39-11.64-9.01-5.08-2.85-9.04-5.39-11.93-7.48-2.89-2.02-5.1-3.93-6.66-5.53-1.52-1.57-2.47-2.97-2.88-4.31-.41-1.28-.63-2.54-.63-3.68,0-1.28.35-2.54.98-3.87.64-1.4,1.56-2.66,2.76-3.74,1.24-1.2,2.76-2.11,4.53-2.85,1.81-.71,3.87-1.08,6.25-1.08s4.47.37,6.34,1.14c1.9.77,3.52,1.65,4.82,2.66,1.3,1.08,2.38,2.16,3.17,3.3.82,1.14,1.3,2.03,1.49,2.79h3.49c-1.27-2.79-2-4.31-3.49-6.1-.6-.75-1.3-1.52-2.06-2.2-1.52-1.22-3.14-2.3-4.98-3.11-1.81-.77-3.75-1.4-5.77-1.59-2.03-.32-4.03-.45-6.03-.37-3.14.32-6.06,1.06-8.82,2.54-2.7,1.46-4.95,3.23-6.76,5.45-1.81,2.22-3.02,4.76-3.58,7.47-.6,2.73-.35,5.47.73,8.26,1.11,2.91,2.76,5.45,4.89,7.41,2.19,2.03,4.63,3.88,7.33,5.65,2.69,1.71,5.58,3.36,8.59,5.07,3.01,1.71,6.02,3.88,9.04,6.27,3.93,3.24,6.53,6.79,7.74,10.8,1.24,3.99,1.3,7.67.26,11.1-1.08,3.42-3.24,6.27-6.47,8.55-3.21,2.22-7.2,3.25-11.99,3.11-3.62-.06-6.82-.83-9.68-2.28-2.85-1.4-5.26-3.05-7.26-4.76-1.97-1.77-3.49-3.48-4.51-5.08-1.08-1.57-1.58-2.6-1.58-2.97h-4.06c1.52,3.42,3.46,6.33,5.74,8.75,2.32,2.34,4.76,4.25,7.32,5.76,2.61,1.46,5.11,2.48,7.68,3.11,2.5.57,4.82.88,6.91.88,4.75.08,9.04-.69,12.72-2.4,3.71-1.71,6.76-3.93,9.07-6.67,2.38-2.79,3.93-5.96,4.73-9.5.83-3.56.76-7.18-.16-10.86"/>
        <polygon class="cls-3" points="65.69 348.33 77.34 348.33 77.34 431.37 117.67 431.37 117.67 433.46 65.69 433.46 65.69 348.33"/>
        <path class="cls-3" d="m118.53,403.26v-54.93h11.55v56.41c-1.11,9.46,1.89,18.37,8.36,22.61,4.7,3.09,10.32,3.11,12.87,3.12,2.56,0,8.28.03,13.06-3.12,6.47-4.25,9.48-13.16,8.36-22.61v-56.41h11.55v54.93c0,21.77-13.18,30.21-32.87,30.21s-32.87-8.44-32.87-30.21"/>
        <rect class="cls-3" x="77.35" y="430.47" width="40.32" height="2.04"/>
        <rect class="cls-3" x="149.71" y="430.47" width=".42" height="2.98"/>
        <rect class="cls-3" x="476.76" y="396.47" width="8.62" height=".06"/>
        <rect class="cls-3" x="456.83" y="397.7" width="12.52" height="6.75"/>
        <rect class="cls-3" x="220.37" y="397.7" width="12.52" height="6.75"/>
      </g>
    </g>
  </g>
</svg>