<?xml version="1.0" encoding="UTF-8"?>
<svg id="Layer_1" data-name="Layer 1" xmlns="http://www.w3.org/2000/svg" viewBox="0 0 841.89 595.28">
  <defs>
    <style>
      .cls-1 {
        fill: none;
        stroke: #231f20;
        stroke-miterlimit: 10;
        stroke-width: 5.67px;
      }

      .cls-2 {
        fill: #fecf8d;
      }

      .cls-2, .cls-3, .cls-4, .cls-5 {
        stroke-width: 0px;
      }

      .cls-3 {
        fill: #e4b477;
      }

      .cls-4 {
        fill: #fff;
      }

      .cls-5 {
        fill: #231f20;
      }
    </style>
  </defs>
  <g>
    <rect class="cls-4" x="137.61" y="15.81" width="563.74" height="563.74"/>
    <rect class="cls-1" x="137.61" y="15.81" width="563.74" height="563.74"/>
  </g>
  <g>
    <polyline class="cls-2" points="641.67 344.8 419.46 158.23 197.25 344.8"/>
    <path class="cls-3" d="m418.88,158.38l-4.66,4.37-216.96,182.14h-.01,444.46l-216.98-182.14-4.68-4.37c-.65-.54-1.16,0-1.16,0Zm-217.7,185l194.89-163.62-174.54,163.62h-20.35Zm22.84,0l180.65-169.3-15.29,16.83-138.32,152.47h-27.04Zm29.36,0l16.7-18.38,134.78-148.62-129.97,167h-21.51Zm23.7,0l132.52-170.3-107.16,170.3h-25.35Zm27.38,0l51.84-82.33,54.11-86.04-30.38,59.98-54.86,108.39h-20.72Zm22.65,0l3.12-6.13,81.58-161.2-23.07,58.3-43.17,109.03h-18.46Zm20.31,0l36.98-93.42,28.98-73.22-48.88,166.64h-17.08Zm18.84,0l48.93-166.74-32.25,166.74h-16.68Zm18.42,0l5.37-27.75,26.64-137.7-16.83,165.45h-15.18Zm16.9,0l17.05-167.48v167.48h-17.05Zm18.77,0v-167.48l17.06,167.48h-17.06Zm18.8,0l-16.87-165.45,6.8,35.11,25.2,130.34h-15.13Zm16.87,0l-9.87-51.08-22.38-115.67,48.94,166.74h-16.69Zm18.45,0l-5.09-17.35-43.78-149.29,65.96,166.63h-17.08Zm18.92,0l-66.25-167.32,84.71,167.32h-18.46Zm20.38,0l-67.62-133.6-17.62-34.78,105.96,168.37h-20.73Zm22.77,0l-107.2-170.32,132.55,170.32h-25.35Zm27.5,0l-63.1-81.08-66.84-85.92,58.93,65.01,92.54,101.99h-21.54Zm23.84,0l-153.57-169.29,156.23,146.45,24.37,22.84h-27.04Zm29.55,0l-69.28-64.94-105.28-98.68,194.92,163.62h-20.35Z"/>
  </g>
  <g>
    <path class="cls-5" d="m205.27,423.65h-6.13v-42.48h4.97l14.03,20.63,14.02-20.63h4.85v42.48h-6.07v-29.92l-11.1,16.51h-3.46l-11.1-16.51v29.92Z"/>
    <path class="cls-5" d="m265.15,411.14h-15.23c-1.64,3.88-3.77,8.99-5.1,12.51h-6.61l17.06-43.03h4.49l17.06,43.03h-6.56l-5.09-12.51Zm-12.94-5.76h10.56l-5.21-15-5.35,15Z"/>
    <path class="cls-5" d="m293.97,381.22c13.9,0,20.87,10.63,20.87,21.25s-6.97,21.18-20.87,21.18h-15.23v-42.43h15.23Zm0,36.3c9.83,0,14.8-7.53,14.8-15.05s-4.97-15.12-14.8-15.12h-9.11v30.17h9.11Z"/>
    <path class="cls-5" d="m339.59,411.14h-15.24c-1.64,3.88-3.77,8.99-5.1,12.51h-6.61l17.06-43.03h4.49l17.06,43.03h-6.56l-5.09-12.51Zm-12.93-5.76h10.55l-5.22-15-5.33,15Z"/>
    <path class="cls-5" d="m358.15,423.65h-6.13v-42.48h4.98l14.03,20.63,14.02-20.63h4.85v42.48h-6.07v-29.92l-11.1,16.51h-3.47l-11.1-16.51v29.92Z"/>
    <path class="cls-5" d="m431.4,381.17c9.16,0,13.78,7.1,13.78,14.2s-4.62,14.13-13.78,14.13h-9.34v14.15h-6.19v-42.48h15.53Zm0,22.27c5.16,0,7.71-4,7.71-8.02s-2.55-8.07-7.71-8.07h-9.34v16.09h9.34Z"/>
    <path class="cls-5" d="m453.98,399.12h17.96v-17.9h6.19v42.43h-6.19v-18.45h-17.96v18.45h-6.14v-42.43h6.14v17.9Z"/>
    <path class="cls-5" d="m482.13,410.9v-29.68h6.19v29.74c0,4.67,5.04,6.98,9.53,6.98s9.47-2.36,9.47-7.04v-29.68h6.18v29.74c0,8.62-8.37,13.11-15.66,13.11s-15.72-4.49-15.72-13.16Z"/>
    <path class="cls-5" d="m522.9,387.04c3.88-3.94,9.34-6.43,15.29-6.43s11.41,2.49,15.35,6.43c3.83,3.95,6.31,9.34,6.31,15.35s-2.48,11.42-6.31,15.36c-3.94,4.01-9.34,6.44-15.35,6.44s-11.4-2.43-15.29-6.44c-3.83-3.94-6.31-9.35-6.31-15.36s2.48-11.4,6.31-15.35Zm26.27,4.37c-2.85-2.85-6.8-4.61-10.98-4.61s-8.07,1.76-10.87,4.61c-2.78,2.79-4.55,6.68-4.55,10.98s1.77,8.2,4.55,10.99c2.79,2.86,6.68,4.62,10.87,4.62s8.13-1.76,10.98-4.62c2.73-2.78,4.5-6.61,4.5-10.99s-1.77-8.19-4.5-10.98Z"/>
    <path class="cls-5" d="m563.6,423.65v-42.55l4.73.07,20.7,29.92v-29.92h6.07v42.48h-4.86l-20.51-29.68v29.68h-6.13Z"/>
    <path class="cls-5" d="m632.95,396.39c-1.69-6.85-8.24-9.34-13.64-9.34-8.32,0-14.75,6.5-14.75,15.42s6.43,15.6,14.75,15.6c5.22,0,10.8-2.44,13.35-8.62h-15.71v-6.13h22.87c-.3,3.57-.61,5.95-1.16,7.34v-.05c-2.91,8.12-11.65,13.35-19.35,13.35-11.9,0-20.88-8.98-20.88-21.48s9.16-21.55,20.88-21.55c8.13,0,17.96,4.19,20.21,15.47h-6.56Z"/>
  </g>
</svg>