<?xml version="1.0" encoding="UTF-8"?>
<svg id="Layer_1" data-name="Layer 1" xmlns="http://www.w3.org/2000/svg" viewBox="0 0 800 389.28">
  <defs>
    <style>
      .cls-1 {
        fill: #ff9400;
        stroke-width: 0px;
      }
    </style>
  </defs>
  <g>
    <path class="cls-1" d="m40.52,203.7h130.32V0h40.52v106.78h27.65v30.12h-27.65v126.49h-40.52v-30.66H38.88c-12.05,0-21.45-3.29-28.2-9.86-7.12-7.3-10.68-18.07-10.68-32.31V2.19h40.52v201.51Z"/>
    <path class="cls-1" d="m507.05,214.65v29.57h-237.65v-29.57h237.65Zm-13.69-209.99v28.75h-169.75v27.38h168.93v28.75h-168.93v29.02h172.21v28.75h-174.13c-13.51,0-23.27-2.37-29.3-7.12-6.21-4.74-9.31-12.59-9.31-23.55V4.65h210.27Z"/>
    <path class="cls-1" d="m695.69,4.93v81.31h-95.82v28.47h131.69V0h40.52v61.88h27.93v30.12h-27.93v62.42h-40.52v-10.68h-135.25c-12.23,0-21.45-2.55-27.65-7.67-6.21-4.93-9.31-12.32-9.31-22.18v-56.67h96.1v-23.27h-96.1V4.93h136.34Zm53.94,169.75c17.15,10.59,25.74,23.64,25.74,39.15s-8.58,28.29-25.74,38.88c-18.8,11.86-44.54,17.8-77.21,17.8s-59.05-5.93-78.03-17.8c-16.97-10.59-25.46-23.55-25.46-38.88s8.49-28.56,25.46-39.15c18.98-11.86,44.99-17.8,78.03-17.8s58.22,5.93,77.21,17.8Zm-124.85,20.53c-9.86,4.93-14.78,11.14-14.78,18.62s4.93,13.42,14.78,18.34c11.32,5.66,26.74,8.49,46.27,8.49s35.96-2.83,47.64-8.49c10.58-4.93,15.88-11.04,15.88-18.34s-5.3-13.69-15.88-18.62c-11.68-5.48-27.56-8.21-47.64-8.21s-34.95,2.74-46.27,8.21Z"/>
  </g>
  <g>
    <path class="cls-1" d="m62.28,388.38v-53.48h38.01v12.85h-21.55v9.8h19.47v12.38h-19.47v18.45h-16.46Z"/>
    <path class="cls-1" d="m260.3,388.38l16.22-53.48h20.85l16.06,53.48h-17.55l-2.31-10.11h-14.62l-2.39,10.11h-16.26Zm25.66-39.89l-4.31,18.22h9.29l-4.15-18.22h-.82Z"/>
    <path class="cls-1" d="m478.39,388.38v-53.48h12.34l18.22,25.86h.63v-25.86h15.09v53.48h-12.22l-18.34-26.33h-.63v26.33h-15.09Z"/>
    <path class="cls-1" d="m707.08,372c.08,2.51,2.7,5.21,7.84,5.21s6.74-2,6.74-4.19c0-2.74-2.66-3.68-7.48-4.55l-6.47-1.14c-8.82-1.57-15.2-5.99-15.2-15.91,0-11.05,8.89-17.4,22.22-17.4,15.12,0,21.9,8.58,21.9,16.93h-14.89c-.08-2.23-2.23-5.05-6.97-5.05-4.19,0-5.96,1.92-5.96,4.19s2.63,3.49,6.97,4.15l6.86,1.06c7.41,1.1,15.09,4.9,15.09,15.95,0,10.42-7.48,18.02-23.16,18.02-17.55,0-22.88-9.05-22.92-17.28h15.44Z"/>
  </g>
</svg>