<?xml version="1.0" encoding="UTF-8"?>
<svg id="Layer_1" data-name="Layer 1" xmlns="http://www.w3.org/2000/svg" viewBox="0 0 566.93 566.93">
  <defs>
    <style>
      .cls-1 {
        stroke-width: 0px;
      }
    </style>
  </defs>
  <g>
    <path class="cls-1" d="m88.84,42.82h93.39c51.25,0,83.14,33.28,83.14,85.91v84.09c0,52.25-31.89,85.92-83.14,85.92h-35s0,133.32,0,133.32h-58.39s0-389.24,0-389.24Zm75.09,194.62c29.61,0,41.68-3.69,41.68-29.64v-67.67c0-29.11-14.03-38.92-41.68-38.92h-16.71s0,136.23,0,136.23h16.71Z"/>
    <path class="cls-1" d="m284.07,373.68l63.76-75.18s38.33-46.06,39.3-67.65c1.01-22.46-6.35-32.33-25.81-32.33-27.42,0-21.54,35.24-21.54,38.88v5.34s-54.46,0-54.46,0v-13.94c0-42.67,20.8-83.06,73.22-83.06,51,0,80.03,23.59,80.03,74.3,0,36.87-15.65,63.05-46.52,100.8-30.73,37.59-48.25,56.92-48.25,56.92h94.76s0,54.32,0,54.32h-154.49s0-58.39,0-58.39Z"/>
    <path class="cls-1" d="m426.63,42.82c-28.42,0-51.46,23.04-51.46,51.46,0,28.42,23.04,51.46,51.46,51.46,28.42,0,51.46-23.04,51.46-51.46,0-28.42-23.04-51.46-51.46-51.46Zm0,71.3c-10.96,0-19.84-8.88-19.84-19.84,0-10.96,8.88-19.84,19.84-19.84,10.96,0,19.84,8.88,19.84,19.84,0,10.96-8.88,19.84-19.84,19.84Z"/>
  </g>
  <g>
    <path class="cls-1" d="m206.58,480.32c-5.93,0-8.94,3.05-8.94,9.07v25.62c0,6.03,3.01,9.09,8.94,9.09,5.95-.01,8.96-3.07,8.96-9.09v-5.91h-6.59v5.91c0,1.75-.75,2.56-2.37,2.56s-2.35-.82-2.35-2.56v-25.62c0-1.75.74-2.57,2.37-2.57,1.61.01,2.35.83,2.35,2.57v5.91h6.59v-5.91c0-6.02-3.02-9.07-8.97-9.07Z"/>
    <path class="cls-1" d="m254.91,481.21l-.04-.23h-8.76l-4.31,27.33-2.01,15.11h6.64l1.2-8.88h5.69l1.17,8.88h6.66l-2.01-15.17-4.25-27.04Zm-2.44,26.8h-3.98l1.99-15.05,1.99,15.05Z"/>
    <polygon class="cls-1" points="286.07 523.42 292.67 523.42 292.67 505.47 300.95 505.47 300.95 498.94 292.67 498.94 292.67 487.49 302.3 487.49 302.3 480.98 286.07 480.98 286.07 523.42"/>
    <polygon class="cls-1" points="343.89 487.49 343.89 480.98 327.67 480.98 327.67 523.42 343.89 523.42 343.89 516.91 334.26 516.91 334.26 505.47 342.54 505.47 342.54 498.94 334.26 498.94 334.26 487.49 343.89 487.49"/>
    <polygon class="cls-1" points="342.24 473.08 336.99 473.08 333.79 478.77 337.58 478.77 342.24 473.08"/>
  </g>
  <rect class="cls-1" x="91.3" y="503.65" width="50.03" height="5.64"/>
  <rect class="cls-1" x="388.53" y="503.65" width="50.03" height="5.64"/>
</svg>