<?xml version="1.0" encoding="UTF-8"?>
<svg id="Layer_1" data-name="Layer 1" xmlns="http://www.w3.org/2000/svg" xmlns:xlink="http://www.w3.org/1999/xlink" viewBox="0 0 1200 1200">
  <defs>
    <style>
      .cls-1 {
        fill: url(#New_Gradient_Swatch_copy);
      }

      .cls-1, .cls-2, .cls-3, .cls-4 {
        stroke-width: 0px;
      }

      .cls-2 {
        fill: #fff;
      }

      .cls-3 {
        fill: url(#New_Gradient_Swatch_copy-2);
      }

      .cls-4 {
        fill: url(#New_Gradient_Swatch);
      }
    </style>
    <linearGradient id="New_Gradient_Swatch_copy" data-name="New Gradient Swatch copy" x1="600" y1="173.26" x2="600" y2="1013.9" gradientUnits="userSpaceOnUse">
      <stop offset="0" stop-color="#fe5926"/>
      <stop offset="1" stop-color="#f78f0c"/>
    </linearGradient>
    <linearGradient id="New_Gradient_Swatch_copy-2" data-name="New Gradient Swatch copy" x1="600" y1="173.26" x2="600" y2="1013.9" xlink:href="#New_Gradient_Swatch_copy"/>
    <linearGradient id="New_Gradient_Swatch" data-name="New Gradient Swatch" x1="349.48" y1="806.88" x2="850.52" y2="806.88" gradientUnits="userSpaceOnUse">
      <stop offset="0" stop-color="#fe5926"/>
      <stop offset="1" stop-color="#f78f0c"/>
    </linearGradient>
  </defs>
  <g>
    <path class="cls-1" d="m927.37,870.57c4.27,0,6.55,4.98,3.8,8.24-79.41,94.23-198.31,154.1-331.17,154.1s-251.77-59.86-331.17-154.1c-2.75-3.26-.46-8.24,3.81-8.24h654.74Z"/>
    <path class="cls-3" d="m1103.48,743.84c-.33,5.32-4.99,9.35-10.32,9.35H106.83c-5.33,0-9.98-4.03-10.32-9.35-.37-5.82,4.25-10.65,9.98-10.65h74.68c3.36,0,5.76-3.24,4.78-6.45-12.27-40.09-18.86-82.64-18.86-126.74,0-238.85,197.19-434.59,436.03-432.9,237.64,1.68,429.79,194.85,429.79,432.9,0,44.1-6.59,86.66-18.86,126.75-.98,3.21,1.43,6.44,4.78,6.44h74.67c5.73,0,10.35,4.82,9.98,10.65Z"/>
  </g>
  <g>
    <path class="cls-2" d="m260.39,662.68v32.26h-22.39v-96.51h34.05c6.8,0,12.64.81,17.52,2.42,4.88,1.61,8.9,3.83,12.05,6.66,3.16,2.83,5.49,6.16,6.99,10,1.5,3.84,2.25,7.99,2.25,12.45,0,4.81-.77,9.23-2.32,13.25-1.55,4.02-3.91,7.46-7.09,10.33-3.18,2.87-7.21,5.11-12.09,6.72-4.88,1.61-10.65,2.42-17.32,2.42h-11.66Zm0-16.89h11.66c5.83,0,10.02-1.39,12.58-4.17,2.56-2.78,3.84-6.67,3.84-11.66,0-2.21-.33-4.22-.99-6.03-.66-1.81-1.67-3.37-3.01-4.67-1.35-1.3-3.05-2.31-5.1-3.01-2.05-.71-4.49-1.06-7.32-1.06h-11.66v30.6Z"/>
    <path class="cls-2" d="m408.94,694.93h-22.52v-40.8h-39.21v40.8h-22.52v-96.51h22.52v40.34h39.21v-40.34h22.52v96.51Z"/>
    <path class="cls-2" d="m470.58,677.25c3,0,5.68-.5,8.05-1.49,2.36-.99,4.36-2.42,5.99-4.27,1.63-1.86,2.88-4.12,3.74-6.79.86-2.67,1.29-5.71,1.29-9.11v-57.16h22.39v57.16c0,5.92-.96,11.35-2.88,16.29-1.92,4.95-4.67,9.21-8.25,12.78s-7.93,6.36-13.05,8.35c-5.12,1.99-10.89,2.98-17.29,2.98s-12.23-.99-17.35-2.98c-5.12-1.99-9.47-4.77-13.05-8.35-3.58-3.58-6.31-7.84-8.21-12.78-1.9-4.94-2.85-10.38-2.85-16.29v-57.16h22.39v57.1c0,3.4.43,6.44,1.29,9.11.86,2.67,2.11,4.95,3.74,6.82s3.63,3.31,6,4.3c2.36.99,5.04,1.49,8.05,1.49Z"/>
    <path class="cls-2" d="m660.68,646.65c0,4.15-.43,8.14-1.29,11.96-.86,3.82-2.1,7.41-3.71,10.76-1.61,3.36-3.6,6.47-5.96,9.34-2.36,2.87-5.04,5.41-8.05,7.62l24.44,26.69h-18.41c-2.65,0-5.06-.32-7.22-.96-2.16-.64-4.08-1.93-5.76-3.88l-11.99-13.45c-1.94.4-3.92.71-5.93.93-2.01.22-4.07.33-6.19.33-7.51,0-14.35-1.26-20.53-3.78-6.18-2.52-11.47-5.99-15.86-10.43-4.39-4.44-7.79-9.66-10.2-15.66-2.41-6-3.61-12.5-3.61-19.47s1.2-13.47,3.61-19.47c2.41-6,5.81-11.22,10.2-15.63,4.39-4.42,9.68-7.88,15.86-10.4,6.18-2.52,13.03-3.78,20.53-3.78s14.34,1.27,20.5,3.81c6.16,2.54,11.43,6.02,15.8,10.43,4.37,4.42,7.76,9.63,10.17,15.63,2.41,6,3.61,12.47,3.61,19.41Zm-22.92,0c0-4.77-.62-9.06-1.86-12.88-1.24-3.82-3.01-7.05-5.33-9.7s-5.16-4.68-8.51-6.09c-3.36-1.41-7.18-2.12-11.46-2.12s-8.18.71-11.56,2.12c-3.38,1.41-6.23,3.44-8.54,6.09s-4.1,5.88-5.33,9.7c-1.24,3.82-1.86,8.11-1.86,12.88s.62,9.13,1.86,12.95c1.24,3.82,3.01,7.05,5.33,9.7s5.17,4.67,8.54,6.06c3.38,1.39,7.23,2.09,11.56,2.09s8.1-.7,11.46-2.09c3.35-1.39,6.19-3.41,8.51-6.06s4.1-5.88,5.33-9.7,1.86-8.14,1.86-12.95Z"/>
    <path class="cls-2" d="m715.87,677.25c3,0,5.68-.5,8.05-1.49,2.36-.99,4.36-2.42,5.99-4.27,1.63-1.86,2.88-4.12,3.74-6.79.86-2.67,1.29-5.71,1.29-9.11v-57.16h22.39v57.16c0,5.92-.96,11.35-2.88,16.29-1.92,4.95-4.67,9.21-8.25,12.78-3.58,3.58-7.93,6.36-13.05,8.35-5.12,1.99-10.89,2.98-17.29,2.98s-12.23-.99-17.35-2.98c-5.12-1.99-9.47-4.77-13.05-8.35-3.58-3.58-6.32-7.84-8.21-12.78-1.9-4.94-2.85-10.38-2.85-16.29v-57.16h22.39v57.1c0,3.4.43,6.44,1.29,9.11.86,2.67,2.11,4.95,3.74,6.82,1.63,1.88,3.63,3.31,5.99,4.3,2.36.99,5.04,1.49,8.05,1.49Z"/>
    <path class="cls-2" d="m872.03,646.65c0,6.98-1.2,13.47-3.61,19.47-2.41,6.01-5.8,11.23-10.17,15.66-4.37,4.44-9.64,7.92-15.8,10.43-6.16,2.52-12.99,3.78-20.5,3.78s-14.35-1.26-20.53-3.78c-6.18-2.52-11.47-5.99-15.86-10.43-4.39-4.44-7.79-9.66-10.2-15.66-2.41-6-3.61-12.5-3.61-19.47s1.2-13.47,3.61-19.47c2.41-6,5.81-11.22,10.2-15.63,4.39-4.42,9.68-7.88,15.86-10.4,6.18-2.52,13.03-3.78,20.53-3.78s14.34,1.27,20.5,3.81c6.16,2.54,11.43,6.02,15.8,10.43,4.37,4.42,7.76,9.63,10.17,15.63,2.41,6,3.61,12.47,3.61,19.41Zm-22.92,0c0-4.77-.62-9.06-1.85-12.88-1.24-3.82-3.01-7.05-5.33-9.7s-5.16-4.68-8.51-6.09c-3.36-1.41-7.18-2.12-11.46-2.12s-8.18.71-11.56,2.12c-3.38,1.41-6.23,3.44-8.54,6.09s-4.1,5.88-5.33,9.7c-1.24,3.82-1.85,8.11-1.85,12.88s.62,9.13,1.85,12.95,3.01,7.05,5.33,9.7,5.17,4.67,8.54,6.06c3.38,1.39,7.23,2.09,11.56,2.09s8.1-.7,11.46-2.09c3.35-1.39,6.19-3.41,8.51-6.06s4.1-5.88,5.33-9.7,1.85-8.14,1.85-12.95Z"/>
    <path class="cls-2" d="m953.01,669.96c.53,0,1.06.1,1.59.3.53.2,1.04.54,1.52,1.03l8.88,9.34c-3.89,5.08-8.75,8.91-14.61,11.49-5.85,2.58-12.77,3.88-20.77,3.88-7.33,0-13.9-1.25-19.71-3.74-5.81-2.49-10.73-5.94-14.77-10.33-4.04-4.39-7.14-9.6-9.31-15.63-2.16-6.03-3.25-12.57-3.25-19.64s1.24-13.81,3.71-19.84c2.47-6.03,5.93-11.23,10.37-15.6,4.44-4.37,9.75-7.77,15.93-10.2,6.18-2.43,13-3.64,20.47-3.64,3.62,0,7.03.32,10.23.96,3.2.64,6.19,1.52,8.97,2.65,2.78,1.13,5.34,2.47,7.68,4.04,2.34,1.57,4.42,3.3,6.23,5.2l-7.55,10.13c-.49.62-1.06,1.18-1.72,1.69-.66.51-1.59.76-2.78.76-.79,0-1.55-.18-2.25-.53-.71-.35-1.46-.78-2.25-1.29-.79-.51-1.67-1.06-2.62-1.66-.95-.6-2.08-1.15-3.38-1.66-1.3-.51-2.83-.94-4.57-1.29-1.75-.35-3.79-.53-6.13-.53-4.06,0-7.77.72-11.13,2.15-3.36,1.44-6.24,3.49-8.64,6.16-2.41,2.67-4.28,5.91-5.63,9.7-1.35,3.8-2.02,8.06-2.02,12.78s.67,9.34,2.02,13.18c1.35,3.84,3.18,7.08,5.5,9.7s5.02,4.63,8.11,5.99c3.09,1.37,6.4,2.05,9.94,2.05,2.03,0,3.88-.1,5.56-.3,1.68-.2,3.23-.54,4.67-1.03,1.43-.49,2.8-1.11,4.11-1.89,1.3-.77,2.62-1.73,3.94-2.88.53-.44,1.1-.81,1.72-1.09.62-.29,1.26-.43,1.92-.43Z"/>
  </g>
  <g>
    <path class="cls-4" d="m376.01,794.38c-.29.46-.59.81-.91,1.04-.32.23-.73.35-1.23.35-.44,0-.92-.14-1.43-.42-.51-.28-1.09-.59-1.73-.94s-1.38-.66-2.21-.94c-.83-.28-1.77-.42-2.83-.42-1.83,0-3.19.39-4.09,1.17-.9.78-1.34,1.84-1.34,3.17,0,.85.27,1.55.81,2.11.54.56,1.25,1.04,2.12,1.44.88.41,1.88.78,3.01,1.11,1.13.34,2.28.71,3.45,1.13,1.17.42,2.33.9,3.45,1.46,1.13.56,2.13,1.27,3.01,2.14.88.87,1.58,1.92,2.12,3.17.54,1.24.81,2.74.81,4.49,0,1.95-.34,3.77-1.01,5.46-.67,1.7-1.65,3.17-2.93,4.44-1.28,1.26-2.86,2.25-4.74,2.98s-4.01,1.08-6.4,1.08c-1.31,0-2.64-.14-4-.41s-2.67-.65-3.95-1.14c-1.27-.49-2.47-1.07-3.58-1.75-1.12-.67-2.09-1.43-2.92-2.25l2.89-4.57c.21-.35.51-.63.9-.84.38-.21.8-.32,1.24-.32.58,0,1.16.18,1.75.55.59.37,1.25.77,1.99,1.21.74.44,1.59.85,2.56,1.21.96.37,2.1.55,3.41.55,1.77,0,3.15-.39,4.13-1.17.98-.78,1.47-2.02,1.47-3.71,0-.98-.27-1.78-.81-2.4-.54-.62-1.25-1.13-2.12-1.53s-1.87-.76-2.99-1.07c-1.12-.31-2.26-.65-3.44-1.03-1.18-.38-2.32-.84-3.44-1.39-1.12-.55-2.11-1.27-2.99-2.17-.88-.9-1.58-2.01-2.12-3.35-.54-1.34-.81-2.99-.81-4.96,0-1.58.32-3.12.95-4.62s1.57-2.84,2.8-4.02c1.23-1.17,2.75-2.11,4.54-2.82,1.79-.7,3.84-1.05,6.16-1.05,1.29,0,2.55.1,3.77.3s2.38.5,3.48.9c1.1.4,2.12.87,3.08,1.42.95.55,1.81,1.17,2.56,1.86l-2.43,4.54Z"/>
    <path class="cls-4" d="m458.52,820.21c1.31,0,2.48-.22,3.51-.65,1.03-.43,1.9-1.05,2.62-1.86s1.26-1.8,1.63-2.96c.38-1.17.56-2.49.56-3.97v-24.94h9.77v24.94c0,2.58-.42,4.95-1.26,7.11-.84,2.16-2.04,4.02-3.6,5.58-1.56,1.56-3.46,2.77-5.69,3.64s-4.75,1.3-7.54,1.3-5.34-.43-7.57-1.3c-2.24-.87-4.13-2.08-5.69-3.64-1.56-1.56-2.75-3.42-3.58-5.58-.83-2.16-1.24-4.53-1.24-7.11v-24.94h9.77v24.91c0,1.48.19,2.81.56,3.97.38,1.17.92,2.16,1.63,2.98.71.82,1.58,1.45,2.62,1.88,1.03.43,2.2.65,3.51.65Z"/>
    <path class="cls-4" d="m546.68,785.88c.29.04.55.11.78.22.23.11.45.26.67.45s.45.45.72.78l20,25.29c-.08-.81-.14-1.59-.17-2.36-.04-.76-.06-1.48-.06-2.15v-22.28h8.61v42.11h-5.09c-.75,0-1.39-.12-1.91-.35s-1.02-.66-1.5-1.27l-19.86-25.09c.06.73.11,1.45.14,2.15.04.7.06,1.36.06,1.98v22.57h-8.61v-42.11h5.14c.42,0,.78.02,1.07.06Z"/>
    <path class="cls-4" d="m665.01,794.38c-.29.46-.59.81-.91,1.04-.32.23-.73.35-1.23.35-.44,0-.92-.14-1.43-.42s-1.09-.59-1.73-.94c-.65-.35-1.38-.66-2.21-.94-.83-.28-1.77-.42-2.83-.42-1.83,0-3.19.39-4.09,1.17-.9.78-1.34,1.84-1.34,3.17,0,.85.27,1.55.81,2.11.54.56,1.25,1.04,2.12,1.44.88.41,1.88.78,3.01,1.11s2.28.71,3.45,1.13c1.17.42,2.33.9,3.45,1.46,1.13.56,2.13,1.27,3.01,2.14s1.58,1.92,2.12,3.17c.54,1.24.81,2.74.81,4.49,0,1.95-.34,3.77-1.01,5.46-.67,1.7-1.65,3.17-2.93,4.44-1.28,1.26-2.86,2.25-4.74,2.98s-4.01,1.08-6.4,1.08c-1.31,0-2.64-.14-4-.41s-2.67-.65-3.95-1.14c-1.27-.49-2.47-1.07-3.58-1.75-1.12-.67-2.09-1.43-2.92-2.25l2.89-4.57c.21-.35.51-.63.9-.84s.8-.32,1.24-.32c.58,0,1.16.18,1.75.55.59.37,1.25.77,1.99,1.21.74.44,1.59.85,2.56,1.21.96.37,2.1.55,3.41.55,1.77,0,3.15-.39,4.13-1.17.98-.78,1.47-2.02,1.47-3.71,0-.98-.27-1.78-.81-2.4-.54-.62-1.25-1.13-2.12-1.53s-1.87-.76-2.99-1.07c-1.12-.31-2.26-.65-3.44-1.03-1.18-.38-2.32-.84-3.44-1.39-1.12-.55-2.12-1.27-2.99-2.17-.88-.9-1.58-2.01-2.12-3.35-.54-1.34-.81-2.99-.81-4.96,0-1.58.32-3.12.95-4.62s1.57-2.84,2.8-4.02c1.23-1.17,2.75-2.11,4.54-2.82,1.79-.7,3.84-1.05,6.16-1.05,1.29,0,2.55.1,3.77.3s2.38.5,3.48.9c1.1.4,2.12.87,3.08,1.42.95.55,1.81,1.17,2.56,1.86l-2.43,4.54Z"/>
    <path class="cls-4" d="m757.33,785.82v7.51h-17.28v9.83h13.24v7.23h-13.24v10.03h17.28v7.51h-27.11v-42.11h27.11Z"/>
    <path class="cls-4" d="m850.52,785.82v7.75h-11.85v34.37h-9.77v-34.37h-11.85v-7.75h33.47Z"/>
  </g>
</svg>