<?xml version="1.0" encoding="utf-8"?>
<!-- Generator: Adobe Illustrator 28.0.0, SVG Export Plug-In . SVG Version: 6.00 Build 0)  -->
<svg version="1.1" id="Layer_1" xmlns="http://www.w3.org/2000/svg" xmlns:xlink="http://www.w3.org/1999/xlink" x="0px" y="0px"
	 viewBox="0 0 769.7 259.4" style="enable-background:new 0 0 769.7 259.4;" xml:space="preserve">
<style type="text/css">
	.st0{fill:#FFA449;}
</style>
<g>
	<path class="st0" d="M69.1,259.3c-4.3,0-9.1-0.5-14.4-1.6l-0.2,0c-12.4-3.2-27.2-15-27.2-52.8v-85.7H0v-10.7l51.6-50h9.1v38.9h52.5
		l-5.1,17.9l-4.7,3.8H60.7v84.5c0,10.3,1.9,22.8,7.3,26.9l0.2,0.1l0.2,0.2c4,4,10.4,4.6,16.7,4.6c5.6,0,16.1-2,21.2-4.6l2.3-1.2
		l3.8,4.7l-1.5,6.8l-0.8,0.7C97.8,252.9,82.5,259.3,69.1,259.3L69.1,259.3z"/>
	<path class="st0" d="M231.1,255.7v-17.1h3.2c14.1,0,18.9-4.9,18.9-19.5v-65c0-24.4-10.1-35.7-31.7-35.7c-16.4,0-28.6,7.3-36.3,21.8
		v78.9c0,14.4,6.1,19.5,23.5,19.5h2l2.6,5.1l-1.8,12H126v-17.1h3.2c16.4,0,22.5-5.3,22.5-19.5V44.2L126,39V27.4l54.2-19.2l5,4.3
		v103.3c11.5-15.1,28.7-23.6,48.3-23.6c33.8,0,53.2,20.2,53.2,55.3v71.4c0,13.8,6.4,19.5,21.9,19.5h1.8l3.1,5l-2.2,12.1L231.1,255.7
		L231.1,255.7z"/>
	<path class="st0" d="M330.8,255.7v-17.1h3.2c16.4,0,22.5-5.3,22.5-19.5v-89.6l-25.8-5.2V111l54.2-19.2l5,4.3v122.8
		c0,14.6,5.8,19.5,23.2,19.5h2l2.6,5.1l-1.8,12L330.8,255.7L330.8,255.7z M327,21.5l0.5-1.7c2.3-7.9,4.8-16,16.4-19l0.2,0l0.2,0
		c3-0.4,5.8-0.7,8.4-0.7h1.9l41.7,72.8l-4.7,8l-9.3,1.9L327,21.5L327,21.5z"/>
	<path class="st0" d="M525.7,255.7v-17.1h3.2c16.4,0,22.5-5.3,22.5-19.5V44.2L525.7,39V27.4l54.2-19.2l5,4.3v206.5
		c0,14.4,6.1,19.5,23.5,19.5h2l2.6,5.1l-1.8,12L525.7,255.7L525.7,255.7z"/>
	<path class="st0" d="M739.2,259.3c-12.7,0-23.6-8.7-27.3-21.5c-0.2-0.5-0.3-0.9-0.5-1.4c-7.4,13.9-22.7,22.9-40,22.9
		c-27.3,0-44.3-16.3-44.3-42.4c0-31.2,27.8-47.3,82.8-47.9v-30.5c0-18.2-13.6-27.2-41.5-27.5l-0.4,0.3l-9.5,36l-3.8,3.3h-1.2
		c-4.7,0-9.6-2.9-12.7-5.6c-5.1-3.7-8.9-11.1-8.9-17.2c0-26,34.4-35.4,57.5-35.4c35.3,0,53.2,15.9,53.2,47.3V216
		c0,14.7,6.7,21,22.5,21h2l2.4,4.8l-1.9,5.3l-0.4,0.5C760.6,255,750.1,259.4,739.2,259.3L739.2,259.3z M710,183.1
		c-22.8,0.8-47.8,9.6-47.8,32.6c0,11.4,7.7,18.3,20.7,18.3c11.8,0,22.9-8.5,27.1-20.6L710,183.1L710,183.1z M652,21.5l0.5-1.7
		c2.3-7.9,4.8-16,16.4-19l0.2,0l0.2,0c3-0.4,5.8-0.7,8.4-0.7h1.9l41.7,72.8l-4.7,8l-9.3,1.9L652,21.5L652,21.5z"/>
</g>
</svg>
