<?xml version="1.0" encoding="UTF-8"?>
<svg id="Layer_1" data-name="Layer 1" xmlns="http://www.w3.org/2000/svg" viewBox="0 0 1200 1200">
  <defs>
    <style>
      .cls-1 {
        fill: #ffa449;
        stroke-width: 0px;
      }
    </style>
  </defs>
  <g>
    <path class="cls-1" d="m284.27,798.96c-4.34,0-9.06-.52-14.42-1.6l-.18-.04c-12.42-3.24-27.22-15.02-27.22-52.75v-85.69h-27.28v-10.69l51.56-49.97h9.09v38.93h52.54l-5.12,17.93-4.74,3.79h-42.67v84.46c0,10.34,1.92,22.83,7.3,26.87l.18.14.16.16c4.03,4.03,10.42,4.58,16.74,4.58,5.6,0,16.11-1.99,21.25-4.57l2.31-1.16,3.79,4.74-1.46,6.81-.79.7c-12.31,10.87-27.66,17.35-41.04,17.35Z"/>
    <path class="cls-1" d="m446.3,795.28v-17.13h3.2c14.11,0,18.87-4.92,18.87-19.48v-64.98c0-24.37-10.09-35.73-31.74-35.73-16.35,0-28.57,7.33-36.34,21.81v78.9c0,14.38,6.14,19.48,23.47,19.48h1.98l2.56,5.12-1.78,12.01h-85.35v-17.13h3.2c16.43,0,22.55-5.28,22.55-19.48v-174.85l-25.75-5.21v-11.62l54.17-19.16,4.95,4.34v103.35c11.51-15.08,28.7-23.57,48.29-23.57,33.78,0,53.16,20.16,53.16,55.31v71.42c0,13.84,6.35,19.48,21.93,19.48h1.77l3.13,5.01-2.24,12.12h-80.04Z"/>
    <path class="cls-1" d="m545.94,795.28v-17.13h3.2c16.43,0,22.55-5.28,22.55-19.48v-89.64l-25.75-5.21v-13.16l54.17-19.16,4.95,4.34v122.83c0,14.56,5.84,19.48,23.16,19.48h1.98l2.56,5.12-1.78,12.01h-85.04Zm-3.75-234.18l.51-1.72c2.34-7.89,4.76-16.05,16.37-19.05l.17-.04.18-.02c3.04-.43,5.79-.65,8.42-.65h1.86l41.69,72.8-4.73,8.05-9.32,1.86-55.14-61.23Z"/>
    <path class="cls-1" d="m740.89,795.28v-17.13h3.2c16.44,0,22.55-5.28,22.55-19.48v-174.85l-25.75-5.21v-11.62l54.17-19.16,4.95,4.34v206.5c0,14.38,6.14,19.48,23.47,19.48h1.98l2.56,5.12-1.78,12.01h-85.35Z"/>
    <path class="cls-1" d="m954.38,798.96c-12.69,0-23.63-8.65-27.26-21.53-.16-.46-.32-.93-.47-1.4-7.42,13.87-22.68,22.94-40.01,22.94-27.31,0-44.27-16.26-44.27-42.43,0-31.22,27.84-47.34,82.76-47.93v-30.53c0-18.25-13.56-27.23-41.45-27.45l-.36.26-9.46,36.02-3.8,3.26h-1.18c-4.68,0-9.61-2.87-12.73-5.6-5.06-3.7-8.86-11.06-8.86-17.21,0-25.96,34.36-35.38,57.45-35.38,35.27,0,53.16,15.93,53.16,47.34v76.32c0,14.73,6.74,21.01,22.55,21.01h1.98l2.42,4.84-1.91,5.26-.43.47c-6.73,7.37-17.24,11.77-28.11,11.77Zm-29.25-76.27c-22.77.75-47.85,9.58-47.85,32.61,0,11.43,7.74,18.26,20.71,18.26,11.78,0,22.88-8.46,27.14-20.62v-30.24Zm-58-161.59l.51-1.72c2.34-7.89,4.75-16.05,16.37-19.05l.17-.04.17-.02c3.03-.43,5.79-.65,8.42-.65h1.86l41.69,72.8-4.73,8.05-9.32,1.86-55.14-61.23Z"/>
  </g>
  <g>
    <path class="cls-1" d="m434.99,466.01v-5.33h1.3c3.31,0,4.32-1.05,4.32-4.47v-16.94c0-5.53-2.48-8.22-7.6-8.22-1.32,0-2.73.32-4.43,1-1.82.88-3.22,2.24-4.18,4.09v20.07c0,1.58.33,2.68,1.02,3.37.47.55,1.5,1.1,4.15,1.1h.8l.86,1.71-.54,3.62h-22.33v-5.33h1.3c3.93,0,5.26-1.13,5.26-4.47v-22.43l-6.56-1.33v-4.09l14.38-5.09,1.64,1.44v4.09c2.89-3.55,6.79-5.35,11.66-5.35,8.78,0,14.02,5.45,14.02,14.57v18.19c0,3.26,1.38,4.47,5.1,4.47h.72l1.04,1.67-.68,3.67h-21.27Z"/>
    <path class="cls-1" d="m491.03,466.01v-5.33h1.3c3.31,0,4.32-1.05,4.32-4.47v-16.55c0-5.96-2.34-8.61-7.6-8.61-3.93,0-6.88,1.75-8.77,5.19v19.97c0,3.39,1.33,4.47,5.49,4.47h.8l.86,1.71-.54,3.62h-22.64v-5.33h1.3c3.93,0,5.26-1.13,5.26-4.47v-44.13l-6.56-1.33v-3.7l14.38-5.09,1.64,1.44v25.19c2.99-3.3,7.14-5.14,11.81-5.14,8.78,0,14.02,5.45,14.02,14.57v18.19c0,3.26,1.38,4.47,5.1,4.47h.72l1.04,1.67-.68,3.67h-21.27Z"/>
    <path class="cls-1" d="m548.62,466.94c-3.23,0-6.03-2.05-7.19-5.17-2.12,3.16-5.86,5.17-10.06,5.17-7.25,0-11.76-4.33-11.76-11.29,0-8.17,7.09-12.44,21.07-12.68v-7.3c0-2.74-1.03-6.35-9.77-6.5l-2.37,9.02-1.22,1.04h-.48c-1.32,0-2.68-.78-3.54-1.53-1.42-1.05-2.44-3.04-2.44-4.76,0-6.97,9.04-9.5,15.12-9.5,11.59,0,14.02,6.82,14.02,12.54v19.44c0,3.5,1.47,4.87,5.26,4.87h.8l.84,1.69-.59,1.63-.17.19c-1.8,1.98-4.61,3.16-7.52,3.16Zm-7.94-19.39c-3.3.21-11.21,1.4-11.21,7.78,0,3.76,3.35,4.16,4.79,4.16,2.77,0,5.39-1.98,6.43-4.85v-7.1Zm-14.83-40.44l.21-.7c.6-2.04,1.29-4.35,4.51-5.18l.07-.02h.07c.8-.12,1.52-.18,2.21-.18h.75l10.9,19.03-1.46,2.48-2.86.57-14.41-16Z"/>
    <path class="cls-1" d="m622.17,466.01v-5.33h1.3c3.31,0,4.32-1.05,4.32-4.47v-16.55c0-5.96-2.34-8.61-7.6-8.61-3.93,0-6.88,1.75-8.77,5.19v19.97c0,3.39,1.33,4.47,5.49,4.47h.8l.86,1.71-.54,3.62h-22.64v-5.33h1.3c3.93,0,5.25-1.13,5.25-4.47v-44.13l-6.56-1.33v-3.7l14.38-5.09,1.64,1.44v25.19c2.99-3.3,7.14-5.14,11.81-5.14,8.78,0,14.02,5.45,14.02,14.57v18.19c0,3.26,1.38,4.47,5.1,4.47h.72l1.04,1.67-.68,3.67h-21.27Z"/>
    <path class="cls-1" d="m679.75,466.94c-3.23,0-6.03-2.05-7.19-5.17-2.12,3.16-5.86,5.17-10.06,5.17-7.25,0-11.76-4.33-11.76-11.29,0-8.17,7.09-12.44,21.08-12.68v-7.3c0-2.74-1.03-6.35-9.77-6.5l-2.37,9.02-1.22,1.05h-.48c-1.32,0-2.68-.78-3.54-1.53-1.42-1.04-2.44-3.03-2.44-4.76,0-6.97,9.04-9.5,15.12-9.5,11.59,0,14.02,6.82,14.02,12.54v19.44c0,3.5,1.47,4.87,5.26,4.87h.8l.84,1.69-.59,1.63-.17.19c-1.8,1.98-4.61,3.16-7.52,3.16Zm-7.94-19.4c-3.48.2-11.21,1.37-11.21,7.79,0,3.76,3.35,4.16,4.79,4.16,2.77,0,5.39-1.98,6.43-4.85v-7.1Zm-14.83-40.43l.21-.7c.6-2.04,1.29-4.35,4.51-5.18l.07-.02h.07c.8-.12,1.52-.18,2.21-.18h.75l10.9,19.03-1.46,2.48-2.86.57-14.41-16Z"/>
    <path class="cls-1" d="m721.11,466.01v-5.33h1.3c3.31,0,4.32-1.05,4.32-4.47v-16.94c0-5.53-2.48-8.22-7.6-8.22-1.32,0-2.73.32-4.43,1-1.83.89-3.22,2.24-4.18,4.09v20.07c0,1.58.33,2.68,1.02,3.37l.07.08c.39.47,1.42,1.02,4.08,1.02h.8l.86,1.71-.54,3.62h-22.33v-5.33h1.3c3.93,0,5.25-1.13,5.25-4.47v-22.43l-6.56-1.33v-4.09l14.38-5.09,1.64,1.44v4.09c2.89-3.55,6.79-5.35,11.66-5.35,8.78,0,14.02,5.45,14.02,14.57v18.19c0,3.26,1.38,4.47,5.1,4.47h.72l1.04,1.67-.68,3.67h-21.27Z"/>
    <path class="cls-1" d="m767.4,488.96c-7.65,0-19.8-3.36-19.8-12.38,0-4.8,2.99-7.1,6.22-8.87.41-.22.82-.45,1.23-.69l-.14-.08c-.98-.65-1.63-1.33-2.14-1.92-.65-.64-1.18-1.49-1.55-2.45-.43-.9-.65-1.99-.65-3.25,0-3.94,3.56-6.47,6.15-8.31.36-.25.69-.5,1-.75-3.97-2.45-6.29-6.77-6.29-11.86,0-9.72,8.99-14.96,17.46-14.96,3.98,0,7.6.91,10.51,2.64l10.87-2.8,1.37,1.6-.84,6.86-6.08-.4c1.31,2.45,1.63,5.08,1.63,7.06,0,9.77-8.78,14.88-17.46,14.88-1.08,0-2.26-.11-3.5-.33-1.09-.13-2.22-.37-3.33-.73-1.28.79-2.56,2.48-2.56,3.9,0,.74.15,1.29.46,1.64l.06.07.05.08c.69,1.06,2.53,1.6,4.04,1.67h.11c1.11.16,2.31.23,3.57.23,7.74,0,22.14,0,22.14,12.15s-13.18,16.99-22.53,16.99Zm-7.42-19.96c-.22.16-.41.31-.55.45l-.05.05-.06.04c-1.95,1.56-2.24,4.09-2.24,5.46,0,7,11.72,7.21,13.06,7.21,3.63,0,10.01-.55,12.1-4.19.32-.8.5-1.55.5-2.16,0-3.61-2.61-5.37-8.72-5.89-2.54-.31-5.16-.31-7.69-.31h-.16c-.3-.05-.62-.06-.96-.08-.35-.02-.72-.04-1.11-.08l-2.34-.23c-.59-.05-1.18-.15-1.75-.28Zm8.91-39.99c-5.65,0-8.22,4.87-8.22,9.39,0,3.4,1.45,7.77,5.52,8.89.98.35,1.83.5,2.7.5,5.68,0,8.22-4.72,8.22-9.39,0-1.84-.28-3.39-.82-4.62-.63-1.17-1.33-2.13-2.11-2.85-1.45-1.19-3.45-1.92-5.29-1.92Z"/>
  </g>
</svg>