<?xml version="1.0" encoding="UTF-8"?>
<svg id="Layer_1" data-name="Layer 1" xmlns="http://www.w3.org/2000/svg" xmlns:xlink="http://www.w3.org/1999/xlink" viewBox="0 0 841.89 595.28">
  <defs>
    <style>
      .cls-1 {
        fill: url(#linear-gradient-38);
      }

      .cls-1, .cls-2, .cls-3, .cls-4, .cls-5, .cls-6, .cls-7, .cls-8, .cls-9, .cls-10, .cls-11, .cls-12, .cls-13, .cls-14, .cls-15, .cls-16, .cls-17, .cls-18, .cls-19, .cls-20, .cls-21, .cls-22 {
        stroke-width: 0px;
      }

      .cls-2 {
        fill: #0b351e;
      }

      .cls-3 {
        fill: url(#linear-gradient-33);
      }

      .cls-23 {
        stroke: url(#linear-gradient-16);
      }

      .cls-23, .cls-24, .cls-25, .cls-26, .cls-27, .cls-28, .cls-29, .cls-30, .cls-31, .cls-32, .cls-33, .cls-34, .cls-35, .cls-36, .cls-37, .cls-38, .cls-39, .cls-40, .cls-41, .cls-42, .cls-43 {
        fill: none;
        stroke-miterlimit: 10;
        stroke-width: .16px;
      }

      .cls-24 {
        stroke: url(#linear-gradient-10);
      }

      .cls-25 {
        stroke: url(#linear-gradient-19);
      }

      .cls-4 {
        fill: url(#linear-gradient-42);
      }

      .cls-26 {
        stroke: url(#linear-gradient-6);
      }

      .cls-27 {
        stroke: url(#linear-gradient-12);
      }

      .cls-28 {
        stroke: url(#linear-gradient-18);
      }

      .cls-44 {
        filter: url(#drop-shadow-1);
      }

      .cls-5 {
        fill: url(#linear-gradient-31);
      }

      .cls-29 {
        stroke: url(#linear-gradient-7);
      }

      .cls-6 {
        fill: url(#linear-gradient-34);
      }

      .cls-7 {
        fill: url(#linear-gradient-41);
      }

      .cls-30 {
        stroke: url(#linear-gradient-2);
      }

      .cls-31 {
        stroke: url(#linear-gradient-21);
      }

      .cls-8 {
        fill: url(#linear-gradient-40);
      }

      .cls-32 {
        stroke: url(#linear-gradient-4);
      }

      .cls-9 {
        fill: url(#linear-gradient-23);
      }

      .cls-33 {
        stroke: url(#linear-gradient-3);
      }

      .cls-10 {
        fill: url(#linear-gradient-25);
      }

      .cls-11 {
        fill: url(#linear-gradient-22);
      }

      .cls-34 {
        stroke: url(#linear-gradient-20);
      }

      .cls-12 {
        fill: url(#linear-gradient-35);
      }

      .cls-13 {
        fill: url(#linear-gradient-32);
      }

      .cls-14 {
        fill: url(#linear-gradient-39);
      }

      .cls-35 {
        stroke: url(#linear-gradient-8);
      }

      .cls-36 {
        stroke: url(#linear-gradient-11);
      }

      .cls-15 {
        fill: url(#linear-gradient-27);
      }

      .cls-37 {
        stroke: url(#linear-gradient-17);
      }

      .cls-16 {
        fill: url(#linear-gradient-36);
      }

      .cls-38 {
        stroke: url(#linear-gradient-5);
      }

      .cls-17 {
        fill: url(#linear-gradient-24);
      }

      .cls-18 {
        fill: url(#linear-gradient-26);
      }

      .cls-19 {
        fill: url(#linear-gradient-30);
      }

      .cls-39 {
        stroke: url(#linear-gradient);
      }

      .cls-20 {
        fill: url(#linear-gradient-29);
      }

      .cls-21 {
        fill: url(#linear-gradient-28);
      }

      .cls-40 {
        stroke: url(#linear-gradient-9);
      }

      .cls-41 {
        stroke: url(#linear-gradient-13);
      }

      .cls-22 {
        fill: url(#linear-gradient-37);
      }

      .cls-42 {
        stroke: url(#linear-gradient-14);
      }

      .cls-43 {
        stroke: url(#linear-gradient-15);
      }
    </style>
    <linearGradient id="linear-gradient" x1="313.67" y1="173.49" x2="528.22" y2="173.49" gradientUnits="userSpaceOnUse">
      <stop offset="0" stop-color="#a16d29"/>
      <stop offset=".09" stop-color="#bb7f2b"/>
      <stop offset=".19" stop-color="#db9e47"/>
      <stop offset=".21" stop-color="#d29641"/>
      <stop offset=".25" stop-color="#c18634"/>
      <stop offset=".3" stop-color="#b77d2d"/>
      <stop offset=".36" stop-color="#b47a2b"/>
      <stop offset=".4" stop-color="#b98031"/>
      <stop offset=".46" stop-color="#c89144"/>
      <stop offset=".52" stop-color="#e0ac62"/>
      <stop offset=".56" stop-color="#f2c179"/>
      <stop offset=".61" stop-color="#efbd75"/>
      <stop offset=".66" stop-color="#e6b46a"/>
      <stop offset=".7" stop-color="#daa75a"/>
      <stop offset=".77" stop-color="#c68d3c"/>
      <stop offset=".82" stop-color="#bb7f2b"/>
      <stop offset=".93" stop-color="#ebb054"/>
      <stop offset=".95" stop-color="#dca24a"/>
      <stop offset=".99" stop-color="#b77f32"/>
      <stop offset="1" stop-color="#aa732a"/>
    </linearGradient>
    <linearGradient id="linear-gradient-2" x1="302.52" y1="173.49" x2="539.37" y2="173.49" xlink:href="#linear-gradient"/>
    <linearGradient id="linear-gradient-3" x1="373.36" y1="358.01" x2="389.45" y2="358.01" xlink:href="#linear-gradient"/>
    <linearGradient id="linear-gradient-4" x1="396.54" y1="354.14" x2="415.58" y2="354.14" xlink:href="#linear-gradient"/>
    <linearGradient id="linear-gradient-5" x1="423.85" y1="358.01" x2="440.44" y2="358.01" xlink:href="#linear-gradient"/>
    <linearGradient id="linear-gradient-6" x1="451.66" y1="358.01" x2="468.53" y2="358.01" xlink:href="#linear-gradient"/>
    <linearGradient id="linear-gradient-7" x1="163.59" y1="443.97" x2="207.47" y2="443.97" xlink:href="#linear-gradient"/>
    <linearGradient id="linear-gradient-8" x1="215.69" y1="443.97" x2="259.46" y2="443.97" xlink:href="#linear-gradient"/>
    <linearGradient id="linear-gradient-9" x1="267.67" y1="443.97" x2="339.38" y2="443.97" xlink:href="#linear-gradient"/>
    <linearGradient id="linear-gradient-10" x1="374.79" y1="443.97" x2="418.57" y2="443.97" xlink:href="#linear-gradient"/>
    <linearGradient id="linear-gradient-11" x1="426.78" y1="443.97" x2="470.24" y2="443.97" xlink:href="#linear-gradient"/>
    <linearGradient id="linear-gradient-12" x1="530.44" y1="438.69" x2="574.22" y2="438.69" xlink:href="#linear-gradient"/>
    <linearGradient id="linear-gradient-13" x1="582.43" y1="443.97" x2="626.31" y2="443.97" xlink:href="#linear-gradient"/>
    <linearGradient id="linear-gradient-14" x1="634.52" y1="443.97" x2="678.3" y2="443.97" xlink:href="#linear-gradient"/>
    <linearGradient id="linear-gradient-15" x1="478.45" y1="438.69" x2="527.02" y2="438.69" xlink:href="#linear-gradient"/>
    <linearGradient id="linear-gradient-16" x1="318.08" y1="529.79" x2="335.57" y2="529.79" xlink:href="#linear-gradient"/>
    <linearGradient id="linear-gradient-17" x1="354.14" y1="529.79" x2="375.13" y2="529.79" xlink:href="#linear-gradient"/>
    <linearGradient id="linear-gradient-18" x1="394.54" y1="529.79" x2="413.42" y2="529.79" xlink:href="#linear-gradient"/>
    <linearGradient id="linear-gradient-19" x1="432.7" y1="529.79" x2="448.59" y2="529.79" xlink:href="#linear-gradient"/>
    <linearGradient id="linear-gradient-20" x1="469.33" y1="529.79" x2="488.14" y2="529.79" xlink:href="#linear-gradient"/>
    <linearGradient id="linear-gradient-21" x1="504.24" y1="529.79" x2="523.87" y2="529.79" xlink:href="#linear-gradient"/>
    <filter id="drop-shadow-1" filterUnits="userSpaceOnUse">
      <feOffset dx="1.09" dy="1.09"/>
      <feGaussianBlur result="blur" stdDeviation=".78"/>
      <feFlood flood-color="#010101" flood-opacity="1"/>
      <feComposite in2="blur" operator="in"/>
      <feComposite in="SourceGraphic"/>
    </filter>
    <linearGradient id="linear-gradient-22" x1="320.99" y1="92.53" x2="528.53" y2="260.63" xlink:href="#linear-gradient"/>
    <linearGradient id="linear-gradient-23" x1="320.99" y1="92.53" x2="528.53" y2="260.63" xlink:href="#linear-gradient"/>
    <linearGradient id="linear-gradient-24" x1="359.55" y1="350.61" x2="468.25" y2="393.13" xlink:href="#linear-gradient"/>
    <linearGradient id="linear-gradient-25" x1="364.09" y1="339.01" x2="472.79" y2="381.53" xlink:href="#linear-gradient"/>
    <linearGradient id="linear-gradient-26" x1="366.67" y1="332.4" x2="475.38" y2="374.92" xlink:href="#linear-gradient"/>
    <linearGradient id="linear-gradient-27" x1="370.38" y1="322.92" x2="479.08" y2="365.44" xlink:href="#linear-gradient"/>
    <linearGradient id="linear-gradient-28" x1="164.86" y1="439.27" x2="694.32" y2="559.56" xlink:href="#linear-gradient"/>
    <linearGradient id="linear-gradient-29" x1="166.95" y1="430.07" x2="696.41" y2="550.36" xlink:href="#linear-gradient"/>
    <linearGradient id="linear-gradient-30" x1="170.19" y1="415.83" x2="699.65" y2="536.11" xlink:href="#linear-gradient"/>
    <linearGradient id="linear-gradient-31" x1="174.68" y1="396.06" x2="704.14" y2="516.35" xlink:href="#linear-gradient"/>
    <linearGradient id="linear-gradient-32" x1="177.77" y1="382.46" x2="707.23" y2="502.75" xlink:href="#linear-gradient"/>
    <linearGradient id="linear-gradient-33" x1="184.21" y1="354.12" x2="713.67" y2="474.41" xlink:href="#linear-gradient"/>
    <linearGradient id="linear-gradient-34" x1="185.42" y1="348.79" x2="714.88" y2="469.07" xlink:href="#linear-gradient"/>
    <linearGradient id="linear-gradient-35" x1="187.97" y1="337.55" x2="717.43" y2="457.83" xlink:href="#linear-gradient"/>
    <linearGradient id="linear-gradient-36" x1="181.93" y1="364.16" x2="711.39" y2="484.44" xlink:href="#linear-gradient"/>
    <linearGradient id="linear-gradient-37" x1="324.55" y1="529.96" x2="547.87" y2="565.46" xlink:href="#linear-gradient"/>
    <linearGradient id="linear-gradient-38" x1="325.46" y1="524.22" x2="548.78" y2="559.72" xlink:href="#linear-gradient"/>
    <linearGradient id="linear-gradient-39" x1="326.52" y1="517.52" x2="549.84" y2="553.01" xlink:href="#linear-gradient"/>
    <linearGradient id="linear-gradient-40" x1="327.43" y1="511.83" x2="550.75" y2="547.32" xlink:href="#linear-gradient"/>
    <linearGradient id="linear-gradient-41" x1="328.28" y1="506.5" x2="551.6" y2="541.99" xlink:href="#linear-gradient"/>
    <linearGradient id="linear-gradient-42" x1="329.34" y1="499.83" x2="552.65" y2="535.33" xlink:href="#linear-gradient"/>
  </defs>
  <rect class="cls-2" x="123.31" y="-123.31" width="595.28" height="841.89" transform="translate(123.31 718.58) rotate(-90)"/>
  <g>
    <g>
      <g>
        <path class="cls-39" d="m496.75,97.69c-20.25-20.25-47.17-31.4-75.8-31.4s-55.56,11.15-75.8,31.4c-20.25,20.25-31.4,47.17-31.4,75.8s11.15,55.56,31.4,75.8c20.25,20.25,47.17,31.4,75.8,31.4s55.56-11.15,75.8-31.4c20.25-20.25,31.4-47.17,31.4-75.8s-11.15-55.56-31.4-75.8Zm22.19,75.8c0,18.64-5.23,36.07-14.3,50.92v-101.84c9.07,14.85,14.3,32.28,14.3,50.92Zm-47.07-83.7h-101.84c14.85-9.07,32.28-14.3,50.92-14.3s36.07,5.23,50.92,14.3Zm-120.94,15.22h115.67s0,45.65,0,45.65h-30.44s0-15.38,0-15.38h15.22s0-15.06,0-15.06h-15.22c-8.4,0-15.22,6.81-15.22,15.22v15.22s0,0,0,0c0,8.4,6.81,15.22,15.22,15.22h30.44s0,0,0,0c8.4,0,15.22-6.81,15.22-15.22v-45.65s0-8.26,0-8.26c2.65,2.11,5.19,4.35,7.61,6.72v115.68s-45.65,0-45.65,0v-30.44s15.38,0,15.38,0v15.22s15.06,0,15.06,0v-15.22h0c0-8.4-6.81-15.22-15.22-15.22h-15.22c-8.4,0-15.22,6.81-15.22,15.22v30.44h0c0,8.4,6.81,15.22,15.22,15.22h45.65s8.26,0,8.26,0c-2.11,2.65-4.35,5.19-6.72,7.61h-115.68s0-45.65,0-45.65h30.44s0,15.38,0,15.38h-15.22s0,15.06,0,15.06h15.22s0,0,0,0c8.4,0,15.22-6.81,15.22-15.22v-15.22h0c0-8.4-6.81-15.22-15.22-15.22h-30.44s0,0,0,0c-8.4,0-15.22,6.81-15.22,15.22v45.65s0,8.26,0,8.26c-2.65-2.11-5.19-4.35-7.61-6.72v-115.67h45.65v30.44h-15.38v-15.22h-15.06v15.22c0,8.4,6.81,15.22,15.22,15.22h15.22c8.4,0,15.22-6.81,15.22-15.22v-30.44h0c0-8.4-6.81-15.22-15.22-15.22h-53.91c2.11-2.65,4.35-5.19,6.72-7.61Zm-13.67,17.56v101.84c-9.07-14.85-14.3-32.28-14.3-50.92s5.23-36.07,14.3-50.92Zm32.78,134.62h101.84c-14.85,9.07-32.28,14.3-50.92,14.3s-36.07-5.23-50.92-14.3Z"/>
        <path class="cls-30" d="m529.99,127.42c-5.96-14.09-14.49-26.75-25.36-37.62-10.87-10.87-23.52-19.4-37.62-25.36-14.59-6.17-30.09-9.3-46.07-9.3s-31.48,3.13-46.07,9.3c-14.09,5.96-26.75,14.49-37.62,25.36-10.87,10.87-19.4,23.52-25.36,37.62-6.17,14.59-9.3,30.09-9.3,46.07s3.13,31.48,9.3,46.07c5.96,14.09,14.49,26.75,25.36,37.62,10.87,10.87,23.52,19.4,37.62,25.36,14.59,6.17,30.09,9.3,46.07,9.3s31.48-3.13,46.07-9.3c14.09-5.96,26.75-14.49,37.62-25.36,10.87-10.87,19.4-23.52,25.36-37.62,6.17-14.59,9.3-30.09,9.3-46.07s-3.13-31.48-9.3-46.07Zm-109.05,160.75c-63.24,0-114.68-51.45-114.68-114.68s51.45-114.68,114.68-114.68,114.68,51.45,114.68,114.68-51.45,114.68-114.68,114.68Z"/>
      </g>
      <g>
        <g>
          <g>
            <path class="cls-33" d="m373.44,347.64h7.17c4.35,0,7.73,1.18,7.73,5.14,0,1.86-1.05,3.84-2.76,4.47v.13c2.14.55,3.79,2.11,3.79,4.88,0,4.22-3.61,6.11-8.16,6.11h-7.77v-20.73Zm6.95,8.3c2.3,0,3.32-.96,3.32-2.47,0-1.6-1.07-2.22-3.28-2.22h-2.25v4.69h2.22Zm.43,8.81c2.58,0,3.92-.91,3.92-2.79s-1.31-2.56-3.92-2.56h-2.65v5.35h2.65Z"/>
            <path class="cls-32" d="m403.23,347.64h5.67l6.58,20.73h-5.01l-2.74-10.5c-.58-2.07-1.14-4.52-1.7-6.68h-.13c-.51,2.19-1.07,4.61-1.65,6.68l-2.75,10.5h-4.84l6.58-20.73Zm-2.24,12.15h10.08v3.64h-10.08v-3.64Zm2.54-15.4l5.49-4.44,2.51,3.02-5.91,3.77-2.09-2.34Z"/>
            <path class="cls-38" d="m423.92,347.64h4.86l5.47,10.31,2.07,4.55h.13c-.22-2.19-.61-5.1-.61-7.54v-7.32h4.51v20.73h-4.86l-5.47-10.33-2.07-4.53h-.13c.22,2.29.61,5.06.61,7.5v7.36h-4.51v-20.73Z"/>
            <path class="cls-26" d="m451.74,347.64h4.74v7.99h7.23v-7.99h4.74v20.73h-4.74v-8.65h-7.23v8.65h-4.74v-20.73Z"/>
          </g>
          <g>
            <polygon class="cls-29" points="191.71 436.94 179.36 391.74 179.36 391.53 163.67 391.53 163.67 496.41 179.36 496.41 179.36 451.31 191.71 496.41 207.4 496.41 207.4 391.53 191.71 391.53 191.71 436.94"/>
            <path class="cls-35" d="m237.73,391.53c-12.66,0-21.97,8.91-21.97,21.71v83.17h15.69v-30.84h12.24v30.84h15.69v-83.17c0-12.59-9.1-21.71-21.65-21.71Zm5.96,30.31v28h-12.24c-.1-11.33-.1-22.65-.1-33.98,0-4.93.31-8.6,6.38-8.6,1.99,0,4.29.63,5.34,2.62,1.26,2.52.63,8.92.63,11.96Z"/>
            <path class="cls-40" d="m317.54,391.53c-5.44,0-10.25,1.68-14.02,4.61-3.66-2.94-8.47-4.61-13.81-4.61-12.66,0-21.97,8.91-21.97,21.71v83.17h15.69c0-26.85-.1-53.7-.1-80.55,0-4.93.31-8.6,6.38-8.6,3.77,0,5.44,1.57,5.96,5.14-.1.21-.1.52-.1.84v83.17h15.8v-84.01c.42-3.15,1.67-5.14,6.17-5.14,2.09,0,4.39.63,5.34,2.62,1.26,2.52.73,8.92.73,11.96v74.57h15.69v-83.17c0-12.59-9.1-21.71-21.76-21.71Z"/>
            <path class="cls-24" d="m392.86,391.53h-17.99v104.88h15.69v-30.84h2.3c14.96,0,25.63-10.7,25.63-25.7v-22.65c0-15-10.67-25.7-25.63-25.7Zm9.94,49.4c-1.26,7.87-5.13,8.92-12.24,8.92v-42.58h3.35c5.75.31,8.89,4.3,8.89,9.96v23.7Z"/>
            <polygon class="cls-36" points="454.47 449.84 442.55 449.84 442.55 391.53 426.85 391.53 426.85 496.41 442.55 496.41 442.55 465.57 454.47 465.57 454.47 496.41 470.16 496.41 470.16 391.53 454.47 391.53 454.47 449.84"/>
            <path class="cls-27" d="m563.18,394.09c.88-1.06,4.7-5.83,4.7-8.22,0-2.7-2.18-4.89-4.88-4.89s-4.88,2.19-4.88,4.89c0,2.21,3.25,6.43,4.45,7.91-2.96-1.45-6.37-2.25-10.08-2.25-12.66,0-21.97,8.91-21.97,21.71v61.46c0,12.59,9.1,21.71,21.65,21.71s21.97-8.91,21.97-21.71v-61.46c0-8.6-4.25-15.59-10.95-19.15Zm-4.74,80.61c0,4.09-2.2,5.98-6.28,5.98s-5.96-2.1-5.96-5.98v-61.46c0-4.09,2.3-5.98,6.28-5.98s5.96,2.1,5.96,5.98v61.46Z"/>
            <polygon class="cls-41" points="610.54 436.94 598.2 391.74 598.2 391.53 582.51 391.53 582.51 496.41 598.2 496.41 598.2 451.31 610.54 496.41 626.23 496.41 626.23 391.53 610.54 391.53 610.54 436.94"/>
            <path class="cls-42" d="m678.22,420.05v-5.35c0-1.89,0-3.88-.31-5.77-1.99-10.7-10.67-17.41-21.34-17.41-12.66,0-21.97,8.91-21.97,21.71v61.46c0,12.59,9.1,21.71,21.65,21.71s21.97-8.91,21.97-21.71v-22.86h-23.33v15.73h7.64c0,2.1.1,4.2.1,6.29,0,4.4-1.46,6.82-6.38,6.82-3.87,0-5.96-2.1-5.96-5.98v-61.46c0-4.09,2.3-5.98,6.28-5.98,7.64,0,5.96,7.55,5.96,12.8h15.69Z"/>
            <path class="cls-43" d="m522.07,380.98c-2.69,0-4.88,2.19-4.88,4.89,0,1.46,1.43,3.81,2.74,5.66h-13.47c0,26.85.1,53.7.1,80.55,0,4.93-.31,8.6-6.38,8.6-5.75,0-6.07-3.88-6.07-8.6,0-1.99.1-3.99.1-5.87v-74.68h-15.69v83.17c0,12.59,9.1,21.71,21.65,21.71s21.97-8.91,21.97-21.71v-80.49c.63-.76,4.8-5.84,4.8-8.34,0-2.7-2.18-4.89-4.88-4.89Z"/>
          </g>
        </g>
        <g>
          <path class="cls-23" d="m318.16,519.45h8.27c1.64,0,2.86.07,3.66.2.8.14,1.52.42,2.16.85.63.43,1.16,1.01,1.59,1.73.42.72.63,1.53.63,2.42,0,.97-.26,1.86-.78,2.67-.52.81-1.23,1.42-2.12,1.82,1.26.37,2.23.99,2.91,1.88.68.88,1.02,1.92,1.02,3.12,0,.94-.22,1.86-.66,2.74-.44.89-1.03,1.6-1.79,2.13-.76.53-1.69.86-2.8.98-.7.08-2.38.12-5.04.14h-7.04v-20.69Zm4.18,3.44v4.78h2.74c1.63,0,2.64-.02,3.03-.07.72-.08,1.28-.33,1.69-.74.41-.41.61-.95.61-1.61s-.18-1.16-.53-1.56c-.35-.4-.88-.64-1.57-.73-.41-.05-1.6-.07-3.57-.07h-2.4Zm0,8.23v5.53h3.87c1.5,0,2.46-.04,2.86-.13.62-.11,1.13-.39,1.52-.83.39-.44.59-1.02.59-1.76,0-.62-.15-1.15-.45-1.58-.3-.43-.74-.75-1.31-.95-.57-.2-1.8-.3-3.7-.3h-3.37Z"/>
          <path class="cls-37" d="m375.01,540.14h-4.54l-1.81-4.7h-8.27l-1.71,4.7h-4.43l8.06-20.69h4.42l8.28,20.69Zm-7.69-8.19l-2.85-7.68-2.79,7.68h5.64Z"/>
          <path class="cls-28" d="m394.62,540.14v-20.69h4.18v9.19l8.44-9.19h5.62l-7.79,8.06,8.21,12.63h-5.4l-5.69-9.71-3.39,3.46v6.25h-4.18Z"/>
          <path class="cls-25" d="m432.77,540.14v-20.69h15.34v3.5h-11.16v4.59h10.39v3.49h-10.39v5.63h11.56v3.49h-15.73Z"/>
          <path class="cls-34" d="m469.4,540.14v-20.69h8.79c2.21,0,3.82.19,4.82.56,1,.37,1.8,1.03,2.41,1.98.6.95.9,2.04.9,3.26,0,1.55-.46,2.83-1.37,3.84-.91,1.01-2.28,1.65-4.09,1.91.9.53,1.65,1.11,2.24,1.74.59.63,1.38,1.75,2.38,3.36l2.53,4.04h-5l-3.02-4.5c-1.07-1.61-1.81-2.62-2.2-3.04s-.81-.71-1.26-.86-1.14-.23-2.1-.23h-.85v8.64h-4.18Zm4.18-11.94h3.09c2,0,3.25-.08,3.75-.25.5-.17.89-.46,1.17-.87.28-.41.42-.93.42-1.55,0-.7-.19-1.26-.56-1.69-.37-.43-.9-.7-1.57-.81-.34-.05-1.35-.07-3.05-.07h-3.26v5.25Z"/>
          <path class="cls-31" d="m511.96,540.14v-8.71l-7.58-11.98h4.9l4.87,8.19,4.77-8.19h4.81l-7.61,12.01v8.68h-4.16Z"/>
        </g>
      </g>
    </g>
    <g class="cls-44">
      <g>
        <path class="cls-11" d="m496.75,97.69c-20.25-20.25-47.17-31.4-75.8-31.4s-55.56,11.15-75.8,31.4c-20.25,20.25-31.4,47.17-31.4,75.8s11.15,55.56,31.4,75.8c20.25,20.25,47.17,31.4,75.8,31.4s55.56-11.15,75.8-31.4c20.25-20.25,31.4-47.17,31.4-75.8s-11.15-55.56-31.4-75.8Zm22.19,75.8c0,18.64-5.23,36.07-14.3,50.92v-101.84c9.07,14.85,14.3,32.28,14.3,50.92Zm-47.07-83.7h-101.84c14.85-9.07,32.28-14.3,50.92-14.3s36.07,5.23,50.92,14.3Zm-120.94,15.22h115.67s0,45.65,0,45.65h-30.44s0-15.38,0-15.38h15.22s0-15.06,0-15.06h-15.22c-8.4,0-15.22,6.81-15.22,15.22v15.22s0,0,0,0c0,8.4,6.81,15.22,15.22,15.22h30.44s0,0,0,0c8.4,0,15.22-6.81,15.22-15.22v-45.65s0-8.26,0-8.26c2.65,2.11,5.19,4.35,7.61,6.72v115.68s-45.65,0-45.65,0v-30.44s15.38,0,15.38,0v15.22s15.06,0,15.06,0v-15.22h0c0-8.4-6.81-15.22-15.22-15.22h-15.22c-8.4,0-15.22,6.81-15.22,15.22v30.44h0c0,8.4,6.81,15.22,15.22,15.22h45.65s8.26,0,8.26,0c-2.11,2.65-4.35,5.19-6.72,7.61h-115.68s0-45.65,0-45.65h30.44s0,15.38,0,15.38h-15.22s0,15.06,0,15.06h15.22s0,0,0,0c8.4,0,15.22-6.81,15.22-15.22v-15.22h0c0-8.4-6.81-15.22-15.22-15.22h-30.44s0,0,0,0c-8.4,0-15.22,6.81-15.22,15.22v45.65s0,8.26,0,8.26c-2.65-2.11-5.19-4.35-7.61-6.72v-115.67h45.65v30.44h-15.38v-15.22h-15.06v15.22c0,8.4,6.81,15.22,15.22,15.22h15.22c8.4,0,15.22-6.81,15.22-15.22v-30.44h0c0-8.4-6.81-15.22-15.22-15.22h-53.91c2.11-2.65,4.35-5.19,6.72-7.61Zm-13.67,17.56v101.84c-9.07-14.85-14.3-32.28-14.3-50.92s5.23-36.07,14.3-50.92Zm32.78,134.62h101.84c-14.85,9.07-32.28,14.3-50.92,14.3s-36.07-5.23-50.92-14.3Z"/>
        <path class="cls-9" d="m529.99,127.42c-5.96-14.09-14.49-26.75-25.36-37.62-10.87-10.87-23.52-19.4-37.62-25.36-14.59-6.17-30.09-9.3-46.07-9.3s-31.48,3.13-46.07,9.3c-14.09,5.96-26.75,14.49-37.62,25.36-10.87,10.87-19.4,23.52-25.36,37.62-6.17,14.59-9.3,30.09-9.3,46.07s3.13,31.48,9.3,46.07c5.96,14.09,14.49,26.75,25.36,37.62,10.87,10.87,23.52,19.4,37.62,25.36,14.59,6.17,30.09,9.3,46.07,9.3s31.48-3.13,46.07-9.3c14.09-5.96,26.75-14.49,37.62-25.36,10.87-10.87,19.4-23.52,25.36-37.62,6.17-14.59,9.3-30.09,9.3-46.07s-3.13-31.48-9.3-46.07Zm-109.05,160.75c-63.24,0-114.68-51.45-114.68-114.68s51.45-114.68,114.68-114.68,114.68,51.45,114.68,114.68-51.45,114.68-114.68,114.68Z"/>
      </g>
      <g>
        <g>
          <g>
            <path class="cls-17" d="m373.44,347.64h7.17c4.35,0,7.73,1.18,7.73,5.14,0,1.86-1.05,3.84-2.76,4.47v.13c2.14.55,3.79,2.11,3.79,4.88,0,4.22-3.61,6.11-8.16,6.11h-7.77v-20.73Zm6.95,8.3c2.3,0,3.32-.96,3.32-2.47,0-1.6-1.07-2.22-3.28-2.22h-2.25v4.69h2.22Zm.43,8.81c2.58,0,3.92-.91,3.92-2.79s-1.31-2.56-3.92-2.56h-2.65v5.35h2.65Z"/>
            <path class="cls-10" d="m403.23,347.64h5.67l6.58,20.73h-5.01l-2.74-10.5c-.58-2.07-1.14-4.52-1.7-6.68h-.13c-.51,2.19-1.07,4.61-1.65,6.68l-2.75,10.5h-4.84l6.58-20.73Zm-2.24,12.15h10.08v3.64h-10.08v-3.64Zm2.54-15.4l5.49-4.44,2.51,3.02-5.91,3.77-2.09-2.34Z"/>
            <path class="cls-18" d="m423.92,347.64h4.86l5.47,10.31,2.07,4.55h.13c-.22-2.19-.61-5.1-.61-7.54v-7.32h4.51v20.73h-4.86l-5.47-10.33-2.07-4.53h-.13c.22,2.29.61,5.06.61,7.5v7.36h-4.51v-20.73Z"/>
            <path class="cls-15" d="m451.74,347.64h4.74v7.99h7.23v-7.99h4.74v20.73h-4.74v-8.65h-7.23v8.65h-4.74v-20.73Z"/>
          </g>
          <g>
            <polygon class="cls-21" points="191.71 436.94 179.36 391.74 179.36 391.53 163.67 391.53 163.67 496.41 179.36 496.41 179.36 451.31 191.71 496.41 207.4 496.41 207.4 391.53 191.71 391.53 191.71 436.94"/>
            <path class="cls-20" d="m237.73,391.53c-12.66,0-21.97,8.91-21.97,21.71v83.17h15.69v-30.84h12.24v30.84h15.69v-83.17c0-12.59-9.1-21.71-21.65-21.71Zm5.96,30.31v28h-12.24c-.1-11.33-.1-22.65-.1-33.98,0-4.93.31-8.6,6.38-8.6,1.99,0,4.29.63,5.34,2.62,1.26,2.52.63,8.92.63,11.96Z"/>
            <path class="cls-19" d="m317.54,391.53c-5.44,0-10.25,1.68-14.02,4.61-3.66-2.94-8.47-4.61-13.81-4.61-12.66,0-21.97,8.91-21.97,21.71v83.17h15.69c0-26.85-.1-53.7-.1-80.55,0-4.93.31-8.6,6.38-8.6,3.77,0,5.44,1.57,5.96,5.14-.1.21-.1.52-.1.84v83.17h15.8v-84.01c.42-3.15,1.67-5.14,6.17-5.14,2.09,0,4.39.63,5.34,2.62,1.26,2.52.73,8.92.73,11.96v74.57h15.69v-83.17c0-12.59-9.1-21.71-21.76-21.71Z"/>
            <path class="cls-5" d="m392.86,391.53h-17.99v104.88h15.69v-30.84h2.3c14.96,0,25.63-10.7,25.63-25.7v-22.65c0-15-10.67-25.7-25.63-25.7Zm9.94,49.4c-1.26,7.87-5.13,8.92-12.24,8.92v-42.58h3.35c5.75.31,8.89,4.3,8.89,9.96v23.7Z"/>
            <polygon class="cls-13" points="454.47 449.84 442.55 449.84 442.55 391.53 426.85 391.53 426.85 496.41 442.55 496.41 442.55 465.57 454.47 465.57 454.47 496.41 470.16 496.41 470.16 391.53 454.47 391.53 454.47 449.84"/>
            <path class="cls-3" d="m563.18,394.09c.88-1.06,4.7-5.83,4.7-8.22,0-2.7-2.18-4.89-4.88-4.89s-4.88,2.19-4.88,4.89c0,2.21,3.25,6.43,4.45,7.91-2.96-1.45-6.37-2.25-10.08-2.25-12.66,0-21.97,8.91-21.97,21.71v61.46c0,12.59,9.1,21.71,21.65,21.71s21.97-8.91,21.97-21.71v-61.46c0-8.6-4.25-15.59-10.95-19.15Zm-4.74,80.61c0,4.09-2.2,5.98-6.28,5.98s-5.96-2.1-5.96-5.98v-61.46c0-4.09,2.3-5.98,6.28-5.98s5.96,2.1,5.96,5.98v61.46Z"/>
            <polygon class="cls-6" points="610.54 436.94 598.2 391.74 598.2 391.53 582.51 391.53 582.51 496.41 598.2 496.41 598.2 451.31 610.54 496.41 626.23 496.41 626.23 391.53 610.54 391.53 610.54 436.94"/>
            <path class="cls-12" d="m678.22,420.05v-5.35c0-1.89,0-3.88-.31-5.77-1.99-10.7-10.67-17.41-21.34-17.41-12.66,0-21.97,8.91-21.97,21.71v61.46c0,12.59,9.1,21.71,21.65,21.71s21.97-8.91,21.97-21.71v-22.86h-23.33v15.73h7.64c0,2.1.1,4.2.1,6.29,0,4.4-1.46,6.82-6.38,6.82-3.87,0-5.96-2.1-5.96-5.98v-61.46c0-4.09,2.3-5.98,6.28-5.98,7.64,0,5.96,7.55,5.96,12.8h15.69Z"/>
            <path class="cls-16" d="m522.07,380.98c-2.69,0-4.88,2.19-4.88,4.89,0,1.46,1.43,3.81,2.74,5.66h-13.47c0,26.85.1,53.7.1,80.55,0,4.93-.31,8.6-6.38,8.6-5.75,0-6.07-3.88-6.07-8.6,0-1.99.1-3.99.1-5.87v-74.68h-15.69v83.17c0,12.59,9.1,21.71,21.65,21.71s21.97-8.91,21.97-21.71v-80.49c.63-.76,4.8-5.84,4.8-8.34,0-2.7-2.18-4.89-4.88-4.89Z"/>
          </g>
        </g>
        <g>
          <path class="cls-22" d="m318.16,519.45h8.27c1.64,0,2.86.07,3.66.2.8.14,1.52.42,2.16.85.63.43,1.16,1.01,1.59,1.73.42.72.63,1.53.63,2.42,0,.97-.26,1.86-.78,2.67-.52.81-1.23,1.42-2.12,1.82,1.26.37,2.23.99,2.91,1.88.68.88,1.02,1.92,1.02,3.12,0,.94-.22,1.86-.66,2.74-.44.89-1.03,1.6-1.79,2.13-.76.53-1.69.86-2.8.98-.7.08-2.38.12-5.04.14h-7.04v-20.69Zm4.18,3.44v4.78h2.74c1.63,0,2.64-.02,3.03-.07.72-.08,1.28-.33,1.69-.74.41-.41.61-.95.61-1.61s-.18-1.16-.53-1.56c-.35-.4-.88-.64-1.57-.73-.41-.05-1.6-.07-3.57-.07h-2.4Zm0,8.23v5.53h3.87c1.5,0,2.46-.04,2.86-.13.62-.11,1.13-.39,1.52-.83.39-.44.59-1.02.59-1.76,0-.62-.15-1.15-.45-1.58-.3-.43-.74-.75-1.31-.95-.57-.2-1.8-.3-3.7-.3h-3.37Z"/>
          <path class="cls-1" d="m375.01,540.14h-4.54l-1.81-4.7h-8.27l-1.71,4.7h-4.43l8.06-20.69h4.42l8.28,20.69Zm-7.69-8.19l-2.85-7.68-2.79,7.68h5.64Z"/>
          <path class="cls-14" d="m394.62,540.14v-20.69h4.18v9.19l8.44-9.19h5.62l-7.79,8.06,8.21,12.63h-5.4l-5.69-9.71-3.39,3.46v6.25h-4.18Z"/>
          <path class="cls-8" d="m432.77,540.14v-20.69h15.34v3.5h-11.16v4.59h10.39v3.49h-10.39v5.63h11.56v3.49h-15.73Z"/>
          <path class="cls-7" d="m469.4,540.14v-20.69h8.79c2.21,0,3.82.19,4.82.56,1,.37,1.8,1.03,2.41,1.98.6.95.9,2.04.9,3.26,0,1.55-.46,2.83-1.37,3.84-.91,1.01-2.28,1.65-4.09,1.91.9.53,1.65,1.11,2.24,1.74.59.63,1.38,1.75,2.38,3.36l2.53,4.04h-5l-3.02-4.5c-1.07-1.61-1.81-2.62-2.2-3.04s-.81-.71-1.26-.86-1.14-.23-2.1-.23h-.85v8.64h-4.18Zm4.18-11.94h3.09c2,0,3.25-.08,3.75-.25.5-.17.89-.46,1.17-.87.28-.41.42-.93.42-1.55,0-.7-.19-1.26-.56-1.69-.37-.43-.9-.7-1.57-.81-.34-.05-1.35-.07-3.05-.07h-3.26v5.25Z"/>
          <path class="cls-4" d="m511.96,540.14v-8.71l-7.58-11.98h4.9l4.87,8.19,4.77-8.19h4.81l-7.61,12.01v8.68h-4.16Z"/>
        </g>
      </g>
    </g>
  </g>
</svg>