<?xml version="1.0" encoding="UTF-8"?>
<svg id="Layer_1" data-name="Layer 1" xmlns="http://www.w3.org/2000/svg" xmlns:xlink="http://www.w3.org/1999/xlink" viewBox="0 0 841.89 595.28">
  <defs>
    <style>
      .cls-1 {
        fill: url(#linear-gradient-12);
      }

      .cls-1, .cls-2, .cls-3, .cls-4, .cls-5, .cls-6, .cls-7, .cls-8, .cls-9, .cls-10, .cls-11, .cls-12, .cls-13, .cls-14, .cls-15, .cls-16, .cls-17, .cls-18, .cls-19, .cls-20, .cls-21, .cls-22, .cls-23, .cls-24, .cls-25, .cls-26, .cls-27, .cls-28, .cls-29 {
        stroke-width: 0px;
      }

      .cls-2 {
        fill: url(#linear-gradient-17);
      }

      .cls-3 {
        fill: url(#linear-gradient-19);
      }

      .cls-4 {
        fill: url(#linear-gradient);
      }

      .cls-5 {
        fill: url(#linear-gradient-21);
      }

      .cls-6 {
        fill: url(#linear-gradient-6);
      }

      .cls-7 {
        fill: url(#linear-gradient-15);
      }

      .cls-8 {
        fill: url(#linear-gradient-11);
      }

      .cls-9 {
        fill: url(#linear-gradient-5);
      }

      .cls-10 {
        fill: url(#linear-gradient-13);
      }

      .cls-11 {
        fill: url(#linear-gradient-23);
      }

      .cls-12 {
        fill: url(#linear-gradient-25);
      }

      .cls-13 {
        fill: url(#linear-gradient-16);
      }

      .cls-14 {
        fill: url(#linear-gradient-22);
      }

      .cls-15 {
        fill: url(#linear-gradient-20);
      }

      .cls-16 {
        fill: url(#linear-gradient-14);
      }

      .cls-17 {
        fill: url(#linear-gradient-2);
      }

      .cls-18 {
        fill: url(#linear-gradient-7);
      }

      .cls-19 {
        fill: url(#linear-gradient-3);
      }

      .cls-20 {
        fill: url(#linear-gradient-9);
      }

      .cls-21 {
        fill: url(#linear-gradient-27);
      }

      .cls-22 {
        fill: url(#linear-gradient-8);
      }

      .cls-23 {
        fill: url(#linear-gradient-24);
      }

      .cls-24 {
        fill: url(#linear-gradient-26);
      }

      .cls-25 {
        fill: url(#linear-gradient-18);
      }

      .cls-26 {
        fill: url(#linear-gradient-29);
      }

      .cls-27 {
        fill: url(#linear-gradient-28);
      }

      .cls-28 {
        fill: url(#linear-gradient-10);
      }

      .cls-29 {
        fill: url(#linear-gradient-4);
      }
    </style>
    <linearGradient id="linear-gradient" x1="86.03" y1="207.62" x2="144.02" y2="308.06" gradientUnits="userSpaceOnUse">
      <stop offset="0" stop-color="#f5db7e"/>
      <stop offset=".43" stop-color="#c59f58"/>
      <stop offset="1" stop-color="#936132"/>
    </linearGradient>
    <linearGradient id="linear-gradient-2" x1="158.83" y1="232.08" x2="212.68" y2="325.33" xlink:href="#linear-gradient"/>
    <linearGradient id="linear-gradient-3" x1="247.19" y1="232.93" x2="298.27" y2="321.41" xlink:href="#linear-gradient"/>
    <linearGradient id="linear-gradient-4" x1="341.91" y1="219.79" x2="400.35" y2="321.01" xlink:href="#linear-gradient"/>
    <linearGradient id="linear-gradient-5" x1="442.01" y1="234.34" x2="493.28" y2="323.15" xlink:href="#linear-gradient"/>
    <linearGradient id="linear-gradient-6" x1="532.61" y1="227.04" x2="600.32" y2="344.32" xlink:href="#linear-gradient"/>
    <linearGradient id="linear-gradient-7" x1="629.65" y1="232.07" x2="683.49" y2="325.33" xlink:href="#linear-gradient"/>
    <linearGradient id="linear-gradient-8" x1="698.61" y1="249.76" x2="756.24" y2="349.57" xlink:href="#linear-gradient"/>
    <linearGradient id="linear-gradient-9" x1="166.98" y1="357.37" x2="184.97" y2="388.54" xlink:href="#linear-gradient"/>
    <linearGradient id="linear-gradient-10" x1="191.45" y1="352.48" x2="213.77" y2="391.13" xlink:href="#linear-gradient"/>
    <linearGradient id="linear-gradient-11" x1="234.11" y1="349.45" x2="253.4" y2="382.87" xlink:href="#linear-gradient"/>
    <linearGradient id="linear-gradient-12" x1="261.36" y1="355.04" x2="282.01" y2="390.81" xlink:href="#linear-gradient"/>
    <linearGradient id="linear-gradient-13" x1="293.92" y1="358.59" x2="310.85" y2="387.92" xlink:href="#linear-gradient"/>
    <linearGradient id="linear-gradient-14" x1="324.54" y1="353.42" x2="344.02" y2="387.15" xlink:href="#linear-gradient"/>
    <linearGradient id="linear-gradient-15" x1="357.87" y1="351.51" x2="382.64" y2="394.41" xlink:href="#linear-gradient"/>
    <linearGradient id="linear-gradient-16" x1="396.28" y1="355.04" x2="416.93" y2="390.81" xlink:href="#linear-gradient"/>
    <linearGradient id="linear-gradient-17" x1="430.17" y1="352.47" x2="452.49" y2="391.13" xlink:href="#linear-gradient"/>
    <linearGradient id="linear-gradient-18" x1="467.38" y1="353.43" x2="486.85" y2="387.15" xlink:href="#linear-gradient"/>
    <linearGradient id="linear-gradient-19" x1="515.11" y1="357.71" x2="533.03" y2="388.74" xlink:href="#linear-gradient"/>
    <linearGradient id="linear-gradient-20" x1="542.66" y1="355.79" x2="565.13" y2="394.71" xlink:href="#linear-gradient"/>
    <linearGradient id="linear-gradient-21" x1="583.71" y1="358.25" x2="600.71" y2="387.69" xlink:href="#linear-gradient"/>
    <linearGradient id="linear-gradient-22" x1="620.35" y1="351.1" x2="640.48" y2="385.97" xlink:href="#linear-gradient"/>
    <linearGradient id="linear-gradient-23" x1="648.81" y1="355.97" x2="666.81" y2="387.14" xlink:href="#linear-gradient"/>
    <linearGradient id="linear-gradient-24" x1="124.6" y1="363.63" x2="137.55" y2="386.06" xlink:href="#linear-gradient"/>
    <linearGradient id="linear-gradient-25" x1="90.9" y1="363.63" x2="103.85" y2="386.06" xlink:href="#linear-gradient"/>
    <linearGradient id="linear-gradient-26" x1="57.21" y1="363.63" x2="70.16" y2="386.06" xlink:href="#linear-gradient"/>
    <linearGradient id="linear-gradient-27" x1="773.4" y1="363.63" x2="786.35" y2="386.06" xlink:href="#linear-gradient"/>
    <linearGradient id="linear-gradient-28" x1="739.71" y1="363.63" x2="752.66" y2="386.06" xlink:href="#linear-gradient"/>
    <linearGradient id="linear-gradient-29" x1="706.01" y1="363.63" x2="718.96" y2="386.06" xlink:href="#linear-gradient"/>
  </defs>
  <path class="cls-4" d="m122.48,232.97l.57.09c.57.1.97.17,1.23.22,3.17.51,5.44,1.36,6.73,2.54,1.24,1.14,1.87,2.32,1.87,3.51,0,2.07-1.13,5.9-3.35,11.38l-22.51,55.22-24.28-55.96c-2.17-4.99-3.27-8.7-3.27-11,0-1.53.58-2.76,1.78-3.74,1.24-1.02,4.08-1.74,8.45-2.16l.61-.06v-3.97h-41.38v3.98l.62.05c2.89.23,5.2.76,6.88,1.56,1.66.79,3.07,1.91,4.21,3.32.5.63,1.58,2.49,3.88,7.79l36.88,84.87h3.57l34.35-83.8c1.93-4.75,4.16-8.31,6.62-10.59,1.68-1.5,4.22-2.56,7.54-3.16l.56-.1v-3.92h-31.56v3.93Z"/>
  <path class="cls-17" d="m207.42,324.34h-4.22c-2.18,0-4.29-.55-6.24-1.65-1.4-.78-2.32-1.71-2.74-2.76-.59-1.5-.89-4.72-.89-9.58v-63.29c0-7.09.9-9.74,1.66-10.71,1.69-2.17,4.45-3.28,8.21-3.28h4.22v-4.03h-43.33v4.03h4.15c2.19,0,4.31.56,6.31,1.64,1.35.78,2.25,1.72,2.67,2.77.59,1.5.89,4.72.89,9.58v63.29c0,7.1-.87,9.75-1.59,10.71-1.69,2.17-4.47,3.28-8.28,3.28h-4.15v4.03h43.33v-4.03Z"/>
  <path class="cls-19" d="m269.3,330.61c9.09,0,17.06-2.08,23.69-6.17,6.62-4.09,12.49-10.61,17.43-19.39l.31-.56-3.32-2.14-.38.52c-5.74,7.97-11.07,13.36-15.82,16.02-4.74,2.65-10.29,4-16.5,4-7.16,0-13.62-1.72-19.19-5.1-5.56-3.38-9.78-8.31-12.55-14.65-2.79-6.38-4.21-14.04-4.21-22.78,0-10.6,1.5-19.58,4.46-26.69,2.94-7.06,7.02-12.26,12.12-15.47,5.12-3.21,10.93-4.84,17.27-4.84,7.56,0,14.13,2.16,19.52,6.43,5.4,4.27,9.63,11.41,12.56,21.19l.15.48h3.47l-2.33-34.66h-3.7l-.12.53c-.5,2.18-1.34,3.9-2.48,5.08-.84.8-1.8,1.19-2.93,1.19-.52,0-1.64-.26-4.03-1.52-6.95-3.5-14.1-5.27-21.26-5.27-9.18,0-17.77,2.3-25.52,6.85-7.76,4.55-13.93,11.04-18.35,19.3-4.42,8.25-6.66,17.42-6.66,27.27,0,12.23,3.4,23.01,10.1,32.05,9,12.17,21.88,18.34,38.26,18.34Z"/>
  <path class="cls-29" d="m328.78,252.75c.33-4.29,1.36-7.73,3.06-10.22,1.69-2.47,3.75-4.16,6.1-5.02,1.85-.65,5.05-.97,9.53-.97h11.1v74.17c0,6.63-.8,9.19-1.47,10.16-1.59,2.3-4.37,3.46-8.26,3.46h-4.15v4.03h42.9v-4.03h-4.07c-3.59,0-6.26-.95-7.94-2.8-.81-.93-1.78-3.57-1.78-10.83v-74.17h13.12c3.91,0,7.1.64,9.47,1.91,2.35,1.25,4.26,3.24,5.68,5.9.87,1.66,1.58,4.5,2.1,8.44l.08.59h4.05l-1.15-24.33h-81.27l-1.23,24.33h4.09l.05-.63Z"/>
  <path class="cls-9" d="m502.17,241.49c-9.41-9.75-20.7-14.69-33.54-14.69s-24.19,4.36-33.48,12.97c-10.69,9.91-16.11,22.89-16.11,38.57s4.69,28.01,13.95,37.68c9.27,9.68,20.87,14.59,34.48,14.59s25.11-5.03,34.59-14.95c9.47-9.91,14.28-22.54,14.28-37.53s-4.77-26.89-14.17-36.63Zm-3.73,38.58c0,15.23-2.97,26.5-8.83,33.52-5.83,6.98-13.33,10.52-22.27,10.52-8.37,0-15.19-3.22-20.28-9.57-6.71-8.46-10.11-20.73-10.11-36.5s3.28-27.19,9.75-35.12c5.14-6.31,12.06-9.5,20.57-9.5,9.08,0,16.3,3.22,21.43,9.57,6.47,8.07,9.75,20.55,9.75,37.07Z"/>
  <path class="cls-6" d="m572.47,324.34h-4.51c-3.44,0-6.04-.99-7.73-2.96-.84-.93-1.85-3.6-1.85-11.03v-27.75c.52.03,1.04.05,1.54.07.73.03,1.41.04,2.05.04,1.47,0,3.38-.04,5.66-.13l32.95,45.51.2.28h27.18v-3.96l-.61-.07c-5.22-.56-9.49-1.89-12.71-3.94-3.23-2.06-7.18-6.33-11.73-12.68l-19.63-27.28c7.84-1.89,13.76-5.04,17.6-9.37,4.02-4.54,6.06-9.97,6.06-16.13,0-5.77-1.79-10.82-5.33-15-3.51-4.15-7.85-7.04-12.89-8.59-4.98-1.53-12.79-2.31-23.21-2.31h-36.37v4.03h4.36c3.49,0,6.14.99,7.88,2.96.84.93,1.85,3.61,1.85,11.03v63.29c0,6.75-.76,9.3-1.4,10.25-1.67,2.52-4.39,3.74-8.32,3.74h-4.36v4.03h43.33v-4.03Zm-14.09-47.68v-39.51c4.45-.83,8.04-1.26,10.66-1.26,6.09,0,11.05,1.87,14.73,5.54,3.68,3.68,5.54,8.54,5.54,14.44s-2.31,11.05-6.88,14.94c-4.59,3.92-11.56,5.91-20.69,5.91-.43,0-.97-.01-1.64-.04-.51-.02-1.08-.03-1.73-.03Z"/>
  <path class="cls-18" d="m634.9,233.07h4.15c2.19,0,4.31.56,6.31,1.64,1.35.78,2.25,1.72,2.67,2.77.59,1.5.89,4.73.89,9.58v63.29c0,7.1-.87,9.75-1.59,10.71-1.69,2.17-4.47,3.28-8.28,3.28h-4.15v4.03h43.33v-4.03h-4.22c-2.19,0-4.29-.55-6.24-1.65-1.4-.78-2.32-1.71-2.74-2.76-.59-1.5-.89-4.72-.89-9.58v-63.29c0-7.09.9-9.74,1.66-10.71,1.69-2.17,4.45-3.28,8.21-3.28h4.22v-4.03h-43.33v4.03Z"/>
  <path class="cls-22" d="m792.32,324.34c-3.83-.23-6.84-1.28-8.95-3.12-2.15-1.87-4.61-6.08-7.3-12.5l-34.1-81.5-.17-.42h-3.43l-34.64,81.04c-2.94,6.96-5.63,11.62-8.01,13.86-1.1,1.06-3.65,1.94-7.59,2.64l-.56.1v3.92h32.21v-3.98l-.63-.04c-4.56-.33-7.53-1.02-8.84-2.06-1.26-1-1.88-2.12-1.88-3.41,0-1.78.81-4.55,2.4-8.26l6.47-15.05h37.03l5.75,13.67c1.88,4.47,2.83,7.76,2.83,9.78,0,1.39-.59,2.54-1.81,3.52-1.25,1.01-3.78,1.62-7.52,1.8l-.65.03v4h40.01v-3.99l-.64-.04Zm-40.58-35.48h-31.62l16.01-37.18,15.6,37.18Z"/>
  <path class="cls-20" d="m168.53,358.7h1.8c.64,0,1.23.16,1.8.47.35.2.57.42.67.66.1.24.26.95.26,2.92v20.41c0,2.36-.3,3.01-.42,3.17-.46.59-1.21.88-2.31.88h-1.8v2.22h14.9v-2.22h-1.82c-.63,0-1.22-.15-1.79-.47-.36-.2-.59-.42-.68-.66-.1-.24-.26-.94-.26-2.92v-20.41c0-2.36.31-3,.44-3.17.46-.59,1.21-.88,2.28-.88h1.82v-2.22h-14.9v2.22Z"/>
  <path class="cls-28" d="m207.93,358.7h1.77c1.03,0,1.78.25,2.22.75.11.12.48.72.48,3.18v16.32l-18.32-22.47h-9.58v2.22h.68c1.05,0,1.59.1,1.84.18.84.27,1.48.56,1.9.86.28.2.82.68,1.8,1.82v21.72c0,2.21-.27,2.84-.39,3.02-.43.62-1.18.92-2.31.92h-1.77v2.22h12.35v-2.22h-1.8c-1.02,0-1.77-.25-2.22-.75-.11-.12-.46-.72-.46-3.19v-17.56l19.83,24.23h1.84v-27.31c0-2.21.27-2.85.39-3.02.43-.62,1.17-.92,2.28-.92h1.8v-2.22h-12.36v2.22Z"/>
  <path class="cls-8" d="m245.66,358.6l.57.09c.18.03.3.05.4.07,1.16.18,1.69.49,1.93.7.3.28.46.54.46.79,0,.42-.18,1.36-1.04,3.5l-6.85,16.8-7.4-17.05c-.84-1.93-1.02-2.9-1.02-3.37,0-.36.12-.62.4-.85.15-.12.69-.42,2.48-.59l.61-.06v-2.16h-14.27v2.17l.62.05c.88.07,1.57.23,2.06.46.48.23.87.54,1.2.94.1.12.4.6,1.19,2.41l12.01,27.65h1.76l11.2-27.31c.6-1.47,1.28-2.56,2.01-3.25.48-.43,1.22-.73,2.21-.91l.56-.1v-2.11h-11.1v2.12Z"/>
  <path class="cls-1" d="m285.09,380.52c-.97,1.87-1.93,3.28-2.83,4.19-.66.65-1.35,1.09-2.06,1.3-.74.23-1.98.34-3.69.34h-5.36c-1.05,0-1.36-.13-1.43-.18-.18-.1-.3-.23-.36-.39-.02-.06-.14-.44-.14-2.29v-9.74h6.27c1.21,0,2.1.13,2.64.4.51.25.86.57,1.07.97.1.21.32.84.59,2.75l.08.58h2.13v-12.36h-2.18l-.03.64c-.08,1.61-.46,2.72-1.13,3.31-.27.24-1.03.64-3.16.64h-6.27v-11.13h7.99c1.84,0,2.67.17,3.02.3.65.27,1.13.65,1.45,1.16.24.38.61,1.24.99,3.19l.11.55h2.18l-.42-8.28h-25.67v2.22h1.8c1.1,0,1.87.24,2.28.7.1.12.44.7.44,3.26v20.53c0,1.9-.14,2.59-.23,2.82-.12.33-.34.57-.69.75-.57.31-1.16.46-1.8.46h-1.8v2.22h25.51l3.19-9.28h-2.29l-.19.37Z"/>
  <path class="cls-10" d="m310.66,373.55c-1.12-.88-3.13-2.09-6.15-3.71-3.53-1.89-5.77-3.4-6.68-4.5-.57-.67-.84-1.39-.84-2.19,0-1.07.45-2.01,1.37-2.87.93-.87,2.09-1.3,3.54-1.3,1.31,0,2.59.34,3.82,1.01,1.22.67,2.17,1.58,2.83,2.7.67,1.16,1.15,2.76,1.42,4.76l.08.59h2.13v-12.29h-2.09l-.11.54c-.17.82-.36,1.05-.42,1.1-.08.08-.22.18-.53.18-.12,0-.51-.05-1.57-.53-1.96-.86-3.85-1.29-5.61-1.29-2.85,0-5.25.89-7.11,2.64-1.87,1.76-2.82,3.9-2.82,6.35,0,1.42.33,2.73.97,3.91.63,1.16,1.56,2.24,2.77,3.19,1.17.92,3.14,2.16,5.86,3.68,3.31,1.86,4.48,2.61,4.89,2.92.82.62,1.43,1.29,1.81,2,.37.69.56,1.37.56,2.03,0,1.21-.48,2.24-1.47,3.13-.99.9-2.39,1.36-4.15,1.36-1.56,0-3.01-.35-4.31-1.04-1.29-.68-2.26-1.55-2.87-2.56-.64-1.05-1.16-2.68-1.54-4.86l-.1-.56h-2.11v12.19h2.12l.09-.58c.13-.86.3-1.05.32-1.07.06-.06.17-.14.43-.14.15,0,.71.07,2.67.7,1.56.5,2.58.79,3.09.87.83.15,1.74.22,2.7.22,3.08,0,5.65-.94,7.63-2.78,1.99-1.86,3-4.11,3-6.68,0-1.36-.32-2.68-.95-3.92-.63-1.23-1.53-2.32-2.68-3.22Z"/>
  <path class="cls-16" d="m319.25,356.48l-.44,8.77h2.23l.05-.63c.1-1.3.4-2.33.91-3.07.5-.73,1.07-1.2,1.74-1.44.37-.13,1.18-.29,2.92-.29h3.12v23.46c0,2.21-.27,2.85-.39,3.02-.43.62-1.18.92-2.29.92h-1.8v2.22h14.76v-2.22h-1.77c-1.02,0-1.77-.25-2.22-.75-.11-.12-.46-.72-.46-3.19v-23.46h3.77c1.19,0,2.14.19,2.84.56.69.37,1.22.93,1.64,1.71.18.33.43,1.05.63,2.57l.08.59h2.19l-.41-8.77h-27.09Z"/>
  <path class="cls-7" d="m370.34,380.26l-11.03-23.78h-10.06v2.22h.68c1.46,0,2.16.21,2.49.38.45.23.75.51.91.83.18.36.39,1.12.39,2.73v20.65c0,2.21-.27,2.84-.39,3.02-.43.62-1.18.92-2.29.92h-1.8v2.22h12.36v-2.22h-1.8c-1.03,0-1.78-.25-2.22-.75-.11-.12-.46-.72-.46-3.19v-18.01l11.1,24.17h1.64l11.07-24.16v18c0,2.21-.27,2.84-.4,3.02-.41.61-1.16.91-2.28.91h-1.8v2.22h14.78v-2.22h-1.77c-1.03,0-1.78-.25-2.22-.76-.11-.12-.48-.72-.48-3.18v-20.65c0-2.21.27-2.85.39-3.02.43-.62,1.18-.92,2.31-.92h1.77v-2.22h-10.06l-10.85,23.78Z"/>
  <path class="cls-13" d="m420.01,380.52c-.98,1.87-1.93,3.29-2.83,4.19-.66.65-1.35,1.09-2.06,1.3-.74.23-1.98.34-3.69.34h-5.36c-1.05,0-1.36-.13-1.43-.18-.18-.1-.3-.23-.36-.39-.02-.06-.14-.45-.14-2.29v-9.74h6.27c1.21,0,2.1.13,2.64.4.51.25.86.57,1.06.97.1.21.32.84.59,2.75l.08.58h2.13v-12.36h-2.18l-.03.64c-.08,1.6-.46,2.71-1.13,3.3-.33.29-1.14.64-3.16.64h-6.27v-11.13h7.99c1.84,0,2.68.17,3.02.3.65.27,1.13.65,1.45,1.16.24.38.61,1.24.99,3.19l.11.55h2.18l-.42-8.28h-25.67v2.22h1.8c1.1,0,1.87.24,2.28.7.07.08.44.64.44,3.26v20.53c0,1.91-.14,2.59-.23,2.82-.12.33-.34.57-.7.75-.57.31-1.16.45-1.8.45h-1.8v2.22h25.51l3.19-9.28h-2.29l-.19.37Z"/>
  <path class="cls-2" d="m446.66,358.7h1.77c1.03,0,1.78.25,2.22.75.11.12.48.72.48,3.18v16.32l-18.32-22.47h-9.58v2.22h.68c1.05,0,1.59.1,1.84.18.84.27,1.48.56,1.9.86.28.2.82.69,1.8,1.82v21.72c0,2.21-.27,2.84-.39,3.01-.43.62-1.18.92-2.31.92h-1.77v2.22h12.36v-2.22h-1.8c-1.02,0-1.77-.25-2.21-.75-.11-.12-.46-.72-.46-3.19v-17.56l19.63,23.98.2.25h1.84v-27.31c0-2.21.27-2.85.39-3.02.43-.62,1.18-.92,2.29-.92h1.8v-2.22h-12.36v2.22Z"/>
  <path class="cls-25" d="m462.09,356.48l-.44,8.77h2.23l.05-.63c.1-1.3.4-2.33.91-3.07.5-.73,1.07-1.2,1.74-1.44.37-.13,1.18-.29,2.92-.29h3.12v23.46c0,2.21-.27,2.84-.39,3.02-.43.62-1.18.92-2.29.92h-1.8v2.22h14.76v-2.22h-1.77c-1.02,0-1.77-.25-2.21-.75-.11-.12-.46-.72-.46-3.19v-23.46h3.77c1.18,0,2.14.19,2.84.56.69.37,1.22.93,1.64,1.71.18.33.43,1.05.63,2.57l.08.59h2.19l-.41-8.77h-27.09Z"/>
  <path class="cls-3" d="m525.83,373.08h.68c1.44,0,2.08.17,2.36.31.37.19.64.46.82.81.11.22.29.88.29,2.81v8.73c-.85.45-1.74.81-2.64,1.05-1.02.28-2.1.42-3.2.42-1.85,0-3.69-.55-5.46-1.63-1.76-1.08-3.22-2.82-4.32-5.17-1.12-2.38-1.68-5.06-1.68-7.96,0-3.56.85-6.67,2.52-9.23,1.98-3.01,4.8-4.47,8.61-4.47,2.79,0,5.01.83,6.78,2.54,1.22,1.18,2.23,2.97,3.02,5.34l.15.47h2.04l-.93-11.33h-2.13l-.04.64c-.06.93-.21,1.18-.24,1.22-.11.14-.18.14-.22.14-.07,0-.4-.03-1.51-.45-1.74-.64-3.12-1.07-4.1-1.26-.98-.19-2.08-.29-3.27-.29-3.26,0-6.14.71-8.55,2.12-2.86,1.69-5.15,4.13-6.78,7.26-1.38,2.64-2.08,5.43-2.08,8.31,0,3.98,1.25,7.54,3.72,10.59,3.29,4.06,8.15,6.12,14.44,6.12,2.17,0,4.18-.24,5.97-.7,1.79-.46,3.62-1.2,5.44-2.18l.36-.19v-10.07c0-2.06.24-2.81.38-3.07.32-.58.95-.86,1.9-.86h1.26v-2.24h-13.59v2.24Z"/>
  <path class="cls-15" d="m569.75,386.02c-.99-.63-2.22-1.97-3.66-3.97l-5.94-8.25c2.3-.64,4.06-1.65,5.26-2.99,1.37-1.55,2.07-3.4,2.07-5.51,0-1.97-.62-3.7-1.83-5.13-1.19-1.41-2.66-2.39-4.37-2.92-1.67-.51-4.17-.76-7.62-.76h-12.19v2.22h1.87c1,0,1.72.26,2.2.8.11.12.48.73.48,3.25v20.41c0,2.25-.26,2.88-.38,3.05-.44.67-1.2,1-2.3,1h-1.87v2.22h14.9v-2.22h-1.91c-.98,0-1.68-.26-2.15-.8-.11-.12-.48-.72-.48-3.25v-8.47h.02c.24,0,.47.01.68.01.43,0,.96-.01,1.6-.03l10.69,14.76h9.46v-2.15l-.61-.07c-1.61-.17-2.93-.58-3.9-1.2Zm-8.87-20.42c0,1.83-.67,3.29-2.06,4.47-1.4,1.19-3.54,1.79-6.38,1.79-.13,0-.3,0-.51,0-.04,0-.08,0-.12,0v-11.91c1.24-.22,2.24-.33,2.98-.33,1.87,0,3.31.54,4.43,1.65,1.11,1.11,1.65,2.53,1.65,4.33Z"/>
  <path class="cls-5" d="m592.53,355.76c-4.29,0-8.03,1.45-11.11,4.31-3.55,3.29-5.34,7.59-5.34,12.78s1.56,9.26,4.63,12.47c3.08,3.22,6.93,4.85,11.45,4.85s8.34-1.67,11.49-4.96c3.14-3.29,4.73-7.46,4.73-12.42s-1.58-8.9-4.7-12.13c-3.12-3.24-6.88-4.88-11.15-4.88Zm9.16,17.64c0,4.8-.92,8.34-2.74,10.52-1.81,2.17-4.05,3.23-6.83,3.23-2.59,0-4.61-.95-6.18-2.91-2.1-2.64-3.16-6.51-3.16-11.49s1.02-8.56,3.04-11.04c1.59-1.95,3.64-2.9,6.28-2.9,2.82,0,4.97.95,6.55,2.91,2.02,2.52,3.04,6.45,3.04,11.67Z"/>
  <path class="cls-14" d="m633.53,358.7h1.87c1,0,1.72.26,2.19.79.11.13.48.75.48,3.26v12.79c0,3.25-.28,5.56-.84,6.88-.53,1.26-1.56,2.31-3.05,3.13-1.52.84-3.28,1.27-5.22,1.27-1.5,0-2.77-.26-3.78-.79-1-.52-1.78-1.18-2.3-1.96-.53-.8-.91-1.95-1.12-3.42-.22-1.54-.33-2.93-.33-4.12v-13.77c0-2.13.29-2.86.46-3.12.43-.63,1.16-.94,2.23-.94h1.89v-2.22h-15.01v2.22h1.87c.99,0,1.69.23,2.09.68.24.27.63,1.06.63,3.37v12.35c0,3.92.26,6.54.79,8.02.79,2.15,2.16,3.88,4.06,5.15,1.89,1.27,4.66,1.91,8.23,1.91,3.29,0,5.95-.67,7.89-1.99,1.95-1.33,3.29-2.95,3.96-4.83.65-1.81.98-4.37.98-7.6v-12.82c0-2.19.26-2.81.38-2.99.54-.84,1.29-1.25,2.29-1.25h1.87v-2.22h-12.54v2.22Z"/>
  <path class="cls-11" d="m667.11,357.39c-1.7-.61-4.03-.92-6.92-.92h-12.26v2.22h1.87c1,0,1.72.26,2.19.79.11.12.46.73.46,3.26v20.41c0,2.26-.25,2.89-.35,3.05-.44.67-1.2,1-2.3,1h-1.87v2.22h14.9v-2.22h-1.89c-1,0-1.71-.26-2.18-.8-.11-.12-.48-.73-.48-3.25v-8.37c.72.14,1.42.25,2.08.33.91.11,1.76.17,2.55.17,3.27,0,5.86-.88,7.68-2.61,1.83-1.74,2.76-4.02,2.76-6.79,0-2.04-.62-3.84-1.83-5.34-1.19-1.48-2.68-2.54-4.42-3.16Zm-8.83,2.64c.95-.2,1.75-.31,2.37-.31,1.18,0,2.24.26,3.16.79.9.51,1.6,1.29,2.1,2.33.51,1.08.77,2.26.77,3.52,0,1.83-.51,3.26-1.58,4.4-1.05,1.12-2.26,1.66-3.69,1.66-.42,0-.92-.04-1.55-.11-.48-.06-1.01-.14-1.59-.24v-12.04Z"/>
  <polygon class="cls-23" points="134.33 368.67 130.24 360.38 126.15 368.67 117 370 123.62 376.45 122.06 385.56 130.24 381.26 138.42 385.56 136.86 376.45 143.48 370 134.33 368.67"/>
  <polygon class="cls-12" points="100.63 368.67 96.54 360.38 92.45 368.67 83.3 370 89.92 376.45 88.36 385.56 96.54 381.26 104.73 385.56 103.16 376.45 109.78 370 100.63 368.67"/>
  <polygon class="cls-24" points="66.94 368.67 62.85 360.38 58.76 368.67 49.61 370 56.23 376.45 54.66 385.56 62.85 381.26 71.03 385.56 69.47 376.45 76.09 370 66.94 368.67"/>
  <polygon class="cls-21" points="783.13 368.67 779.04 360.38 774.95 368.67 765.8 370 772.42 376.45 770.86 385.56 779.04 381.26 787.23 385.56 785.66 376.45 792.28 370 783.13 368.67"/>
  <polygon class="cls-27" points="749.44 368.67 745.35 360.38 741.26 368.67 732.11 370 738.73 376.45 737.16 385.56 745.35 381.26 753.53 385.56 751.97 376.45 758.59 370 749.44 368.67"/>
  <polygon class="cls-26" points="715.74 368.67 711.65 360.38 707.56 368.67 698.41 370 705.03 376.45 703.47 385.56 711.65 381.26 719.83 385.56 718.27 376.45 724.89 370 715.74 368.67"/>
</svg>