<?xml version="1.0" encoding="UTF-8"?>
<svg id="Layer_1" data-name="Layer 1" xmlns="http://www.w3.org/2000/svg" viewBox="0 0 595.28 595.28">
  <defs>
    <style>
      .cls-1 {
        fill: #cc9860;
        stroke-width: 0px;
      }
    </style>
  </defs>
  <g>
    <g>
      <path class="cls-1" d="m289.61,331.42c0-7.38,3.77-13.41,8.43-13.41h0c4.66,0,8.43,6.03,8.43,13.41l-8.43,210.98-8.43-210.98Z"/>
      <g>
        <path class="cls-1" d="m332.73,208.52c0,57.04-34.68,103.29-34.68,103.29,0,0-34.71-46.26-34.71-103.29s34.71-103.23,34.71-103.23c0,0,34.68,46.15,34.68,103.23Z"/>
        <g>
          <g>
            <path class="cls-1" d="m257.17,209.87c.11-17.88,3.47-34.63,8.08-49.17-15.3-19.87-31.94-33.23-39.18-38.62-2.12,8.94-6.41,30.53-5.11,56.33,12.41,8.07,25.15,18.42,36.22,31.45Z"/>
            <path class="cls-1" d="m197.79,258.66c-10.88-13.19-18.85-27.46-24.61-41.04-16.91-3.61-32.05-4.41-42.17-4.41-4.68,0-8.51.21-11.2.38,3.9,7.86,13.89,26.01,30.24,44.21,6.92-.86,14.19-1.34,21.73-1.34,8.94,0,17.67.75,26.01,2.21Z"/>
            <path class="cls-1" d="m275.21,311.49c-18.12-6.74-46.8-20.41-70.25-44.86-2.45-.59-4.93-1.08-7.4-1.51-8.27-1.5-16.94-2.2-25.77-2.2-5.52,0-10.96.27-16.21.75-2.74.33-5.47.64-8.1,1.03-24.16,3.39-43.43,10.93-51.51,14.43,10.42,9.91,45.21,39.96,90.66,47.94,8.24,1.45,16.91,2.21,25.72,2.21,25.58,0,48.52-6.14,63.22-11.31,3.37-1.19,6.3-2.32,8.75-3.29-2.55-.81-5.65-1.88-9.1-3.17Z"/>
          </g>
          <path class="cls-1" d="m253.29,215.2c-29.72-35.44-73.08-50.41-86.87-54.5,1.64,14.27,8.94,59.62,38.64,94.99,27.5,32.75,66.7,48.09,83.31,53.37-9.02-14.1-27.17-47.23-29.97-87.3-1.65-2.2-3.34-4.42-5.12-6.57Z"/>
        </g>
        <g>
          <g>
            <path class="cls-1" d="m338.11,209.87c-.11-17.88-3.47-34.63-8.08-49.17,15.29-19.87,31.93-33.23,39.18-38.62,2.12,8.94,6.4,30.53,5.11,56.33-12.41,8.07-25.15,18.42-36.22,31.45Z"/>
            <path class="cls-1" d="m397.48,258.66c10.88-13.19,18.85-27.46,24.61-41.04,16.91-3.61,32.04-4.41,42.17-4.41,4.68,0,8.51.21,11.2.38-3.91,7.86-13.89,26.01-30.24,44.21-6.92-.86-14.19-1.34-21.73-1.34-8.94,0-17.66.75-26.01,2.21Z"/>
            <path class="cls-1" d="m320.07,311.49c18.12-6.74,46.8-20.41,70.25-44.86,2.45-.59,4.92-1.08,7.4-1.51,8.27-1.5,16.94-2.2,25.77-2.2,5.52,0,10.96.27,16.22.75,2.75.33,5.47.64,8.11,1.03,24.15,3.39,43.43,10.93,51.51,14.43-10.42,9.91-45.19,39.96-90.67,47.94-8.23,1.45-16.91,2.21-25.71,2.21-25.58,0-48.52-6.14-63.23-11.31-3.37-1.19-6.3-2.32-8.75-3.29,2.56-.81,5.65-1.88,9.1-3.17Z"/>
          </g>
          <path class="cls-1" d="m341.99,215.2c29.73-35.44,73.08-50.41,86.87-54.5-1.65,14.27-8.94,59.62-38.64,94.99-27.49,32.75-66.7,48.09-83.31,53.37,9.02-14.1,27.17-47.23,29.97-87.3,1.64-2.2,3.34-4.42,5.11-6.57Z"/>
        </g>
      </g>
    </g>
    <g>
      <path class="cls-1" d="m297.64,52.88c-3.77,0-6.81,3.01-6.81,6.79s3.04,6.84,6.81,6.84,6.81-3.07,6.81-6.84-3.04-6.79-6.81-6.79Z"/>
      <path class="cls-1" d="m257.87,91.28c-3.74,0-6.79,3.06-6.79,6.84s3.04,6.79,6.79,6.79,6.81-3.02,6.81-6.79-3.04-6.84-6.81-6.84Z"/>
      <path class="cls-1" d="m337.39,91.28c-3.74,0-6.79,3.06-6.79,6.84s3.04,6.79,6.79,6.79,6.81-3.02,6.81-6.79-3.04-6.84-6.81-6.84Z"/>
    </g>
  </g>
  <g>
    <g>
      <path class="cls-1" d="m388.06,393.29h25.65c2.83,0,5.49.43,7.97,1.45,2.48.92,4.68,2.32,6.57,3.99,1.89,1.72,3.37,3.66,4.44,5.93,1.05,2.25,1.59,4.68,1.59,7.26s-.53,4.96-1.59,7.21c-1.08,2.27-2.56,4.26-4.44,5.93-1.89,1.62-4.09,2.96-6.57,3.99-2.48.92-5.14,1.4-7.97,1.4h-17.72v35.15h-7.94v-72.32Zm7.94,2.86v31.46h14.14c2.37,0,4.6-.43,6.73-1.3,2.1-.85,3.91-1.94,5.44-3.39,1.55-1.4,2.77-3.07,3.68-4.96.94-1.89,1.38-3.87,1.38-6.03s-.43-4.19-1.38-6.08c-.91-1.94-2.13-3.56-3.68-5.01-1.54-1.45-3.34-2.59-5.44-3.39-2.13-.82-4.36-1.3-6.73-1.3h-14.14Z"/>
      <path class="cls-1" d="m495.79,465.41h-7.43c-4.53-10.5-9.02-20.91-13.43-31.29-4.47-10.34-9.18-20.31-13.65-30.81l-28.03,62.1h-3.45l31.26-69.54,2.02-4.09c5.12,12.06,12.06,25.47,17.21,37.49,5.12,12.01,10.31,24.06,15.51,36.14Z"/>
    </g>
    <g>
      <path class="cls-1" d="m130.39,455.23l9.64-23.48-14.3-36.94h7.49l10.64,27.57,11.28-27.57h3.01l-12.79,31.39,11.28,29.02,24.67-60.42h3.09l-26.26,64.24-2.31,5.54h-3.01l-11.29-29.07-9.64,23.53-2.24,5.54h-3.12l-27.09-69.79h7.46l23.48,60.42Z"/>
      <path class="cls-1" d="m228.89,441.11h-4.33v.05h-30.08c.03,9.97,1.75,23.21,12.28,23.21,7.94,0,15.51-3.82,18.85-10.02l1.51.82c-3.64,6.68-11.9,10.44-20.36,10.44-11.15,0-22.35-6.35-22.35-24.5s11.2-24.71,22.35-24.71,22.13,6.35,22.13,24.71Zm-10.04-1.45c-.19-9.85-2.29-22.08-12.09-22.08s-12.09,12.22-12.25,22.08h24.34Z"/>
      <path class="cls-1" d="m248.98,393.14v71.57h-6.95v-71.57h6.95Z"/>
      <path class="cls-1" d="m269.04,393.14v71.57h-6.98v-71.57h6.98Z"/>
    </g>
    <path class="cls-1" d="m462.02,437.02c-3.77,0-6.81,3.02-6.81,6.78s3.05,6.8,6.81,6.8,6.79-3.02,6.79-6.8-3.05-6.78-6.79-6.78Z"/>
    <path class="cls-1" d="m373.17,440.63c-.84-3.07-2.4-6.08-4.79-9.05-2.37-2.86-5.69-5.43-9.89-7.65-4.31-2.42-7.67-4.58-10.12-6.35-2.45-1.72-4.33-3.34-5.66-4.69-1.29-1.34-2.1-2.52-2.45-3.66-.35-1.09-.54-2.15-.54-3.12,0-1.08.3-2.15.83-3.29.54-1.19,1.32-2.25,2.35-3.17,1.05-1.02,2.34-1.79,3.85-2.42,1.54-.6,3.29-.92,5.31-.92s3.8.32,5.39.97c1.62.65,2.99,1.4,4.09,2.25,1.11.92,2.02,1.84,2.69,2.81.7.97,1.1,1.72,1.26,2.37h2.96c-1.08-2.37-1.7-3.66-2.96-5.18-.51-.63-1.1-1.29-1.75-1.87-1.29-1.04-2.66-1.95-4.22-2.64-1.54-.65-3.18-1.19-4.9-1.35-1.72-.27-3.42-.38-5.12-.32-2.66.27-5.14.9-7.49,2.15-2.29,1.24-4.2,2.74-5.74,4.63-1.53,1.89-2.56,4.04-3.04,6.35-.51,2.32-.3,4.64.62,7.01.94,2.47,2.35,4.63,4.15,6.3,1.86,1.72,3.93,3.29,6.22,4.79,2.29,1.45,4.74,2.86,7.3,4.31,2.56,1.45,5.11,3.29,7.67,5.33,3.34,2.76,5.55,5.76,6.57,9.17,1.05,3.39,1.1,6.51.22,9.42-.92,2.91-2.75,5.33-5.49,7.26-2.72,1.89-6.11,2.76-10.18,2.64-3.07-.05-5.79-.7-8.22-1.94-2.42-1.19-4.47-2.59-6.17-4.04-1.67-1.5-2.96-2.96-3.82-4.31-.91-1.34-1.34-2.21-1.34-2.52h-3.45c1.29,2.91,2.93,5.38,4.88,7.43,1.97,1.99,4.04,3.61,6.22,4.89,2.21,1.24,4.34,2.1,6.52,2.64,2.13.48,4.09.75,5.87.75,4.04.07,7.67-.58,10.8-2.04,3.15-1.45,5.74-3.34,7.7-5.66,2.02-2.37,3.34-5.06,4.01-8.07.7-3.02.64-6.1-.13-9.22Z"/>
  </g>
</svg>